<?xml version="1.0" standalone="no"?>
<!DOCTYPE svg PUBLIC "-//W3C//DTD SVG 1.1//EN" "http://www.w3.org/Graphics/SVG/1.1/DTD/svg11.dtd" >
<svg xmlns="http://www.w3.org/2000/svg">
<metadata>
This is a custom SVG webfont generated by Font Squirrel.
Copyright   : Copyright c 2010 by Kimberly Geswein All rights reserved
Designer    : Kimberly Geswein
Foundry     : Kimberly Geswein
</metadata>
<defs>
<font id="webfontBhZmh9Sb" horiz-adv-x="1519" >
<font-face units-per-em="2048" ascent="1638" descent="-410" />
<missing-glyph horiz-adv-x="1343" />
<glyph unicode=" "  horiz-adv-x="1343" />
<glyph unicode="&#x09;" horiz-adv-x="1343" />
<glyph unicode="&#xa0;" horiz-adv-x="1343" />
<glyph unicode="!" horiz-adv-x="663" d="M29 57q-20 31 -4 66t44.5 58.5t59.5 24.5t41 -36q8 -37 0 -78t-28.5 -65.5t-50 -21.5t-62.5 52zM170 762q-6 16 5 79.5t33.5 156t54.5 205t69 225t77 218t78.5 183.5t73.5 120t62 29q2 -12 -10.5 -86.5t-37 -185.5t-57.5 -243t-69.5 -260t-76.5 -239.5t-77 -180 t-69.5 -81t-55.5 59.5z" />
<glyph unicode="&#x22;" horiz-adv-x="710" d="M463 1022l-17.5 30.5t-11.5 24.5v424q49 25 75 -0.5t36 -78t8 -121t-12.5 -133t-23.5 -113.5t-25 -62q-4 2 -15.5 13.5t-13.5 15.5zM180 1077q-12 35 -18 87.5t-9 109.5t-3 110.5t2 88.5q0 43 17 31.5t38.5 -42t39 -64.5t17.5 -38q2 -33 3 -84t1 -101.5t-1 -86t-3 -37.5 l-28 -29q-10 4 -31 24.5t-25 30.5z" />
<glyph unicode="#" horiz-adv-x="1722" d="M805 29q-8 45 2 98t22.5 106.5t17.5 102.5t-13 88q-8 16 -20.5 23.5t-28 9.5t-31.5 0l-33 -4q-68 -10 -103.5 -39t-51 -69t-20.5 -86t-14.5 -90t-29 -81t-64.5 -59q-45 29 -53 69.5t-1 86.5t19.5 93.5t6.5 88.5q-6 0 -56.5 -6.5t-113 -6.5t-120 14.5t-77.5 55.5 q-12 25 30 39t109.5 31.5t147.5 42t143.5 66.5t97 107.5t9.5 166.5q-25 2 -69 -5.5l-95 -16.5t-104.5 -14t-98.5 0t-76 25.5t-37 65.5q63 27 130 44l136 33l137 29q69 14 134 35l36 67q24 44 51.5 88t54 76.5t44 31.5t22.5 -47t-11 -159q78 -14 126 16t76.5 79t43 104 l25.5 94t25.5 49.5t43.5 -32.5q20 -33 21 -67t-5 -68.5t-13.5 -71.5t-2.5 -74q47 -4 113.5 -5t136 0t132 1t101.5 -2t47 -10t-34 -23.5t-140 -40t-273 -61.5q-49 -10 -92 -39t-74.5 -67t-52 -79.5t-25.5 -78.5t6 -66t42 -39q8 -2 56 6.5t114.5 18.5t139.5 18t130.5 5t87 -19 t8.5 -57q-20 -41 -70 -57.5t-114.5 -22.5t-136.5 -5t-134.5 -4.5t-108.5 -22.5t-58 -56q-6 -29 -14.5 -93.5t-23.5 -136t-40 -135t-63 -88.5q-4 2 -15.5 12.5t-13.5 16.5zM664 707q0 -6 -1 -22.5t-1 -34t1 -34t1 -22.5q92 -14 142 9.5t75.5 71.5t37 115.5t27.5 141.5 q-18 55 -46 62t-58.5 -16.5t-62 -66.5t-56.5 -86t-41 -77.5t-18 -40.5z" />
<glyph unicode="$" horiz-adv-x="1185" d="M213 29q-10 55 1 109.5t25.5 102.5t23.5 87t-3 64.5t-55 34.5t-133 -3q-29 23 -29 56.5t29 56.5q10 0 39 4l59 8q31 4 59.5 9t38.5 7l23 6l28 9q14 4 24.5 8t10.5 6l142 395q10 29 -15.5 54.5t-67.5 51.5l-88 53q-46 28 -78 61.5t-38 76.5t33 98q25 37 76 54.5t109 28.5 l116 23q57 11 94 36q14 8 31 48l35 89q19 49 41 98t45.5 78t49 26t52.5 -57q10 -23 5 -51t-14.5 -58t-16.5 -60.5t-3 -57.5h254q6 0 16.5 -10t12.5 -17q0 -6 1 -18t1 -25.5t-1 -25.5t-1 -17q-90 -6 -174 -17t-144.5 -45t-91 -98.5t-14.5 -177.5q186 -68 274 -130 t105.5 -120.5t-22.5 -111.5t-111.5 -100t-160.5 -88l-169 -76l-136 -62q-56 -27 -63 -47l-112 -338q-2 -6 -17.5 -22.5t-35 -27.5t-37 -10t-23.5 32zM551 621q55 -10 117.5 8t121 54t107.5 80t78 85q-2 43 -29.5 76.5t-69.5 51t-93.5 15.5t-97.5 -32.5t-83 -91t-51 -160.5 v-86zM410 1214q70 -47 108.5 -39.5t50 39t1 74.5t-37 68.5t-65.5 17.5t-84 -76q-18 -27 -4.5 -49.5t31.5 -34.5z" />
<glyph unicode="%" horiz-adv-x="819" d="M57 129q16 -27 36 -32t48 32q143 276 302 546.5t292 555.5q8 18 18.5 53t9.5 65.5t-19.5 47t-65.5 2.5q-72 -158 -156 -307l-170 -299l-169 -300q-83 -151 -154 -309q2 -6 13 -27.5t15 -27.5zM565 299q-16 47 8.5 67.5t56.5 15.5t52 -34t-4 -78q-10 -4 -27.5 -6t-34 0 t-31 9.5t-20.5 25.5zM57 129q16 -27 36 -32t48 32q143 276 302 546.5t292 555.5q8 18 18.5 53t9.5 65.5t-19.5 47t-65.5 2.5q-72 -158 -156 -307l-170 -299l-169 -300q-83 -151 -154 -309q2 -6 13 -27.5t15 -27.5zM565 299q-16 47 8.5 67.5t56.5 15.5t52 -34t-4 -78 q-10 -4 -27.5 -6t-34 0t-31 9.5t-20.5 25.5zM164 1214q-16 47 8.5 68t56 15.5t52 -34t-4.5 -77.5q-10 -4 -27.5 -6t-33.5 0t-30.5 9t-20.5 25q-16 47 8.5 68t56 15.5t52 -34t-4.5 -77.5q-10 -4 -27.5 -6t-33.5 0t-30.5 9t-20.5 25z" />
<glyph unicode="&#x26;" horiz-adv-x="960" d="M268 57q-14 14 -17 53.5t1 91.5t12 111l17 114q8 54 13 99t3 68q-125 31 -182.5 62.5t-68.5 67.5t14.5 74t69.5 77.5t96.5 82.5t93 89.5t61 95.5t2.5 100q-31 -4 -63.5 -3t-64.5 10.5t-58.5 27.5t-40.5 49q-12 25 4 54.5t48 61.5t73 65.5t79.5 69.5t68.5 72t38 72 q37 172 60.5 254t37 100.5t19.5 -15t9 -93t5 -134.5t10 -138q39 -16 76 5t76 51t78 51.5t82 4.5q14 -57 -12.5 -93t-71.5 -61.5t-98.5 -46t-96.5 -45t-63.5 -59.5t2.5 -90q141 14 209.5 7t87 -31.5t-5 -62.5t-68.5 -86l-102 -104q-56 -56 -105 -114.5t-79 -117t-21 -113.5 q14 2 55 2h86h85q40 0 56 -2q72 -6 78 -21.5t-27.5 -36t-93 -44t-119.5 -43.5l-103 -34q-44 -14 -46 -18q-23 -35 -32 -86t-11 -111.5t-3 -122t-9.5 -116t-27.5 -97.5t-58 -61zM242 819q-4 -6 -15.5 -27.5t-13.5 -29.5q76 -14 119 7.5t22 107.5q-16 4 -32.5 -0.5t-32 -13.5 t-27.5 -20.5t-20 -23.5zM551 1214q23 -8 47.5 5.5t38.5 23.5h-86v-29z" />
<glyph unicode="'" horiz-adv-x="528" d="M172 1217q0 2 6 23.5t16 47.5l18 53l15 43q29 74 48.5 91.5t29.5 -4t13.5 -71.5t-1 -111.5t-15.5 -123t-29.5 -104.5t-44 -58.5t-56.5 15.5q-2 10 -3 38.5t-1 60.5t1 60t3 40z" />
<glyph unicode="(" horiz-adv-x="720" d="M184 283q-88 106 -118.5 246.5t-21.5 293t51 307t102.5 292t131 247t137 171t120 66.5t78.5 -69q-82 -74 -170 -185.5t-162 -242.5t-128 -275.5t-70.5 -286.5t13 -272.5t121.5 -234.5q12 -14 51 -40l84 -56q45 -31 87 -66t63.5 -67.5t11.5 -61.5t-69 -49q-4 -2 -14.5 -2 t-14.5 2q-18 14 -59 54l-85 84l-84 85q-41 42 -55 60z" />
<glyph unicode=")" horiz-adv-x="620" d="M43 57q-2 4 -2 13.5t2 13.5q209 190 301 399t93 432.5t-75.5 456t-205.5 465.5q-8 20 -3 47t31 37q139 -113 220 -270.5t115 -335.5t27 -363.5t-41 -353.5t-89.5 -305t-120 -217t-131 -91.5t-121.5 72.5z" />
<glyph unicode="*" horiz-adv-x="1398" d="M467 199q-8 16 -29.5 -7.5t-47.5 -57.5l-50 -64q-25 -31 -41 -30t-19.5 47t17.5 167q8 47 -12.5 66.5t-53 26.5t-71.5 8t-70 7.5t-46 26t-1 64.5q57 8 126 12t126 20.5t92 53t23 110.5q-6 37 -38 72l-66 69q-34 34 -55.5 68.5t-8.5 73.5q27 12 56.5 7t55 -19.5t48 -34 t36.5 -37.5q8 23 24.5 59.5t35 73.5t40 64.5t40 29.5t35 -29.5t24.5 -113.5l14 14q10 10 13 15q6 8 18 27.5l25.5 43l25.5 43l17 27.5q55 18 70.5 -5.5t8 -71.5t-31 -110.5t-49 -122t-43 -107.5t-13.5 -64q82 -6 163 -1t161 13t160.5 14t164.5 2q14 -31 -27.5 -52.5 t-111 -37.5t-152.5 -30.5t-151 -30t-105.5 -32.5t-15.5 -42l254 -283v-57h-86l-338 311q-4 -47 2 -93t13.5 -91t13.5 -91t0 -91h-86z" />
<glyph unicode="+" horiz-adv-x="862" d="M453 29q-25 37 -39.5 85t-22.5 100t-12 103.5t-10 92.5h-283l-57 69q2 2 10 6t17.5 9.5t17.5 9.5t12 4q14 4 55 12l86 18q45 9 85 16t57 11l55 396q2 14 15.5 22t28.5 8t27.5 -7t12.5 -23v-367q14 0 51 -4t77 -9.5t77 -9.5t51 -6q6 -2 28.5 -12t26.5 -16 q-27 -43 -70.5 -56.5t-91 -19.5t-89.5 -17.5t-60 -48.5q-25 -49 -20.5 -100t13.5 -101.5t10 -99.5t-30 -94q-4 2 -15 13.5t-13 15.5z" />
<glyph unicode="," horiz-adv-x="452" d="M-31 -365q-12 35 11.5 80t60.5 92l74 92q37 44 53 74q23 47 32 92.5t12 89.5t4 91t7 96q6 47 20.5 52t30 -17.5t29.5 -68.5t21.5 -99t4.5 -108.5t-20 -98.5q-4 -8 -19.5 -45t-39 -87t-54 -102.5t-63.5 -94.5t-67.5 -62.5t-67.5 -3.5q-6 2 -16.5 13t-12.5 15z" />
<glyph unicode="-" horiz-adv-x="1243" d="M72 707q-33 33 3 62.5t114.5 54t189 43t227.5 27.5t229.5 8t195.5 -16.5t125 -46t18 -77.5q-25 0 -89.5 -4l-137.5 -8.5l-137.5 -8.5t-88.5 -6q-61 -6 -152.5 -29.5t-185.5 -40t-178 -12t-133 53.5z" />
<glyph unicode="." horiz-adv-x="366" d="M86 29q-37 53 -19.5 105t56.5 82t87 23.5t73 -69.5q14 -39 -5.5 -80t-53.5 -66.5t-73.5 -28.5t-64.5 34z" />
<glyph unicode="/" horiz-adv-x="776" d="M57 29q-16 96 8.5 228t73.5 283.5t117 311.5t139 310l139 282l115 223q27 18 45.5 8t28.5 -31.5t13 -48t-1 -41.5q-10 -20 -29 -65l-46 -100l-53 -117l-52 -118l-45 -100l-29 -65l-35 -85l-52 -128l-51 -128q-24 -60 -32 -83q-12 -35 -29.5 -106.5l-39 -152.5t-47 -157.5 t-54.5 -119.5q-6 -8 -18 -17.5t-25.5 -12.5t-25 2t-15.5 28z" />
<glyph unicode="0" horiz-adv-x="1214" d="M170 29q-76 57 -98.5 163.5t-4 238.5t72 279.5t132 285t177 254t204 187t214 85t208.5 -53.5q76 -49 93.5 -150t-8 -229t-88 -272.5t-147.5 -282t-184.5 -255t-201 -192.5t-197.5 -95t-172 37zM199 113q39 -57 94 -50t120.5 58t136.5 137t140.5 190.5t132 216t110.5 213 t78.5 183.5t35.5 125q10 113 -14.5 164t-75 53t-118 -38t-143 -110.5t-153.5 -166t-147.5 -201t-125 -216t-85 -214t-29.5 -192.5t43 -152z" />
<glyph unicode="1" horiz-adv-x="692" d="M57 29q-37 37 -32.5 102.5t27 134t51 129t38.5 84.5q8 18 32 78l55 138l69 167l69 167l55 137l32 77q6 16 14 50t20.5 71t27.5 69.5t35.5 49t44 9.5t54.5 -52q2 -2 -19 -64l-58 -163l-82 -229l-96 -262l-98 -263l-87 -231q-39 -101 -65.5 -163.5t-30.5 -64.5t-26 8.5 t-30 20.5z" />
<glyph unicode="2" horiz-adv-x="1370" d="M86 29q-35 25 -29 55.5t29 56.5l189 217q95 104 183.5 212t166 223.5t139.5 250.5q33 72 26.5 106t-37 42t-77.5 -2t-98.5 -28.5t-98.5 -38t-76.5 -30t-35 -4t29.5 40.5q45 53 111.5 92.5t135.5 57.5t131.5 14t100 -37.5t42 -99t-40.5 -168.5q-53 -121 -136 -224 l-168 -203q-86 -99 -163.5 -200.5t-126.5 -220.5q41 -12 125 11.5t188 60.5l219 77q115 40 217.5 62.5t182 17.5t114.5 -59q4 -6 4 -28.5t-4 -28.5q-76 12 -180.5 -11.5t-222.5 -63.5l-243 -85q-124 -45 -236.5 -74.5t-207 -32.5t-153.5 42z" />
<glyph unicode="3" horiz-adv-x="1298" d="M72 57q-6 10 -15.5 22.5t-12.5 24t2 21.5t26 16q27 8 58.5 4t65.5 -12l66 -16q33 -8 64 -4q39 4 105.5 30.5t146 68.5t165.5 96t162 112.5t134.5 118t86 113t15 97.5t-79.5 70q-45 8 -118 -8t-153 -40l-160 -47q-79 -24 -139.5 -30t-92 13.5t-15.5 83.5q33 39 88 97 t114.5 127.5t112 142.5t80.5 140l-40 -10l-95 -23q-55 -13 -117.5 -23.5t-108.5 -10.5t-67.5 14.5t4.5 52.5q4 8 51.5 36t116 62t147.5 64.5t147.5 43t113.5 0t48 -66t-49 -154.5t-179 -265v-86q199 14 312.5 -19.5t155.5 -99t19 -154t-93.5 -180.5t-182 -180t-250 -153.5 t-295 -99.5t-316.5 -17q-4 2 -15 13t-13 15z" />
<glyph unicode="4" horiz-adv-x="1355" d="M664 57q-16 86 11 172t63 171t61.5 169t5.5 166q-51 8 -114.5 -8t-133.5 -41l-140 -50q-71 -26 -135.5 -35t-118.5 6.5t-91 70.5q-33 49 -26 113.5t38 138.5t78 152l96 158q49 79 90 151.5t62 134.5q57 14 82.5 -0.5t29.5 -45t-9 -73.5t-32.5 -86t-40.5 -80l-30 -55 q-10 -20 -39 -73l-60 -111l-59 -110q-29 -52 -39 -73v-57q61 -6 128 5t133.5 30.5t130 41l116.5 38.5q123 35 196.5 104.5t120.5 162.5t82 204.5t82 232.5q57 20 72.5 -13.5t5.5 -97t-39 -144.5l-57 -156l-50 -133q-22 -58 -18 -76q41 16 83 0.5t58 -58.5q-14 -35 -47.5 -47 t-71.5 -21.5t-75 -22.5t-59 -50q-51 -80 -89 -171t-67 -185.5t-52 -190.5l-46 -186q-8 -4 -21.5 -5t-27 2t-24.5 10t-13 21z" />
<glyph unicode="5" horiz-adv-x="1355" d="M184 29q-18 4 -42.5 12t-46 21.5t-37 33t-15.5 45.5q0 8 21.5 10.5t55.5 -2t75 -11.5l78 -13q38 -6 68 -10t42 -2q141 16 270 83.5t224.5 170t146.5 233.5t37 277q-37 74 -104.5 92t-148.5 2.5t-165 -53.5l-157 -76l-124 -64q-51 -27 -65 -16q-41 27 -51 56.5t-4 61 t22 66.5l33 72q2 6 20 51l43 100q25 55 53.5 108.5t53.5 78.5q31 31 84 49t120.5 28.5t142.5 16.5l147 12q72 6 134 13.5t107 21.5q61 20 85 -5.5t3.5 -65.5t-90.5 -79.5t-196 -48.5q-23 -2 -79.5 -5t-119 -8t-118.5 -8t-79 -5q-23 -18 -50.5 -47t-50 -65t-35.5 -72.5 t-5 -69.5q57 -12 114.5 0t117 29.5t121 28.5t126.5 -3q129 -29 191.5 -94.5t73 -154.5t-27.5 -190.5t-110 -200.5t-172 -186t-218 -146.5t-246 -81t-253 9.5z" />
<glyph unicode="6" horiz-adv-x="903" d="M268 29q-25 8 -52.5 16t-55 21.5t-51 31t-37.5 43.5l-17 109q-8 53 -11 105.5t3 104.5t25 105q8 20 35.5 71.5t68.5 119l92 144.5t106.5 148.5l109 134t100.5 100.5t82.5 45t54.5 -30q4 -10 4 -41.5t-4 -42.5l-98 -91q-59 -54 -123 -120.5t-126.5 -140.5t-108.5 -149.5 t-70.5 -149.5t-10.5 -139h29q205 109 337 142.5t203.5 16t91 -74.5t-2 -130t-76.5 -148.5t-134 -131t-172.5 -79t-191.5 9.5zM268 141q53 -33 117 -22.5t123 46.5t110.5 86t80 98t30.5 85t-37 45q-25 6 -80 -9t-118.5 -43t-124 -64.5t-99.5 -76.5t-45 -78t43 -67z" />
<glyph unicode="7" horiz-adv-x="1200" d="M311 57q-2 4 -2 13.5t2 13.5l57 101l85 154l85 154l56 101q16 31 50 80l73 106l79 119q40 61 68.5 119.5t41 110t-0.5 85.5q-115 -31 -213 -54t-193.5 -38.5t-194.5 -20.5t-218 1q-45 29 -19.5 58.5t97.5 58t178.5 53t222 45t228 35t199.5 20.5t134.5 2t32.5 -18 l-54 -118l-91 -195l-119 -240l-133 -253q-68 -124 -136.5 -233.5t-128 -181.5t-108.5 -97.5t-78 19.5z" />
<glyph unicode="8" horiz-adv-x="1243" d="M127 29q-55 29 -73.5 76t-12.5 100t30.5 104t55.5 86q12 14 39 43l60 66l71 77l70 75l59 64l41 42q23 57 2.5 110.5t-55.5 106.5l-68 107q-33 54 -34 115t44 126.5t166 140.5q94 59 161 83t115 21t84 -28.5t67.5 -67.5t63 -94.5t74.5 -109.5q6 -8 23.5 -15.5t35 -16.5 t27 -21.5t1.5 -32.5l-131 -89q-69 -48 -136 -102.5t-129.5 -113t-113.5 -119.5q-23 -86 -6.5 -156.5t41 -132t42 -115t0 -106.5t-86 -107.5t-216.5 -115.5q-70 -29 -155.5 -32t-155.5 32zM156 199q0 -6 -1 -18.5t-1 -26t1 -25.5t1 -16q150 -27 243 3.5t144 93t66.5 140.5 t6 143.5t-36 104.5t-57.5 23q-25 -25 -82 -75t-116.5 -110.5t-108.5 -124t-59 -112.5zM496 961q2 -6 10 -19l17 -27l17 -25q7 -11 11 -13q4 -4 14 -4.5t15 4.5l56 44l85 67l85 69q40 33 56 45q6 6 15.5 14t18.5 18l16 16q7 7 8 9v225q0 27 -48.5 39.5t-115 4t-137 -38 t-117.5 -86t-56 -141t50 -201.5z" />
<glyph unicode="9" horiz-adv-x="974" d="M297 29q-8 43 -7 77.5t9 67.5t23 66l32 71l50 101l76 153l77 154l51 100v29q-43 14 -85 5t-83 -29.5t-81 -44t-81.5 -38t-86 -12.5t-91.5 33q-68 45 -60.5 123t67 159.5t157.5 151.5t212 99.5t230.5 3t213.5 -139.5q4 -14 -17.5 -76.5t-58.5 -152.5t-87 -199l-105 -217 q-54 -109 -109.5 -208t-103.5 -168.5t-86 -101.5t-56 -7zM184 932q-4 -4 -15 -26.5t-13 -28.5q76 -18 161.5 2t166.5 63t152 101.5t114 115.5q-25 49 -71 59.5t-102.5 -8t-118 -54.5t-115.5 -78t-97.5 -82.5t-61.5 -63.5z" />
<glyph unicode=":" horiz-adv-x="311" d="M70 57q-18 35 -2 56.5t43.5 30t57.5 1t42 -31.5q20 -43 8 -71t-38.5 -37t-59.5 3t-51 49zM98 735q-27 25 -28.5 54.5t11.5 50t41 25.5t60 -17q33 -23 37 -55.5t-11 -57t-45 -30t-65 29.5z" />
<glyph unicode=";" horiz-adv-x="438" d="M-41 -412q-2 4 -2 14.5t2 12.5q72 88 119 160.5t73.5 147.5t34 162t-1.5 208q12 8 26.5 1t28 -19.5t22.5 -24.5l9 -12q45 -59 48.5 -148.5t-21.5 -181.5t-70 -176t-94 -135.5t-96 -59.5t-78 51zM100 858q-4 6 -4 28.5t4 28.5h113v-112q-18 -10 -34.5 -7t-32 12t-28 22.5 t-18.5 27.5z" />
<glyph unicode="&#x3c;" horiz-adv-x="1159" d="M989 29l-405 268q-205 135 -385 297l-82 73q-41 36 -64.5 73.5t-19.5 77.5t53 85l69 63l104 95l123 111l123 111l104 94l69 63q12 4 34.5 0t41 -15.5t24.5 -30t-14 -38.5l-537 -537q-18 -18 -8 -43.5t37 -56.5t62.5 -61.5t69.5 -56.5t61 -43l32 -21q23 -14 68 -47 l103 -70l123 -82l123 -82l106 -70l69 -45q27 -33 31 -63.5t-8.5 -50t-40 -21.5t-66.5 23z" />
<glyph unicode="=" horiz-adv-x="1073" d="M57 57q-14 23 20 41.5t94 33.5t136 27.5t143.5 20.5l116.5 13.5t56 5.5q20 0 72.5 1t110.5 1t110.5 -1t72.5 -1q14 -8 25.5 -23.5t3.5 -34.5q-92 -12 -214 -31.5l-242 -40.5l-225 -40l-167 -29q-45 -8 -64.5 3t-48.5 54zM199 621q14 31 71.5 55t134 39.5t165.5 20.5 t168 -2t139.5 -27.5t83.5 -57.5q-10 -12 -67.5 -24.5t-139.5 -23.5t-175.5 -18.5t-175 -6t-139 11.5t-65.5 33z" />
<glyph unicode="&#x3e;" horiz-adv-x="862" d="M98 57q-25 49 10 108.5t99.5 127t145.5 139.5t148.5 144.5t107.5 141t26 130.5q-2 6 -46 42l-109 88l-139 114q-75 61 -137.5 118.5t-101.5 104.5t-32 69q0 6 7 14.5t16 17.5t18.5 16.5t15.5 7.5q53 -41 136 -93.5t170 -114t167 -131t128 -143t52 -152.5t-61 -157 l-59 -70l-83 -101l-96 -112l-92 -110l-76 -90l-45 -53l-22 -23l-35 -35l-35 -33l-22 -22q-8 4 -30 25.5t-26 31.5z" />
<glyph unicode="?" horiz-adv-x="1370" d="M57 29q-16 25 -27.5 53.5t-0.5 58.5q18 55 37.5 55.5t33 -28.5t21.5 -73t5 -75.5t-19.5 -35.5t-49.5 45zM141 903q-12 53 27 117.5t112.5 137.5t171.5 150l200 154l204 152q100 74 179 141.5t125 123.5t43 97t-66.5 63.5t-204.5 22.5h-678q-18 39 -4 76t61 37h707 q41 0 89 -16.5t93 -44t81 -66.5t54.5 -83t12 -91t-47.5 -94q-76 -88 -168 -160t-191 -135l-201 -125q-101 -61 -195 -129t-176 -147.5t-142 -180.5q-6 -10 -19 -18t-26.5 -10.5t-25 4t-15.5 24.5z" />
<glyph unicode="@" horiz-adv-x="1667" d="M424 29q-158 45 -244 145t-114.5 233.5t-7 290t80 314t145.5 307t190.5 267.5t215 195t218 90t200.5 -46.5t164 -214.5q33 -74 52 -155t19 -162t-23.5 -158.5t-76.5 -145.5q-37 -49 -86 -103.5t-106.5 -97.5t-123 -67.5t-134.5 -13.5q-27 4 -72 1t-92 -7.5t-88 -4.5 t-60 11q-76 37 -100.5 90t-14 112.5t49.5 118.5t92 110.5t113.5 89.5t113.5 52t92 0t50 -66q8 -43 -1.5 -91t-24.5 -97t-32.5 -95t-25.5 -83q10 -20 23 -26.5t28.5 -3.5t32 11.5t28.5 18.5q88 57 151.5 121.5t102.5 139.5t53.5 163t4.5 196q-14 152 -77 214.5t-155 55.5 t-200.5 -74t-213 -175.5t-193.5 -247.5t-143.5 -292.5t-61.5 -310.5t54 -298q53 -125 127 -180.5t161 -61.5t184.5 30t196.5 95.5t197 134.5l187 149l168 134q78 61 135 94q14 -90 -41 -185t-155.5 -182t-230.5 -160t-264 -121t-258 -65.5t-210 7.5zM510 932q-4 -10 -4 -42 t4 -42q33 -18 58.5 -9t46 35.5t37 64.5t27.5 76t17 69.5t11 45.5q-35 20 -68 -1t-59.5 -59t-45 -79t-24.5 -59z" />
<glyph unicode="A" horiz-adv-x="2117" d="M-197 -463q-8 6 -23.5 23.5t-25.5 38.5q-9 17 -8 30q0 21 29 21q41 -53 104 -57h11q59 0 129 30q77 33 163 94.5t168 136t157 154.5t132 150.5t91 124t34 73.5q0 8 -20.5 24.5t-46.5 33.5l-48 31q-23 15 -26 24q8 25 48 39t89 26l98 21q49 10 74 27q133 193 237.5 398.5 t200.5 414.5l194 417q97 209 216 408q21 35 36 35q9 0 15 -11q18 -32 27 -122q7 -80 7 -195v-30q-1 -134 -7.5 -284.5t-15.5 -303.5l-17 -283l-14 -219q-4 -64 -3 -94v-19q8 -127 12.5 -220t25 -173t69.5 -153.5t147 -159.5q-39 -12 -71 -13q-37 0 -65 17q-52 31 -86 95.5 t-55 146.5l-41 162q-19 79 -43 138.5t-63 75.5q-4 0 -14 1t-24.5 1t-26.5 -1t-19 -1q-23 -4 -84 -19l-134 -33q-73 -17 -138 -35l-96 -25q-61 -16 -131 -80t-145.5 -152l-156.5 -192l-166 -205q-85 -100 -173 -186t-176 -137.5t-177 -58.5q-10 -1 -19 -1q-79 0 -155 51z M1159 639q6 -2 27.5 -2t27.5 2q43 6 111 14.5t130 17.5l109 16l46 7l57 58l2 31q2 32 5 84.5t6 116.5l7 130q3 66 5 126t4 106v309q-8 5 -16 4q-9 0 -18 -6q-15 -12 -24 -27l-479 -958v-29z" />
<glyph unicode="B" horiz-adv-x="1794" d="M184 29q-74 45 -104.5 87t-30.5 91t24 108l54 138q6 16 28 65l51 116l62 142l63 143l51 116q22 50 28 67q29 67 29 120q0 7 -1 13q-4 57 -12 108q-7 41 -7 81q0 10 1 20q2 49 47 110q6 8 31 37l53 63l54 62q26 29 32 35q12 16 71.5 59t146.5 98.5t192.5 115t211 109.5 t201.5 84t166 35h4q67 0 99 -35q19 -21 19 -62q0 -28 -9 -64q-33 -129 -111 -240.5t-172 -216.5l-186 -207q-92 -102 -154 -213q240 -8 375 -54t187 -118q38 -51 38 -113q0 -24 -6 -49q-20 -91 -93 -189.5t-187.5 -198t-248.5 -187.5t-279.5 -158.5t-281 -111.5t-248.5 -45 q-10 0 -20 -1q-101 1 -168 40zM156 141q25 -39 76 -48q29 -5 61 -5q24 0 50 3q58 7 114.5 22.5t93.5 27.5q266 80 463.5 190.5t325.5 227.5t190 228q59 106 58 186q0 88 -71 131q-42 25 -106 25q-42 0 -93 -11q-130 -27 -322.5 -130t-444.5 -310q-29 -25 -51.5 -23t-42 11.5 t-37 16.5t-37.5 -5q-23 -14 -51.5 -53t-59 -92.5t-57.5 -113t-45 -113.5t-24 -99q-1 -12 -1 -22q0 -29 11 -44zM438 903q0 -6 -1 -22.5t-1 -34t1 -33.5t1 -22q20 4 84 56t154 135l197 188l216 221l206 228q99 114 171 212t110 174q26 53 26 87q0 15 -5 26q-27 4 -54 4 q-48 0 -99 -14q-80 -22 -163 -64.5t-164 -102t-154.5 -123t-135.5 -125.5l-106 -112l-30 -72l-45 -109l-52 -129l-52 -129l-45 -110q-19 -49 -30 -71q0 -2 -5 -10.5t-9 -18.5t-9.5 -18.5t-5.5 -10.5z" />
<glyph unicode="C" horiz-adv-x="1581" d="M268 29q-121 49 -180 134t-68 196q-2 21 -1 44q0 93 28 199q35 131 100.5 272.5t154.5 286t188.5 281.5t204 262t199.5 225.5t176 172t132 102.5q90 53 150.5 53t96.5 -37t49 -100q12 -59 12 -125q0 -76 -14 -154q-13 -72 -33.5 -124t-45 -76.5t-47.5 -2.5q-2 20 5 61.5 t18.5 93.5t21.5 106.5t15 101.5q2 19 1 35q0 25 -4 44q-6 32 -28 38q-20 5 -42 5q-57 0 -125 -35q-95 -48 -201.5 -144.5t-217.5 -229.5t-215 -285.5t-195.5 -313.5t-157 -313.5t-99.5 -285.5q-25 -100 -25 -179q0 -26 3 -50q11 -96 73 -145q44 -35 122 -34q30 0 64 5 q94 12 179 55t164 100.5t155 124.5l150 133q75 66 152 121t158 88q16 6 30 6q25 0 43 -19q18 -20 18 -45q0 -13 -5 -28q-14 -43 -88.5 -111.5t-183 -146.5t-238 -152.5t-253 -130t-229.5 -79.5q-53 -12 -94.5 -12t-72.5 12z" />
<glyph unicode="D" horiz-adv-x="2058" d="M57 29q-5 15 -5 29q0 20 10 37q17 30 53 46l310 151l307 148q153 76 302.5 161t294.5 190q285 203 464 382t271.5 329.5t106.5 273.5q4 31 4 60q0 86 -32 155q-42 92 -132 151.5t-208 84.5q-84 18 -178 18q-38 0 -77 -2q-137 -10 -273 -57.5t-261 -134.5t-221 -214 q-2 -4 -7.5 -16.5t-9.5 -26.5l-8 -28q-4 -13 -4 -15l-150 -362q-76 -180 -145.5 -362.5t-131 -368t-110.5 -375.5q-20 -6 -35 -7q-18 0 -29 10q-21 18 -21 60q0 34 10 76q10 47 25.5 93t29.5 83t20 51l43 119l65 179l76 211l75 211l65 179l43 119q-14 45 -14 84q0 25 6 46 q14 56 50 102.5t85 86.5l98 76q113 86 225.5 139.5t230.5 81t242 34.5q58 3 119 4q70 0 144 -5q104 -6 198.5 -56t169.5 -114q121 -100 140 -228q4 -31 4 -62q0 -100 -44 -209q-58 -143 -181 -297t-284 -305.5t-348.5 -296t-375 -269.5t-363.5 -224t-313 -160.5t-225 -81.5 q-32 -7 -54 -7q-39 1 -47 23z" />
<glyph unicode="E" horiz-adv-x="1863" d="M43 57q-4 5 -4 11q0 9 12 18q25 90 52.5 172t58.5 164l64 165l71 175q12 25 -5.5 48.5t-38 48t-30.5 49t19 53.5q2 2 19.5 6l36.5 8t35.5 8t20.5 6q8 4 30 25.5t26 29.5l80 145q42 77 80 157.5t71 161.5t51 159q6 20 -3 30.5t-25.5 15.5t-35 9t-32.5 13.5t-20.5 26 t4.5 46.5q8 23 66.5 51.5t150.5 60.5t211.5 63.5t251 60.5t265.5 52.5t257 37.5t224 18l52 2q67 0 115 -9q66 -11 88 -38q9 -10 9 -23q0 -21 -23 -50q-23 -6 -46.5 -1t-49 12t-52 13t-51.5 4q-240 -23 -469 -79l-463 -119q-63 -16 -127.5 -61.5t-124 -107t-112 -135 t-90 -149.5t-60 -148.5t-22.5 -132.5v-86q7 -2 18 -1q30 0 86 13q76 17 174 43l208 52q110 27 207 38q49 6 91 5.5t79 -5.5q73 -11 97 -59q2 -4 2 -14t-2 -14q-133 -20 -273.5 -35.5t-279.5 -40.5t-271 -65.5t-249 -112.5q-96 -166 -171 -344t-134 -363q72 27 168 51.5 t185 44t155.5 32t79.5 14.5q106 16 207.5 29.5t202 21.5t201.5 10q25 1 51 1q77 0 157 -5q16 -4 23 -20.5t9.5 -35t0 -35t-4.5 -24.5q-80 4 -159 4q-193 0 -381 -24q-266 -35 -535 -92q-43 -10 -103.5 -34t-124 -44.5t-123.5 -27.5q-13 -2 -25 -1q-44 0 -74 21 q-10 4 -17.5 11t-11.5 19z" />
<glyph unicode="F" horiz-adv-x="1859" d="M43 29q-8 22 -8 44q0 13 3 27q7 37 22.5 73t34 72t32.5 66q12 25 40 89l59 137l60 136q28 65 40 89q14 31 -3.5 55.5t-40 46t-33.5 44t19 53.5q18 18 46 22l57 8q29 4 55.5 14.5t40.5 38.5l367 736q-12 49 -12 86q0 14 1 26q6 45 30 78t62 61l89 60q258 41 506 69 q172 19 351 19q79 0 160 -4q14 -2 38 -21.5t39 -43.5q14 -21 14 -40q0 -27 -35 -36q-4 0 -16.5 4t-25.5 9l-27 10q-13 5 -15 5q-181 15 -322 16h-17q-146 -1 -259 -25.5t-200 -76t-160.5 -135.5t-141.5 -203.5t-143 -281.5l-17 -30q-16 -30 -34.5 -71t-30.5 -84 q-7 -26 -8 -45q0 -13 4 -24q60 -10 121 -11q34 0 68 4q95 9 191.5 32.5t192.5 53t193.5 54.5t195.5 37q49 6 98 6l99 -6v-58q0 -4 -55 -14l-143 -26q-89 -16 -204.5 -40t-240.5 -55.5t-249 -69.5t-229.5 -84t-183.5 -100.5t-108 -117.5q-82 -164 -153 -335t-130 -343 q-16 -23 -44 -29q-4 -1 -8 -1q-22 0 -32 30z" />
<glyph unicode="G" d="M184 29q-106 76 -139 196q-19 70 -19 149q0 57 10 118q24 145 93.5 308t167.5 323.5t215 309t235.5 268.5t230.5 200.5t196 103.5q22 6 43 6q25 0 49 -8q45 -14 82.5 -46t63.5 -74t32 -84q2 -11 2 -22q0 -29 -12 -56q-16 -36 -64 -54q-10 -4 -25.5 -4t-15.5 4v197 q0 6 -12 12t-28.5 10t-34 6t-25.5 0q-123 -31 -241 -111.5t-220 -185t-187 -220t-143 -216.5q-166 -293 -243.5 -487.5t-85.5 -310.5l-2 -31q0 -91 44 -130q45 -41 119 -42q8 0 17 1q86 5 197.5 51t227 115.5t226.5 152.5t192.5 162t125.5 142q33 48 34 77q0 10 -4 18 q-14 2 -28 2q-29 0 -60 -9q-47 -12 -82 -22l-85 -28l-128 -42l-127 -43l-84 -28q-35 -12 -58.5 6t-31.5 45.5t-1 55.5t36 34t95 29l153 53l186 65q100 35 197.5 65t183.5 50t145 23h11q51 0 73 -18q12 -10 12.5 -27.5t-12.5 -43.5q-14 -16 -47 -50l-74 -75l-89 -89l-88 -87 l-75 -74q-34 -34 -51 -48q-10 -8 -56 -49l-104 -89l-116 -97l-90 -75l-83 -68q-50 -42 -111.5 -86t-129 -84t-135.5 -62q-65 -21 -126 -20h-6q-65 1 -116 38z" />
<glyph unicode="H" horiz-adv-x="1771" d="M86 29q-20 29 -20 87q0 15 2 31q6 82 32.5 185.5t65.5 218.5t79 218l73 184l51 120l52 121l80 185l93 217l93 216l80 185l52 121q21 7 37 7q24 0 33 -19q7 -15 7 -38t-7 -54q-14 -62 -50 -150t-81 -187l-92 -199q-47 -101 -85 -191.5t-59 -161.5q-15 -50 -14 -83 q0 -13 2 -24q25 -3 53 -3q24 0 51 2q59 5 121 15t120 21.5t106 19.5q152 25 261 64t190 95t139.5 128t108.5 165t98 206l108 247q20 43 37.5 36t30 -35.5t16.5 -64.5q2 -18 2 -30.5t-2 -19.5q-2 -6 -14.5 -32t-28 -53.5t-27.5 -52t-14 -30.5q-4 -10 -13 -35l-17 -51l-17 -51 q-8 -25 -11 -33q10 -4 32 -25.5t26 -32.5q2 -8 1 -16q0 -37 -29 -81q-36 -54 -87 -111l-100 -113q-49 -55 -68 -103q-100 -248 -175 -497.5t-108 -517.5q-8 -14 -23 -27q-8 -7 -18 -7q-8 0 -16 5q-1 12 -1 27q0 50 11 125q14 96 37 209.5t50 231.5l52 215q24 97 38 162.5 t12 73.5q-32 6 -76 7q-26 0 -57 -2q-82 -6 -180.5 -22.5t-204 -40t-203.5 -48.5t-183 -49l-141 -41q-43 -94 -70 -208l-56 -229q-28 -116 -63.5 -222.5t-92.5 -188.5q-4 2 -15.5 13.5t-13.5 15.5z" />
<glyph unicode="I" horiz-adv-x="550" d="M29 84q-2 9 -3 24q0 11 2 24q3 32 9 64.5t12 57.5t8 29l566 1468q10 31 21 35q3 1 5 1q8 0 15 -10q8 -13 14 -38t9 -55q2 -18 2 -34q0 -11 -1 -23q-2 -28 -10 -46l-161 -380l-156 -385q-75 -194 -139 -390.5t-109 -396.5q-16 -11 -29 -11h-4q-14 2 -24.5 12.5t-17.5 26 t-9 27.5z" />
<glyph unicode="J" horiz-adv-x="1554" d="M213 29q-27 12 -59.5 49t-62.5 85t-53.5 101t-30.5 100q-3 16 -2 30q0 27 8 47q13 32 59 38q2 -35 8 -89t23.5 -107.5t50 -94.5t88.5 -47q34 -4 65 -4q104 0 189 41q111 53 195.5 151.5t147 228.5t108.5 267.5t80 268.5l60 233q2 12 16 63l27 107l27 108q12 50 17 62 q11 42 11 71q0 19 -5 34q-12 35 -45 44q-15 4 -34 4q-23 0 -50 -6q-51 -11 -110 -31l-121 -42q-62 -23 -118.5 -39t-103.5 -21q-9 -1 -17 0q-36 0 -59 15q-40 26 -40 52q0 8 4 16q17 34 83 65t169.5 58.5t222 52t243.5 46t232.5 37t188.5 25.5l114 14q41 6 116 16l153 18 l137.5 15.5t72.5 6.5q47 4 118.5 6t139.5 2t117 -2t49 -6l29 -84q-68 -4 -183.5 -7.5t-253 -11.5t-284 -22.5t-274.5 -38t-225 -59t-136 -87.5q-20 -57 -50 -178l-71 -276q-41 -156 -94 -332t-121 -345t-147.5 -315.5t-175 -241.5t-205.5 -125q-35 -9 -73 -10q-78 1 -165 44 z" />
<glyph unicode="K" horiz-adv-x="1988" d="M1794 29q-80 127 -159 232.5t-164 203.5l-179 198l-205 214q-158 164 -261 244.5t-172 91.5q-13 2 -24 3q-53 0 -89 -41q-45 -50 -86 -149.5t-89.5 -240t-123.5 -306.5l-26 -58q-13 -32 -30.5 -62.5t-38 -58.5t-47.5 -46q-33 -23 -37 4q-1 6 0 13q0 26 12 72 q15 58 46 141t69 175l80 185l76 170l61 131q26 53 31 69q61 141 133 277l145 270l140 273q68 137 119 282q14 10 28 10q6 0 11 -2q18 -6 30.5 -21t16.5 -35.5t0 -35.5l-33 -64l-51 -101l-59 -117l-59 -117l-49 -100l-32 -66q-2 -4 -8 -18.5t-11 -30.5t-9.5 -33.5t0.5 -30.5 q27 -6 58 -6q54 0 122 18q109 28 235.5 80t263 120.5t259.5 137.5l225 126q102 57 164 88q39 20 52 17q10 -2 10 -12q0 -4 -2 -9q-5 -18 -24.5 -46t-45 -57t-53 -53.5t-50.5 -36.5l-75 -39l-104 -53l-101 -49q-46 -23 -60 -29q-68 -31 -170 -68l-214 -79 q-112 -43 -220.5 -91.5t-185.5 -99.5l-13 -9q-12 -9 -24.5 -22.5t-19.5 -28t1 -26.5q39 -23 116 -89l175 -160l207 -206l211 -227q102 -115 187 -225.5t136.5 -198.5t59.5 -147q1 -8 1 -15q0 -47 -48 -59q-4 2 -14.5 13.5t-14.5 15.5z" />
<glyph unicode="L" horiz-adv-x="1751" d="M72 29q-20 12 -28 33q-6 17 -6 37q0 6 1 12q2 27 12 55.5t23 56.5q31 68 82 144l237 455l235 454l225 459q110 231 208 469q4 10 16.5 28.5t27.5 28.5q12 8 25 8q4 0 9 -1q18 -3 35 -36q11 -22 10 -54q0 -41 -17 -100q-31 -105 -96 -246.5t-159 -307.5l-191 -339 l-195 -341q-96 -168 -169.5 -312.5t-113.5 -253.5q-32 -87 -32 -141q0 -14 2 -24q81 -7 163 -8q97 0 194 11q179 19 359.5 48t360.5 51q117 15 234 15q64 0 129 -5q31 2 54 -24q13 -14 13 -31q0 -14 -10 -29q-6 0 -22.5 1t-34 1t-33.5 -1t-23 -1q-92 -8 -207 -25l-244 -37 l-262 -39q-134 -19 -267.5 -31.5t-258.5 -16.5q-31 -1 -61 -1q-90 0 -170 9q-4 0 -25.5 11.5t-29.5 17.5z" />
<glyph unicode="M" horiz-adv-x="2533" d="M1880 29q-2 2 -2 13t2 15l10 31l18 53l17 54l10 30l152 469l159 473l151 475q73 238 132 476q2 8 2 29.5t-2 27.5q-26 9 -54 9q-51 0 -109 -30q-89 -45 -188 -135t-202 -215l-202 -259l-194 -266l-172 -239q-79 -106 -139.5 -174.5t-94.5 -74.5q-10 -2 -24.5 0t-29 6 t-24 10t-9.5 12v170l20 88l31 135l36 158l34 158l30 135l19 88l25 114q7 33 7 67q0 23 -3 46q-21 7 -43 7q-56 0 -118 -46q-85 -63 -174 -185t-179 -284.5t-175 -335.5l-163 -340l-143 -296q-66 -129 -115 -206q-43 -68 -69 -68q-3 0 -7 1q-28 10 -27 57q0 12 2 27 q9 72 48 183.5t101.5 252l135.5 290.5l153 300l147 278l123 224l79 141q40 -14 73 -14q9 0 18 1q40 5 76 25.5t70 48t75 52.5q81 48 131 48q6 0 11 -1q52 -6 76.5 -55t25.5 -130v-12q0 -76 -12 -163q-13 -94 -35 -193l-41 -182l-33 -143q-13 -59 -11 -74q20 -10 32.5 3 t22.5 25q8 12 37 47l67 80l80 100l80 99l66 81l39 46l47 48l82 83l88 88q43 43 66 64q193 180 320.5 274t203.5 121q33 12 57 11q32 0 51 -19q31 -34 30 -107q0 -77 -27 -192q-27 -111 -67 -239l-86 -264l-87 -263q-8 -23 -30 -94l-51 -168l-61 -205l-61 -204l-51 -167 q-23 -72 -29 -94q0 -2 -6 -31.5t-16 -70.5t-26.5 -88.5t-38 -84t-49.5 -57.5q-17 -13 -37 -13q-12 0 -25 5q-4 2 -14.5 12.5t-12.5 16.5z" />
<glyph unicode="N" horiz-adv-x="2074" d="M29 57q16 80 60 173.5t96 186.5l103 176q50 83 81 142l395 791h197l57 -58q12 -10 19 -61t13.5 -123t10.5 -154.5t10 -160.5t13.5 -141.5t17.5 -92.5q43 -121 101.5 -232.5t123.5 -219.5q6 -3 14 -4q28 0 71 49q54 61 122 174.5t144 265.5l154 316l150 329l136 303 l106 240q45 100 64 135q18 32 35 32h1q18 -1 32 -19.5t20 -47.5q3 -12 2 -23q0 -15 -4 -28q-80 -219 -177.5 -442.5t-204.5 -444.5l-219 -439l-219 -425q-39 -49 -77.5 -76.5t-76.5 -31.5h-8q-34 0 -70 23q-40 26 -79 85q-82 145 -130 274t-81 256t-59.5 259.5t-67.5 283.5 q-16 10 -51 -25.5t-81 -103.5t-99 -160l-109 -193l-109 -204l-100 -190l-78 -156q-34 -68 -51 -96l-31 -57l-38 -65l-32 -54l-13 -23h-84q-2 6 -2 27.5t2 29.5z" />
<glyph unicode="O" horiz-adv-x="1318" d="M242 29q-125 53 -165 146q-31 71 -31 152q0 25 3 50q12 109 61.5 218.5t102.5 195.5l38 59l58 91l70 106l71 105l60 89q27 39 41 57q29 193 119 305.5t203 155.5q73 28 150 28q42 0 85 -8q121 -24 210 -108t129 -223q19 -65 19 -142q0 -86 -24 -185 q-45 -187 -195.5 -419.5t-441.5 -502.5q-51 -47 -120 -91.5t-143.5 -72t-152.5 -32.5q-11 -1 -22 -1q-65 1 -125 27zM156 225q25 -113 94 -140q29 -12 63 -12q46 0 102 22q95 38 207.5 128t224 211t215 263.5t179.5 282.5t116 268q30 96 30 173q0 25 -4 48q-13 93 -90 141 q-55 34 -151 34q-38 0 -81 -6l-151 -146q-95 -95 -203.5 -218t-216 -264.5t-189.5 -281.5t-125 -270q-28 -85 -28 -159q0 -39 8 -74z" />
<glyph unicode="P" d="M57 57q-9 18 -9 46q0 16 3 35q8 52 28.5 118t50.5 138l59 140l56 119q26 53 38 82l29 65l50 108l53 113l38 81l49 101l75 155l88 181l88 182l74 156l50 101v56q-17 3 -35 3l-51 -7q-43 -12 -82 -35t-76 -51l-68 -52q-33 8 -38 33t5.5 52.5t29 51t32.5 33.5 q262 162 558 216q162 30 326 30q137 0 275 -20q160 -43 241 -104.5t101 -135.5q8 -29 8 -60q0 -46 -18 -96q-31 -82 -95.5 -163.5t-153.5 -160.5t-183 -147.5t-187.5 -122t-165.5 -84.5q-84 -35 -183 -52l-198 -34q-99 -16 -192.5 -39.5t-161.5 -70.5q-72 -113 -130 -234.5 t-108.5 -247.5t-95.5 -254l-90 -253l-26 -29q-10 4 -32 25.5t-26 31.5zM651 1159q44 -7 90 -7q66 0 135 14q118 24 233.5 69t222.5 101l194 104q211 119 314.5 229.5t126.5 206.5q8 33 8 64q0 58 -29 107q-45 75 -130 121t-200 58q-34 4 -67 4q-81 0 -164 -21 q-116 -30 -221 -107t-175 -210l-59 -117l-73 -144l-75 -148l-65 -133l-47 -97l-19 -39v-55z" />
<glyph unicode="Q" horiz-adv-x="1482" d="M1120 -410q-31 41 -54 109l-47 136q-24 69 -52.5 126t-71.5 80q-16 8 -54 -5l-91 -33q-53 -19 -118 -35q-54 -13 -109 -13q-11 0 -22 1q-67 3 -132.5 35t-122.5 107q-76 100 -78 230v11q0 124 44 258q46 140 128 284.5t173 273.5t178 237l147 175q39 45 86 105.5 t100 116.5t112.5 103t125.5 70q6 2 12 2q13 0 25 -9q17 -13 33 -35t26 -43.5t16 -27.5q113 -135 159 -297q38 -132 38 -268q0 -30 -2 -60q-10 -167 -68.5 -333t-152.5 -311l-26 -35l-46 -62l-56 -73l-57 -74l-46 -62l-25 -34q-43 -59 -49 -120q-1 -16 -1 -32q0 -44 11 -87 q14 -58 41.5 -115.5t51 -113t36.5 -108.5q5 -23 5 -45q0 -29 -9 -57q-9 -4 -17 -5q-10 0 -17 8q-14 13 -24 25zM387 70q94 -64 170 -64q10 0 18 1q82 9 144.5 66.5t105.5 150.5t70 191.5t40 188.5t15 144q4 2 20.5 3t34 -1t32 -9.5t14.5 -19.5v-283q86 61 157.5 154.5 t124.5 200t87 219t40 217.5q4 67 4 125q0 125 -18 206q-27 118 -81 158q-33 25 -76 25q-26 0 -56 -9q-78 -26 -166 -100.5t-182 -188.5t-182.5 -249t-166 -281.5t-134 -286t-84.5 -261.5q-20 -90 -20 -161q0 -26 3 -50q4 -6 15 -19l26 -26l27 -26q12 -11 18 -15z" />
<glyph unicode="R" horiz-adv-x="1718" d="M43 29q-5 15 -5 37q0 37 15 94q25 90 74 208.5t117 258.5l139 280l141 275l122 240q52 108 82 181q23 57 23 81q0 7 -1 12q-11 4 -24 4q-20 0 -41 -11l-68 -34q-34 -16 -65 -21h-6q-28 0 -50 33q-12 18 -8 34.5t15 32t24.5 28t23.5 18.5q305 229 574.5 359t479.5 177 q134 30 239 30q60 0 111 -9q140 -27 187 -112q22 -39 22 -88q0 -58 -30 -131q-55 -134 -235.5 -300t-498 -356.5t-792.5 -388.5q-51 -27 -51 -64q0 -6 1 -12q9 -45 64.5 -101.5t146.5 -120.5l194 -133l205 -137q103 -70 183.5 -134t126.5 -124q36 -47 36 -86q0 -10 -3 -20 q-4 -2 -32 19l-70 54l-90 73l-92 75l-74 60q-31 26 -37 30l-302 187q-151 91 -292 208q-9 3 -18 3q-26 0 -52 -26q-36 -36 -71 -99.5t-69 -144.5l-66 -163l-62 -154q-29 -73 -55.5 -117t-47.5 -50q-2 -1 -5 -1q-18 0 -33 46zM664 1130q20 -7 44 -6q46 0 112 22 q101 34 228.5 101.5t266.5 160.5t269 195.5t238.5 204t175 184.5t78.5 140q2 8 1 16q0 44 -56 56q-86 9 -166 9q-179 0 -332 -44q-222 -63 -391 -201.5t-287 -345.5t-181 -463v-29z" />
<glyph unicode="S" horiz-adv-x="1536" d="M227 29q-8 2 -32.5 14t-53 28.5t-57.5 37t-45 41.5q-15 19 -16 37q0 21 34 38q29 -25 77 -60.5t93 -51.5q75 -3 148 -4q61 0 120 3q130 5 253.5 31.5t240.5 79.5t225 144q123 100 161 187q23 54 24 102q0 30 -9 59q-24 74 -97.5 137t-174 118.5t-215.5 105.5l-220 96 q-105 46 -190 91.5t-124 92.5q-2 7 -2 14q0 38 44 85q52 56 144 117.5t213 123t246 112t244.5 85t208.5 42.5q25 2 47 3q57 0 92 -16q37 -16 36 -56q0 -13 -4 -29q-18 -2 -90.5 -21.5t-176 -50t-225.5 -70.5t-238.5 -84t-216 -89t-157.5 -87q-64 -46 -64 -82q0 -32 67 -55 q293 -88 483 -185t296.5 -197.5t137.5 -201.5q17 -55 17 -109q0 -44 -12 -87q-26 -94 -99.5 -179t-177 -153.5t-229.5 -118t-254 -71.5q-101 -18 -198 -18q-27 0 -52 2q-124 6 -222 49z" />
<glyph unicode="T" horiz-adv-x="1394" d="M438 29q-8 31 -8 66.5t8 75.5q16 81 47 164t66 159l57 127q12 29 39 86l60 130l69 152l71 153l60 130l39 84q-15 3 -34 3q-36 0 -88 -10q-79 -15 -174 -39l-195 -49q-100 -26 -187 -37q-50 -7 -91 -7q-30 0 -56 4q-61 8 -78 51q12 27 87 59.5t193.5 68.5t272.5 73.5 t324 74.5t348 71l346 63q168 30 317.5 52.5t262 36t179.5 16.5q15 1 27 1q40 0 43 -8q5 -15 6 -32q0 -8 -2 -17q-4 -27 -30 -35q-123 -18 -267 -43l-288 -51l-287 -54l-260 -51q-78 -16 -150.5 -91t-140.5 -186.5t-130.5 -247.5t-117.5 -275l-103 -268l-87 -229 q-39 -99 -69 -155q-25 -47 -43 -47q-3 0 -7 2q-6 4 -16.5 14.5t-12.5 14.5z" />
<glyph unicode="U" d="M227 29q-90 72 -123 187q-26 90 -25 195q0 29 2 60q9 139 52 293t102.5 303.5t125 284.5t123 237.5t96.5 161.5q38 57 42 57q14 0 27 -26q8 -16 9 -37t-2 -41.5t-5 -36.5q0 -2 -5 -10t-9 -18.5t-9 -18.5t-5 -10q-195 -426 -292.5 -715t-119.5 -462q-8 -59 -8 -106 q0 -90 28 -136q36 -57 105 -57q13 0 28 2q89 13 212.5 97t262 217.5t282 302.5t271.5 354t230 372.5t158 357.5q4 4 14 15.5t14 11.5q55 -37 55.5 -119t-44.5 -192.5t-127 -242.5t-187.5 -272.5t-227.5 -280t-249 -264t-250 -227t-229.5 -168t-190.5 -87.5q-30 -8 -55 -7 q-46 0 -76 25z" />
<glyph unicode="V" horiz-adv-x="1400" d="M199 84q-45 70 -77 198t-46 283q-11 121 -11 249q0 36 1 73q4 166 28.5 312.5t70.5 257t118 153.5q10 -7 10 -49q0 -18 -2 -42q-6 -81 -24 -204l-39 -274q-22 -151 -37 -297t-19 -276q-1 -22 -1 -42q0 -102 17 -171q20 -83 70 -104q12 -5 26 -6q45 0 113 54 q102 80 203 171l197 186l187 190l175 186q207 219 394.5 442t367.5 463q25 33 48 35h5q20 0 36 -14q17 -16 25 -47q4 -16 4 -32q0 -14 -3 -28l-57 -60l-85 -96l-99 -111l-100 -112l-85 -95l-56 -63l-115 -138l-163 -197l-194 -228q-103 -119 -208.5 -228.5t-208 -199.5 t-192.5 -142t-161 -56q-4 0 -8 -1q-65 0 -105 60z" />
<glyph unicode="W" horiz-adv-x="1753" d="M115 29q-33 47 -49.5 156.5t-20.5 254.5q-1 53 -1 109q0 98 4 206q7 169 23.5 337t39 322.5t50 271t59.5 181.5q27 56 54 55q4 0 9 -1q6 -2 16 -12.5t12 -16.5q0 -6 1 -14q0 -29 -6 -89q-7 -77 -20 -182l-30 -234l-34 -258l-33 -254q-15 -124 -23 -223t-8 -164.5 t12 -78.5l29 -28q37 16 76.5 89.5t81.5 180t85 233.5l87 252q44 125 87 233.5t85 179.5t81 89q10 5 19 5q29 0 57 -43q37 -56 70 -199.5t61 -397.5l13 -78q11 -66 31 -151.5t44.5 -174.5t52 -147.5t56.5 -70.5q4 -2 8 -2l49 59l35 86l61 153l74 185l74 185l61 153l35 86 l41 103q31 79 77 181.5t102.5 214t115.5 200.5t119 140q45 39 85 39q13 0 25 -4q4 0 15.5 -11t11.5 -17q-156 -199 -273.5 -429.5t-214 -472t-182.5 -487.5t-176 -475q-39 -98 -79 -113q-10 -4 -20 -3q-30 0 -61 32q-41 43 -79.5 132t-73.5 196.5t-64.5 224.5t-52 215 t-36 167t-15.5 81q-4 18 -9 47l-10 57q-6 33 -10 66h-26q-2 0 -29 -51l-64 -124l-73 -150l-62 -128q-8 -18 -25 -76l-42 -136l-55 -171q-30 -92 -62.5 -180t-67 -165t-69.5 -124t-68 -57q-6 -2 -12 -2q-26 0 -49 37z" />
<glyph unicode="X" horiz-adv-x="1341" d="M1159 84q-16 18 -52 75l-82 128l-96 149q-50 78 -95.5 140.5t-80 100.5t-46.5 30q-78 -74 -148 -149t-134 -152l-127 -159l-128 -163q-37 -45 -61.5 -50t-36.5 13q-10 15 -10 40v13q3 35 24 70q31 51 87 115l121 134l129 144q65 74 114 145.5t74 136.5q16 41 17 77 q0 20 -5 39q-10 18 -34 67l-50 102l-52 102l-34 66q-4 8 -21 37l-36 63l-37 62q-17 29 -19 37q-4 6 -4 27.5t4 29.5q9 6 19 7q19 0 42 -23q35 -35 74 -99.5t80 -142.5l79 -144q38 -67 72 -106q26 -31 46 -31q6 0 12 3q4 6 16.5 21.5t25.5 33.5l25 35q12 16 17 22 q12 14 29.5 49t42 76t54.5 83t63.5 75t71.5 49q23 10 48 10q15 0 31 -4q33 -8 33 -34.5t-22.5 -65.5t-61.5 -88l-84 -102l-90 -107q-45 -53 -80 -100t-54 -87q-13 -28 -12 -48q0 -9 2 -17q16 -39 60 -107l97 -152l111 -171q57 -88 102.5 -166t68.5 -137q16 -41 17 -67 q0 -11 -3 -19q-4 -2 -14.5 -2t-14.5 2t-15 13l-25 25l-25 27z" />
<glyph unicode="Y" horiz-adv-x="1003" d="M139 -319q-18 43 -17 88q0 33 9 68q23 83 74 174t117.5 189.5t127 202t101.5 212.5q39 104 39 212v11q-10 23 -44 76l-82 126l-104 154l-106 161l-93 149q-42 71 -63 119q-15 36 -15 55q0 7 2 12q7 18 54 -4q37 -33 88.5 -105t108.5 -161l116 -182l108 -168 q50 -75 88 -118q29 -33 46 -33q5 0 8 3q20 39 53 110l71 162l85 189l90 193q45 93 88.5 171t79 124t61.5 53q3 1 6 1q21 0 32 -43q2 -8 1 -17q0 -38 -25 -113q-32 -93 -91 -225t-140 -293l-169 -334l-178 -347l-167 -333q-77 -159 -135.5 -291t-82.5 -222 q-8 -25 -24.5 -48.5t-37.5 -32.5q-10 -4 -19 -4q-11 0 -23 5q-22 11 -38 54z" />
<glyph unicode="Z" horiz-adv-x="2105" d="M72 29q-24 17 -24 47.5t24 74.5q47 87 152.5 208.5t255.5 268.5l312 301l315 308q155 154 271.5 287t180.5 236q46 75 45 125q0 20 -7 36q-4 0 -57 -9l-136 -24l-184 -30q-101 -16 -201.5 -27.5t-190.5 -15.5q-30 -1 -56 -2q-53 0 -91 6q-58 8 -74 32q-4 6 -4 14 q0 22 34 56q16 -2 34 -2q47 0 112 11q91 15 200 41l225 52q117 27 222.5 44.5t189.5 17.5t128 -30q40 -27 40 -84v-11q-4 -66 -78 -180q-129 -205 -283.5 -387.5t-322.5 -354.5l-344 -338l-350 -333l-27 -28q-25 -26 -53.5 -61.5t-48.5 -73.5q-15 -27 -15 -48q0 -8 2 -15 q6 -1 17 -1q33 0 109 15q99 19 242 54l313 77q171 42 340 78.5t324 62.5q149 25 255 25h9q110 -1 160 -33q28 -18 28 -50q0 -25 -17 -58q-61 -4 -177 -20.5t-261 -39.5l-313 -52l-333 -58l-322 -53q-155 -25 -276.5 -42t-200.5 -22q-26 -2 -46 -2q-37 0 -47 7z" />
<glyph unicode="[" horiz-adv-x="1185" d="M115 29q-4 2 -15.5 13t-13.5 15q-4 41 3 140.5t24.5 225.5t45 263t63.5 256t80 202t95 99q6 2 35 6l62.5 8.5l62.5 8.5t37 6q25 6 85 25l128 42l128 43q60 20 83 31q18 4 48 -2t49.5 -18.5t21.5 -29.5t-35 -36q-125 -63 -217 -93t-159 -44t-113 -18.5t-79.5 -15.5 t-59 -36.5t-53.5 -82t-60.5 -149.5t-77.5 -239q-37 -123 -51.5 -251t-4.5 -257h848q25 -37 -3 -59.5t-71 -33.5t-82.5 -15t-41.5 -4q-96 -14 -175 -22.5t-156 -11.5t-160 -1t-187 6q-10 2 -42 13.5t-42 15.5z" />
<glyph unicode="\" horiz-adv-x="819" d="M678 29q-92 123 -177 248.5t-161 259.5q-23 37 -51 89l-61 108l-62 112l-54 99l-39 72l-16 27v86q29 14 55.5 0t48 -40.5t39.5 -55.5l27 -45l111 -199l85 -155l73 -130l75 -126l94 -143q52 -78 126 -179q-29 -41 -55.5 -55t-57.5 27z" />
<glyph unicode="]" horiz-adv-x="1116" d="M213 57q-16 23 26 46.5t113.5 45t159.5 40t165 32.5l130 24q53 9 55 9q-4 131 2 262t15.5 262t14.5 261t-3 259q-37 2 -106.5 -6t-155.5 -17t-178.5 -16.5t-174 -5.5t-145 18.5t-88.5 55.5q-14 20 52.5 46t174 46.5t237.5 31.5t244.5 4t194.5 -36.5t86 -91.5 q14 -143 8 -283.5t-16 -280.5t-13 -280.5t21 -283.5q0 -8 3 -25.5t1 -36t-8 -34t-24 -19.5q-59 8 -134 -3t-153 -29l-156 -34q-78 -16 -146.5 -22t-120.5 6t-81 55z" />
<glyph unicode="^" horiz-adv-x="649" d="M532 934q-4 4 -12 39l-20 83l-26 100q-13 52 -28.5 95t-30 66.5t-24.5 11.5q-6 -10 -21 -48l-36 -85q-20 -47 -47 -97t-55.5 -88t-60.5 -53.5t-62 5.5q-12 8 -25.5 22t-3.5 33l40 79l59 118l61 119q29 56 39 79q55 119 102 150.5t84 5t64.5 -97t45 -157.5t23.5 -175 t1 -149.5t-21.5 -83t-45.5 27.5z" />
<glyph unicode="_" horiz-adv-x="1568" d="M72 29q-4 2 -15.5 13t-13.5 15q2 8 64.5 20.5t164 28t230.5 30t264 26.5t265 19t234.5 6t171 -11t74.5 -35q4 -6 4.5 -27.5t-4.5 -29.5q-47 -4 -144 -10l-219 -15l-258 -17l-258 -17q-122 -8 -219.5 -15.5t-144.5 -9.5q-61 -4 -102 -2t-94 31z" />
<glyph unicode="`" horiz-adv-x="423" d="M297 1069q-35 59 -86 108.5l-97 98.5t-73 105.5t-12 129.5q41 2 86 -25.5t90 -71.5t84 -100.5t68.5 -109.5t45 -98t11.5 -68.5t-32 -18.5t-85 50z" />
<glyph unicode="a" horiz-adv-x="1753" d="M141 57q-59 49 -65 148q-1 16 -1 31q0 86 27 189q33 122 100.5 256t154.5 255t189.5 217t205.5 143q79 36 154 36q23 0 46 -3q98 -14 178 -115q49 -61 60 -125q5 -29 5 -59q0 -35 -7 -72q-12 -66 -41 -134t-54.5 -139t-40.5 -143q-9 -44 -10 -88q0 -29 5 -59 q10 -72 54 -98q37 -22 89 -22h20q66 5 146 34t161.5 71t159.5 89l139 87q60 40 97 67l37 26q26 5 44 6q29 0 35 -15q2 -5 1 -11q0 -22 -28 -58q-36 -45 -108.5 -103t-166 -114.5t-198 -100.5t-205.5 -62q-49 -8 -95 -8q-49 0 -93 10q-87 18 -147 90q-25 29 -40 59.5 t-44 52.5l-89 -92q-52 -55 -113.5 -111.5t-131 -106.5t-142.5 -76q-55 -19 -110 -19l-35 2q-73 8 -143 65zM170 141q16 -59 66 -69q13 -3 27 -3q40 0 90 21q69 29 150 92.5t160.5 152.5t151.5 197.5t123 226.5t75 241q13 70 13 138q0 53 -8 105q-31 25 -69 25q-18 0 -39 -5 q-62 -17 -135 -70.5t-150.5 -138.5t-149.5 -183.5t-134 -205t-105 -206t-62 -181.5q-10 -47 -10 -84q0 -30 6 -53z" />
<glyph unicode="b" horiz-adv-x="1370" d="M43 84q-2 4 -2 14.5t2 14.5q33 66 73 171l85 231l91 263q46 137 93 263t92 230.5t84 169t73 76.5q5 2 10 1q27 0 48 -50q15 -39 16 -80q0 -19 -3 -38q-10 -61 -39 -125t-68 -129.5t-71.5 -131t-51.5 -129.5q-12 -41 -12 -83q0 -23 4 -45q70 18 126 67t109.5 104.5 t110.5 102.5t133 63q47 9 88 9q61 0 109 -20q80 -34 120 -104q37 -66 37 -154q0 -7 -1 -14q-3 -97 -51 -201.5t-143 -205t-240.5 -176.5t-343.5 -119q-154 -33 -340 -33q-53 0 -109 3q-4 6 -15.5 27.5t-13.5 27.5zM268 225q-4 -10 -4 -41.5t4 -42.5q50 -6 101 -6q62 0 125 9 q115 17 219 62.5t193 115t152.5 158.5t95.5 197q23 78 23 161q0 32 -3 65q-2 6 -13.5 16.5t-15.5 12.5q-26 4 -53 4q-58 0 -120 -18q-91 -27 -180.5 -81.5t-173 -129t-153.5 -157.5t-121 -167t-76 -158z" />
<glyph unicode="c" horiz-adv-x="1398" d="M256 29q-127 43 -169 132q-29 61 -29 133q0 34 7 70q19 114 86.5 239.5t158.5 241.5t194.5 208t193.5 140q74 40 132 40q12 0 23 -2q65 -10 81 -101q2 -12 2 -23q0 -31 -11 -65q-15 -47 -44 -91t-65 -79.5t-69.5 -54t-60.5 -13.5t-35 44q31 51 68 100l74 96q-9 17 -31 18 q-12 0 -27 -5q-43 -14 -101.5 -59.5t-126 -113t-129 -148.5t-110.5 -167t-71 -167q-15 -54 -15 -102q0 -24 3 -46q11 -68 71 -113q17 -1 35 -1q69 0 153 19q106 24 219 60.5t225 81.5l203 82q91 37 154 57q45 15 69 15q9 0 15 -2q26 -13 26 -33q0 -8 -4 -18 q-15 -32 -68.5 -70.5t-135.5 -80.5t-179.5 -82t-201.5 -73t-200.5 -53t-177.5 -26q-19 -1 -37 -1q-56 1 -95 13z" />
<glyph unicode="d" horiz-adv-x="1359" d="M1073 57q-92 66 -135 162t-61 205h-29q-203 -166 -352.5 -248t-251.5 -100q-35 -6 -66 -7q-57 0 -93 23q-56 35 -73 102q-7 29 -7 62q0 44 12 94q22 90 77.5 181.5t143.5 173t201.5 136t251.5 67.5q32 3 64 3q110 0 234 -34l29 26l338 678q66 -10 79 -58q7 -24 6.5 -51.5 t-6.5 -57.5q-13 -60 -40 -118l-39 -82q-6 -14 -28 -57l-51 -101l-63 -124l-62 -123l-51 -101q-22 -44 -28 -59q-23 -45 -31 -94t-8 -100.5t4 -101.5l9 -99q10 -45 38.5 -73.5t62.5 -52.5l67 -45q34 -22 57 -54q-10 -33 -40 -34h-5q-28 0 -58 11q-33 12 -61.5 28.5 t-34.5 22.5zM141 170q7 -30 42 -30h6q40 3 99.5 32t132.5 77t145.5 106.5t140 120t115.5 117.5t73 101q16 28 15 48q0 11 -5 20q-76 42 -167 42h-5q-94 -1 -188 -34t-180 -94.5t-145.5 -141t-83.5 -174.5q-11 -42 -10 -85q-1 -52 15 -105z" />
<glyph unicode="e" horiz-adv-x="1087" d="M213 29q-76 25 -115 76t-51 113q-7 36 -7 74q0 28 4 57q9 69 28 130l170 186q94 103 199.5 203.5t219 185.5t230.5 132q26 11 46 10q26 0 39 -18q24 -33 23.5 -86.5t-16.5 -109.5t-37 -79q-23 -27 -78 -64l-128 -85l-154 -102q-82 -54 -158 -109.5t-137.5 -111.5 t-92.5 -108q-26 -43 -26 -82q0 -9 1 -17q7 -46 69 -83q30 -4 63 -3q64 0 144 13q121 19 247.5 50.5t243.5 65.5t193 52l28 -26q-37 -47 -105.5 -91t-156.5 -79t-186.5 -61.5t-191.5 -39t-174 -12t-134 18.5zM750 903q-1 1 -3 1q-5 0 -20 -7q-20 -10 -49 -27.5t-61 -40.5 l-58 -42q-27 -19 -43 -32q-13 -11 -13 -14q0 -2 3 -2q9 0 44 20q40 24 85 54l81 57q36 27 34 33z" />
<glyph unicode="f" horiz-adv-x="1173" d="M100 57q-4 6 -4 27.5t4 28.5l209 481h-237q-6 0 -12.5 10t-10.5 23.5t-6 27.5q-1 7 -1 13t1 10q8 2 28 10l43 18l43 17q19 8 27 12q8 2 42 15l72 25l72 26q34 12 40 18q29 20 78 107l117 207l148 262q81 141 171 272t187 237.5t199 156.5q72 36 144 36l58 -6 q101 -20 198 -141q18 -23 27 -53q5 -17 4 -34q0 -13 -2 -26q-23 -12 -45.5 -5t-42 24.5t-33.5 36t-21 28.5q-48 8 -93 8q-60 0 -113 -14q-94 -25 -174 -80t-146.5 -133t-124 -166t-105.5 -179l-91 -171l-40 -78l-46 -92l-39 -78l-17 -35v-26q0 -6 30 -11.5t75 -10.5l99 -11 q54 -6 104.5 -17.5t89 -27t55.5 -37.5l-29 -27q-115 7 -200 7q-21 0 -40 -1q-97 -2 -169 -32.5t-127.5 -97t-112.5 -187.5l-53 -109l-65 -129l-55 -109q-24 -46 -26 -48l-28 -29q-4 2 -12.5 9t-17.5 16.5t-16.5 18.5t-9.5 13z" />
<glyph unicode="g" horiz-adv-x="903" d="M-340 -707q-78 29 -127 83.5t-74.5 119t-31.5 129.5q-2 26 -3 50q0 36 6 66q9 50 29.5 76.5t48.5 12.5v-16q0 -205 52 -313q53 -112 139 -140q34 -11 73 -11q57 0 123 25q110 43 220 131t210.5 212t171 257.5t100.5 265.5q14 63 14 119q0 63 -17 119q-180 -129 -296 -181 q-104 -47 -164 -47q-7 0 -13 1q-61 6 -77 60q-7 24 -7 54q0 37 11 83q19 82 67.5 181t112 194.5t138 177t148.5 130t138 52.5h9q59 0 101 -56q57 -78 72 -208q6 -51 5 -107q0 -87 -14 -184q-23 -160 -78 -335t-138 -341t-188.5 -309.5t-227 -238.5t-256.5 -130 q-53 -14 -108 -14q-84 0 -169 32zM170 537q-4 -8 -5 -29t-1 -43.5t1 -42t5 -27.5q21 -6 43 -5q40 0 81 20q62 31 121.5 87t109.5 128.5t85 144.5t53 131q11 39 11 65q0 14 -3 24q-7 23 -32 23q-8 0 -16 -2q-39 -9 -115 -79l-79 -74q-50 -47 -102.5 -102.5t-96.5 -113.5 t-60 -105z" />
<glyph unicode="h" horiz-adv-x="1384" d="M29 57q-2 4 -2 13.5t2 13.5q8 20 31 69l52 102l52 102l35 67q4 8 25 44l52 87l68 113l73 122l67 112l53 87q39 61 88 148l104 181l115 193l117 189q57 90 109 163.5t93 117.5t70 54q5 2 10 1q20 0 29 -31q2 -10 2 -42t-2 -42l-57 -89l-85 -137l-84 -137q-40 -65 -57 -90 l-73 -112l-112 -175l-128 -204l-118 -199q-52 -92 -83 -157q-24 -52 -24 -75q0 -6 2 -9q59 18 127.5 63t139.5 97l139 102q69 49 130 78q59 -8 106.5 -46t63.5 -96q-2 -16 -2 -49t-1 -75t-1 -88t1 -88t1 -74.5t2 -49.5q2 -27 24.5 -68.5t49.5 -81.5l48 -71q20 -28 20 -32 q0 -9 -50 -9q-24 0 -46 8q-44 16 -77.5 52t-55 83.5t-25.5 90.5q-4 25 -8.5 84l-9.5 126.5t-8 128t-3 85.5l-57 28q-14 6 -51.5 -13.5t-85.5 -55t-100 -79.5l-97 -84l-78 -70q-33 -30 -41 -38l-73 -72l-110 -111l-111 -111l-73 -72q-29 -7 -57 -8q-4 0 -7 1q-32 0 -48 35z " />
<glyph unicode="i" horiz-adv-x="634" d="M29 29q100 328 184 521t139 272q41 58 64 59q8 0 13 -8q10 -13 10 -44q0 -36 -13 -96q-25 -113 -100.5 -301t-212.5 -432q-13 -5 -28 -5q-9 0 -19 2q-27 5 -37 32zM467 1231q-2 6 -3 18.5t-1 25.5t1 25.5t3 16.5q32 10 56 10q18 0 31 -6q30 -14 37 -44q3 -13 3 -27 q0 -17 -5 -36q-9 -33 -29 -48q-12 -9 -25 -9q-9 0 -20 4q-25 11 -48 70z" />
<glyph unicode="j" horiz-adv-x="466" d="M-608 -874q-61 27 -126 73.5t-101 105.5q-30 49 -29 101q0 10 1 21q7 63 85 122q27 -4 31 -49t12 -100t33.5 -104.5t93.5 -57.5q27 -4 52 -4q84 0 155 41q92 53 166.5 152.5t135 232.5t109.5 276.5t90 284.5l78 257q37 116 72 193t74 93q32 -10 31 -91q0 -86 -29 -221 q-29 -130 -81 -292t-122 -323t-156 -309.5t-180 -251.5t-195 -148q-51 -24 -102 -24zM324 1188q-24 31 -25 53q0 10 5 19q14 24 38 23h6q29 -3 52 -39q15 -22 15 -61q0 -23 -5 -53q-7 -4 -14 -4q-6 0 -13 3q-14 7 -27.5 20.5t-22.5 26.5z" />
<glyph unicode="k" horiz-adv-x="1822" d="M1061 84q-162 219 -259 363.5t-159 214.5q-60 68 -100 67h-2q-41 -2 -87 -75.5t-114 -217t-184 -352.5q-14 -25 -30.5 -32t-33 0t-30 23.5t-19.5 37.5q-2 6 -2 14q0 27 19 82q26 72 75 173t116 225l139 254l148 257l139 237l114 191l71 121q10 7 20 7l17 -5 q18 -10 31.5 -30.5t18.5 -45t-3 -39.5l-225 -395v-57q18 -3 38 -4q41 0 94 14q79 20 169 61t185.5 94.5t181.5 107.5l155 102q70 47 109 77q33 16 59.5 9t39.5 -26q12 -17 12 -40q0 -33 -25 -57q-72 -72 -168 -123t-203.5 -92t-219.5 -78t-213 -79t-186 -94t-141 -126 q31 -29 85 -87l118 -132l128 -155q65 -81 117 -156.5t85 -137t33 -96.5v-55q-14 -8 -28 -8q-4 0 -8 1q-17 3 -31.5 12t-26 23.5t-19.5 26.5z" />
<glyph unicode="l" horiz-adv-x="819" d="M141 29q-72 51 -92 131q-12 47 -12 98q0 36 6 75q14 93 53 193.5t85 193.5t90 171t69 127q4 10 19 40l36 70l43 86l43 86l36 72l20 41q6 12 19 49t30.5 79t39 82t45.5 57q13 10 26 10l21 -6q24 -13 46 -74q-10 -25 -48 -100l-91 -180l-116 -232l-123 -257l-114 -255 q-53 -125 -85.5 -224.5t-40.5 -166.5q-1 -13 -1 -24q0 -47 25 -58q28 -15 71 -15h19q55 4 116 15l119 20q49 9 85 9q7 0 14 -1q10 -23 -14.5 -43t-69.5 -36.5t-103.5 -27.5t-111.5 -16q-35 -3 -67 -2h-29q-44 3 -58 13z" />
<glyph unicode="m" horiz-adv-x="2062" d="M1554 57q-25 33 -28 74l-2 30q0 26 5 52q7 41 23 81l31 73l25 53l39 80l47 94l47 94l40 80q17 35 27 51v58q-6 3 -14 2q-20 0 -55 -18q-49 -26 -117 -74t-149 -114l-166 -139l-165 -146l-147 -134l-112 -108l-64 -62q-41 -12 -59.5 8.5t-21.5 64.5q-1 11 0 23q0 36 6 82 q9 61 25.5 127t35.5 130l35 118l27 87q11 34 10 38q-17 6 -36 6q-33 0 -69 -19q-55 -30 -112.5 -89.5t-115.5 -137.5l-116 -156l-111 -151q-53 -72 -101 -116t-88 -52q-6 -1 -12 -1q-33 0 -59 38q-2 4 -2 14.5t2 14.5l38 80l59 119l70 141l72 140l60 120q27 53 41 78 q12 25 36 63l46 76l39 62q16 26 19 26h57q8 -27 8 -52q0 -30 -12 -57q-23 -49 -53.5 -96t-53.5 -94q-12 -25 -11 -51q0 -23 9 -47l266.5 228t164.5 122q54 33 79 33h5q26 -4 26 -48q0 -33 -12 -86q-14 -59 -28.5 -132.5t-24.5 -154.5q-4 -35 -4 -69q0 -45 8 -90h28 q14 10 51 39l77 59l76 60q36 29 50 39l82 62l108 81l97 74q43 33 53 39q10 8 45 30l75 50l78 53q38 25 56 34q36 23 66 23h5q32 -2 52 -23.5t27 -58.5q2 -11 1 -23q0 -28 -10 -59l-118 -219q-59 -106 -108.5 -216t-80.5 -224.5t-33 -243.5q-7 -4 -13 -4t-13 3 q-14 7 -26.5 20.5t-21.5 25.5z" />
<glyph unicode="n" horiz-adv-x="1439" d="M975 29q-2 23 -2 45q0 59 15 117q22 81 57.5 161t77.5 158t73 153.5t43 150.5q4 26 4 52q0 48 -14 95q-24 8 -52 7q-43 0 -93 -20q-81 -33 -172 -98.5t-186 -154.5l-186 -180l-174 -173q-83 -82 -149.5 -136t-113.5 -69q-11 -3 -19 -3q-30 0 -41 36q0 2 17 38l48 94 l67 133l78 153l81 153l74 136l56 98t32 43q53 -36 53 -86q0 -36 -13 -75q-15 -44 -34 -90q-11 -28 -11 -54q0 -18 5 -35l111 77l156 101q85 53 175 101.5t171 78t143 32.5h9q56 0 85 -38q22 -30 22 -87q0 -21 -3 -45q-11 -91 -79 -249q-6 -12 -21 -46l-36 -81l-43 -98 l-43 -98l-36 -82q-15 -35 -20 -45q-4 -10 -7 -37t-9 -57.5t-15 -60.5t-24 -44q-6 -6 -12 -6q-2 0 -5 1q-9 3 -17.5 9t-14.5 13.5t-8 11.5z" />
<glyph unicode="o" horiz-adv-x="1073" d="M199 29q-78 31 -112 88q-33 56 -33 125q0 73 31 156q30 81 78 162t109.5 156t124 134t122 96t104.5 43q49 6 91 6q92 0 152 -27q88 -40 122 -118q23 -54 23 -119q0 -30 -4 -62q-15 -103 -66.5 -209t-132.5 -203t-180.5 -162.5t-209.5 -87.5q-37 -7 -74 -7q-73 0 -145 29z M170 170q16 -66 62 -82q22 -8 49 -8q28 0 60 9q62 17 137 65.5t146.5 112t136 139t109.5 149.5t63 139q8 29 8 55q0 32 -12 58q-22 47 -87 67q-34 11 -86 11q-46 0 -105 -8q-35 -33 -89 -79t-113.5 -102.5t-117 -120t-99.5 -130t-61 -137.5q-10 -36 -10 -72q0 -33 9 -66z " />
<glyph unicode="p" horiz-adv-x="1355" d="M-225 -874q-9 52 -9 103q0 42 6 85q13 94 41.5 189.5t69.5 190.5l81 190q40 95 73 187.5t49 184.5q0 4 22 29l47 54l47 54q22 25 23 31q41 88 82 161.5t65 143.5q20 59 20 119q0 10 -1 20q-4 70 -51 150q-4 4 -4 14t4 15q74 92 169 154.5t201.5 99t221.5 50.5q71 8 141 8 q43 0 86 -3q96 -80 122 -182q13 -53 13 -109q0 -51 -11 -102q-24 -109 -87 -218.5t-146 -205t-174.5 -170t-168.5 -113.5q-72 -37 -107 -48t-67.5 -13t-78.5 -4.5t-143 -20.5q-41 -8 -69.5 -39t-47 -69.5t-30.5 -78.5t-23 -67l-80 -204q-37 -93 -69 -185l-66 -190 q-33 -97 -67 -211q-6 -10 -18.5 -19.5t-25.5 -11.5q-3 -1 -7 -1q-10 0 -19 5q-12 7 -14 27zM340 283q46 -9 90 -9q69 0 135 21q109 35 203 108.5t171 178t129 218t77 229.5q17 82 17 155q0 30 -3 59q-35 31 -83 32h-19q-37 0 -68 -3q-135 -16 -212 -67.5t-126 -129.5 t-84 -179t-86 -218q-8 -16 -28 -61l-43 -94l-42 -94q-19 -44 -28 -60v-86z" />
<glyph unicode="q" horiz-adv-x="989" d="M156 -874q-72 72 -84 169q-5 37 -5 75q0 63 13 130q20 106 60 208l73 179q51 125 66 199q8 43 8 75q0 23 -4 40q-10 41 -40 55t-65 20.5t-68.5 11.5t-53 26.5t-19.5 65.5t35 130q10 27 47 78t91 112.5t121.5 128t138.5 122t141.5 94t130.5 47.5q13 2 27 1q45 0 81 -22 q47 -29 70 -110q6 -20 -0.5 -55.5t-16.5 -73t-22 -72.5l-19 -53q-20 -53 -68 -129l-112 -169l-136 -199q-73 -105 -140.5 -215t-124 -220.5t-86.5 -212.5q-30 -99 -30 -187q0 -94 48 -166q10 -16 51 7.5t101 72.5l133 115l150 132l153 127q76 60 139.5 97t110.5 45q8 1 15 2 q35 0 50 -32q4 -4 4 -14.5t-4 -14.5q-29 -20 -78 -65l-111 -103l-135 -122q-73 -65 -149 -125t-149.5 -112.5t-138 -83t-116.5 -35.5q-7 -1 -15 -1q-42 1 -68 27zM184 453q-2 -6 -3 -22.5t-1 -34t1 -34t3 -22.5q26 -9 53 -9l78 20q66 34 127.5 95.5t118.5 138.5l108 140 q50 63 92 101q29 26 53 27q10 0 20 -5q9 36 9 60q0 23 -8 37q-14 23 -44 23q-7 0 -14 -1q-40 -6 -97 -39t-120.5 -80t-127 -104.5t-117 -113t-88.5 -102t-43 -75.5z" />
<glyph unicode="r" horiz-adv-x="1214" d="M72 29q-2 1 -2 10q0 14 4 48q6 56 18 142t31.5 187.5t43 195t49.5 166t52 99.5q16 16 33.5 -0.5t35 -41t36 -42t37.5 -2.5q70 98 153.5 186t186.5 153q10 6 55 22.5t103.5 33t118.5 28.5q48 10 86 10h19q44 -3 59 -24q5 -7 5 -16q0 -20 -22 -54q-113 -2 -214.5 -51 t-190.5 -129t-168 -181t-145.5 -206.5t-120.5 -207.5l-95 -180q-41 -79 -70 -127t-43 -48q-4 0 -24.5 11.5z" />
<glyph unicode="s" horiz-adv-x="989" d="M72 29q-16 10 -16 24q0 13 15 29q30 33 94 73t148 82l163 78l139 66q60 29 77 43q88 75 89 124q0 40 -43 66q-46 29 -127 45.5t-168 31l-164.5 28.5t-117.5 40q-30 19 -30 47q0 9 3 19q13 41 108 107l103 73q69 48 147.5 97t155.5 90t130 51q10 2 20 2q17 0 36 -6 q29 -10 46 -28.5t16 -40t-34 -40.5l-272 -149q-133 -72 -264 -162q-10 -18 2 -33.5t26 -23.5q213 -23 340 -59.5t185.5 -82t58.5 -96.5t-41 -104t-114.5 -105.5t-160.5 -99.5t-178.5 -86t-169 -64.5t-133.5 -35.5q-28 -5 -45 -5t-24 5z" />
<glyph unicode="t" horiz-adv-x="1073" d="M227 29q-4 6 -4 27.5t4 27.5q4 18 16 56l25 85l30 100l29 100q13 48 24 85t18 55q10 35 22 82q7 28 8 54q0 17 -4 34q-9 1 -18 1q-31 0 -73 -10q-54 -13 -108 -21q-27 -4 -52.5 -4.5t-48.5 4.5q-46 8 -66 57q18 41 53 62.5t77 31.5t89 14t91 12.5t81 25t61 53.5 q25 63 54.5 157t65.5 196.5t77 203t86 178.5q14 10 26 10q10 0 19 -8q18 -16 27.5 -45t11.5 -58.5t0 -40.5q-16 -66 -51 -139l-68 -149q-33 -76 -51 -150q-9 -37 -9 -72t9 -69h536q4 0 14.5 -16.5t14.5 -26.5q3 -8 3 -15q0 -21 -29 -31q-39 -13 -107 -16.5t-154 -5.5 t-165.5 -12t-142 -37t-83.5 -80q-66 -168 -121 -337t-104 -341q-6 -8 -21.5 -24.5t-31.5 -26.5q-14 -9 -28 -8h-6q-18 2 -26 31z" />
<glyph unicode="u" horiz-adv-x="1439" d="M1075 29q-68 27 -107.5 71.5t-62 102t-34.5 121.5l-23 129q-16 10 -54 -12.5t-88 -64.5l-110 -94q-59 -52 -122.5 -100.5t-126 -82t-118.5 -40.5q-9 -1 -18 -1q-45 0 -82 26q-45 31 -72 115q-4 13 -4 31q0 31 14 76q22 71 64.5 157t98 176t109.5 169t100 136t71 74 q52 -26 52 -74q0 -5 -1 -11q-6 -56 -46 -128t-100.5 -155t-113.5 -163.5t-86 -155.5q-22 -50 -22 -92q0 -21 6 -40q17 -7 38 -8q42 0 97 31q82 46 175 129t191 189l184 203l150 175q66 76 96 100q51 -27 51.5 -82t-28.5 -129t-70 -158t-71.5 -166t-35.5 -156q-1 -7 -1 -15 q0 -66 43 -113l84 -101h254q12 0 12 -6q0 -4 -4 -9q-10 -15 -29.5 -33.5t-40 -34t-22.5 -15.5q-35 -6 -63 -6q-22 0 -41 4q-40 8 -93 31z" />
<glyph unicode="v" horiz-adv-x="1327" d="M141 57q-51 31 -73.5 95.5t-25.5 146.5q-1 16 -1 33q0 67 10 140q12 91 29.5 175t35 151.5t25.5 104.5q12 8 26.5 1t28 -19.5t22.5 -24.5l9 -12q3 -47 4 -93q0 -39 -3 -77q-5 -84 -13 -167t-15 -168q-4 -46 -4 -92q0 -40 3 -81q9 -19 29 -19q12 0 29 7q44 18 108.5 70.5 t142.5 128.5l162 164l168 178l159 169q76 78 138.5 135.5t101.5 80.5q21 13 34 13q11 0 16 -10q3 -6 4 -17q0 -26 -19 -81q-45 -41 -104 -110l-126 -155l-142 -178q-75 -93 -152.5 -180t-158.5 -161t-158 -120t-150 -56q-15 -2 -31 -2q-57 -1 -109 30z" />
<glyph unicode="w" horiz-adv-x="1863" d="M834 29q-49 37 -77 96t-41.5 128t-17.5 136.5t-6 118.5q-4 4 -14 4t-14 -4q-61 -47 -119 -107.5t-113 -126.5l-109 -130q-54 -65 -110 -115q-25 -9 -50 -9q-11 0 -22 2q-37 5 -64.5 23t-38.5 50q-5 13 -5 28q0 22 10 47l107 325q57 171 118 324q23 55 49.5 60.5t46 -19 t26.5 -68.5q2 -15 3 -29q0 -29 -10 -56l-29 -73l-43 -111l-42 -110l-27 -73v-86q80 70 132 126t98 112l96 119q50 65 124 151q57 68 89 74t48.5 -28t19.5 -97q2 -38 2 -80q0 -28 -1 -58q-2 -74 -6 -147q-3 -49 -3 -89q0 -20 1 -38q2 -53 12 -76.5t37 2.5q31 45 87 136 l129 200q73 109 159 220.5t176 200.5t180 139q72 40 140 41q16 0 32 -3q4 -12 -27.5 -55t-83.5 -105l-112 -132l-120 -136l-103 -118q-45 -52 -62 -76q-8 -10 -32 -45l-55 -81l-67 -100l-68 -99l-56 -82q-25 -36 -33 -46l-38 -51q-15 -20 -29 -28q-8 -4 -17 -4q-7 0 -13 2 q-17 6 -44 26z" />
<glyph unicode="x" horiz-adv-x="1257" d="M43 57q-9 13 -9 29q0 23 19 50q33 46 96.5 97.5t142.5 106.5t145.5 109.5t109.5 105.5q35 41 35 77q0 9 -2 17q-2 12 -15 58l-27 98l-28 98q-12 45 -14 58q-2 6 -2 27.5t2 29.5q20 16 41.5 2t42 -46t40.5 -74l36 -82q17 -40 34 -71.5t31 -39.5q43 29 94 70l101 85l96 85 l75 71q46 23 68 23q3 0 6 -1q22 -4 22 -29q0 -22 -14 -53q-14 -33 -32.5 -63.5t-33.5 -52.5l-16 -23q-131 -121 -201.5 -205t-97.5 -140q-20 -43 -20 -74q0 -10 2 -18q8 -36 33.5 -59.5t60.5 -41t61.5 -39t36.5 -51.5q3 -8 2 -17q0 -25 -18 -61q-28 -7 -50 -7q-33 0 -55 14 q-38 24 -62.5 65.5t-41 91t-41 85t-62.5 47.5q-9 3 -21 2q-34 0 -85 -25q-68 -34 -171 -125t-257 -261q-4 2 -12 10l-17 18l-18 17q-8 8 -10 12z" />
<glyph unicode="y" horiz-adv-x="1101" d="M-424 -961q-11 16 -11 41q0 11 2 24q7 42 26.5 92t49 103.5t60.5 102.5l57 87l41 58l63 82l94 125l111 147l111 146l95 125l63 82q10 11 10 29t-10 42q-20 48 -62 111l-92 139q-51 76 -92 156t-62 157q-11 39 -11 76q0 35 10 68q8 6 17 6q13 0 27 -13q24 -22 49 -68 t54 -108l57 -128l58 -127q29 -61 56.5 -105.5t54 -65t51.5 -1.5q63 49 125.5 122.5t120.5 153.5l110 157q51 77 94 132q18 23 34.5 32t51.5 -3q11 -3 11 -19q0 -22 -21 -67q-37 -78 -117 -201t-191 -279l-235 -326l-248 -336l-228 -310l-177 -252q-74 -109 -94 -160l-22 -45 q-11 -23 -34 -39q-4 2 -12 10l-17 18l-18 17q-8 8 -10 12z" />
<glyph unicode="z" horiz-adv-x="1413" d="M100 29q-36 22 -36 56q0 10 4 21q14 49 70.5 113t146.5 138l193 155l211 161l201 157q93 77 161.5 147t93.5 125q-6 33 -51 37q-14 1 -30 1q-35 0 -78 -6q-62 -9 -132 -23.5t-124 -15.5h-6q-50 0 -77 17q-17 11 -17 36q0 16 7 38q2 4 53 20.5t128 33.5t166 31 q77 12 146 11h21q78 -2 131 -25q59 -25 59 -83q0 -51 -53 -132q-57 -88 -201 -223q-8 -8 -41 -38l-74 -65l-79 -71q-39 -35 -59 -51q-16 -14 -61 -48l-100 -77l-117 -91l-108.5 -90t-76 -74t-17.5 -44q51 -5 101 -5q56 0 111 6q105 11 211 26.5t211 26.5q55 6 111 6 q51 0 103 -5q12 -6 26.5 -18t24 -27.5t11.5 -32t-7 -34.5q-66 -4 -161 -22l-207 -37l-228.5 -37.5t-224.5 -26.5q-57 -4 -108 -5q-45 0 -86 4q-89 7 -142 40z" />
<glyph unicode="{" horiz-adv-x="677" d="M383 57q-84 31 -165 103.5t-130 166t-53 194t65 186.5q6 8 36 41l63 71l62 72q30 33 36 41q31 39 32 65.5t-14.5 47t-41 38t-45 36t-26.5 41t11 54.5q2 6 19 27l37 44l36 44q16 20 21 27q29 63 13.5 128.5t-44.5 129.5l-55 126q-27 62 -21 122.5t60.5 118t187.5 110.5 q14 6 27.5 0t23.5 -16.5t19 -21.5l14 -19q-23 -29 -71 -59.5t-91 -68.5t-66.5 -83t3.5 -101l141 -282q0 -2 -3 -39t-6 -89t-2 -109.5t11 -100.5q16 -72 6 -121t-37.5 -87t-66.5 -67.5t-76 -62.5t-67.5 -73t-41.5 -97q-25 -125 6 -202t94.5 -128t149.5 -84l174 -67 q49 -18 44 -39t-44 -33t-100.5 -10.5t-124.5 26.5z" />
<glyph unicode="|" horiz-adv-x="282" d="M86 29q-4 6 -15.5 27.5t-13.5 27.5q0 33 -1 112.5t-1 170t1 171t1 111.5q0 18 2 80t5.5 143.5t6.5 173t6 173t5 142t4 79.5q0 4 3 30.5t10 60.5t16.5 67.5t22 54t27.5 20.5t34 -35q6 -201 1 -402.5t-13.5 -402t-14.5 -402.5t-2 -402q-16 -35 -41 -31t-43 31z" />
<glyph unicode="}" horiz-adv-x="749" d="M184 57q-8 20 23 50t80 67l105 81q56 44 102.5 97.5t73 113.5t12.5 128q-10 55 -45 102t-78 89l-88 83q-45 41 -76 85t-41 94.5t16 111.5q-55 115 -68.5 172.5t-1 85t43 37.5t62.5 31.5t55.5 66.5t23.5 144q0 51 -28.5 97t-70.5 89t-90.5 84t-86 80t-58 78t-6.5 80h84 q6 0 42 -33l81 -78l90 -93q45 -48 70 -79q63 -78 79.5 -146.5t1 -132t-53.5 -127t-83 -131.5q-8 -12 -19 -33.5t-9 -23.5l141 -141q23 -20 24 -38t-8.5 -31t-26 -24.5t-30.5 -22.5t-20.5 -24.5t4.5 -27.5q29 -45 73 -92l88 -97q43 -49 78 -101t43 -107q12 -66 -16.5 -149 t-78.5 -165t-113.5 -152.5t-124 -110.5t-109 -42t-66.5 55z" />
<glyph unicode="~" horiz-adv-x="1327" d="M623 29q-49 31 -79 79t-47.5 101t-27.5 102t-22.5 81t-31 37t-52 -28.5t-87 -116.5t-135.5 -227q-45 -14 -56 20t3 94t48 134t79 137.5t98.5 104.5t104.5 37t97 -66.5t79 -206.5q23 -106 64.5 -147t95 -38t117 40t129.5 85l137 97q70 49 135 76q14 -23 -14.5 -70 t-85 -100t-131 -106.5t-151.5 -89t-147.5 -47t-119.5 17.5z" />
<glyph unicode="&#xa1;" horiz-adv-x="663" d="M40.8213 1824.78q-19.877 -27.8594 -3.97559 -59.3135t44.2256 -52.5723q28.3242 -21.1191 59.1338 -22.0186q30.8086 -0.898438 40.7471 32.3535q7.9502 33.251 0 70.0967q-7.95117 36.8457 -28.3242 58.8633q-20.374 22.0186 -49.6924 19.3223 q-29.3174 -2.69629 -62.1143 -46.7314zM180.952 1191.21q-5.96289 -14.3789 4.96875 -71.4453q10.9326 -57.0664 33.2939 -140.194t54.1641 -184.23q31.8027 -101.102 68.5742 -202.203q36.7725 -101.102 76.5254 -195.912q39.7539 -94.8115 78.0166 -164.908 q38.2627 -70.0977 73.0469 -107.842q34.7842 -37.7451 61.6172 -26.0615q1.98828 10.7832 -10.4346 77.7354q-12.4238 66.9521 -36.7725 166.706q-24.3486 99.7529 -57.1455 218.379t-69.0713 233.657q-36.2754 115.031 -76.0283 215.234q-39.7539 100.203 -76.5254 161.763 q-36.7725 61.5596 -69.0713 72.793q-32.2998 11.2344 -55.1582 -53.4707z" />
<glyph unicode="&#xa2;" horiz-adv-x="1398" d="M256 29q-127 43 -169 132t-22.5 202.5t87 239.5t158.5 242t194.5 208t193.5 140t155 38t81 -101q6 -41 -9.5 -88t-44 -91t-64.5 -79.5t-69.5 -54t-60.5 -13.5t-35 44q31 51 68 100l74 96q-14 27 -57.5 12.5t-102 -59.5t-126 -112.5t-129 -148.5t-110.5 -167t-71.5 -166.5 t-11 -148.5t70.5 -113q82 -6 188.5 17.5t219 60.5t224.5 82l203 82q91 37 154.5 57.5t83.5 12.5q37 -18 21.5 -50t-68.5 -71t-135 -81t-179.5 -82t-201.5 -73t-200.5 -53t-177.5 -25t-132 11zM578 -111q-4 6 -15.5 28t-13.5 28q0 20 -6 71.5t-16 116.5l-19 138l-18.5 138.5 t-13.5 117t-5 71.5q0 18 4 82.5t10 152.5l14 184l13 183q6 86 10 150.5t6 83.5q0 4 3.5 30.5t10.5 60.5t16 67.5t21.5 54t28 20.5t33.5 -35q-29 -201 -48.5 -423t-22.5 -448t17.5 -448.5t74.5 -423.5q-16 -35 -41 -31t-43 31z" />
<glyph unicode="&#xa3;" horiz-adv-x="829" d="M141 29q-45 94 -62.5 226t-11 280.5t35 301t76.5 289t113.5 246t146.5 172t173.5 66.5t194.5 -72l-76 -131q-76 74 -144.5 67.5t-129 -70t-111.5 -171t-90 -236.5t-65.5 -266t-38 -260t-8.5 -218t26 -140q29 12 107.5 30.5t188 21.5t239 -18.5t256.5 -91.5q25 -12 5 -16 t-69 -2t-119.5 8t-150.5 12t-160 10.5t-148.5 2.5t-116 -11.5t-61.5 -29.5zM250 662q-150 16 -215.5 31.5t-67.5 29.5t45 23.5t123 14.5t166 5t172 -9t145.5 -25.5t83.5 -43.5q-25 0 -89 -4t-137 -8t-137 -8t-89 -6z" />
<glyph unicode="&#xa4;" horiz-adv-x="1484" d="M326 281q-27 4 -37 37.5t-7 83t18 109.5t40 118.5t56.5 110t70.5 83.5q-35 45 -85 88t-94 87t-72 95.5t-17 112.5q43 2 93 -33.5t95 -88t80 -111t47 -101.5q39 66 104.5 103t137 47t140.5 -4t112 -51q150 106 240.5 153t131.5 52.5t35 -21.5t-50 -70t-123 -92t-185 -88 q18 -45 14 -97t-22.5 -107.5t-50 -113t-68.5 -108.5q43 -23 88 -68t81 -96t60.5 -100t26.5 -79t-19.5 -32t-79.5 41q-23 39 -55 71l-65 62q-33 31 -60.5 63t-40.5 69q-25 -45 -78 -79t-117.5 -54.5t-130 -26.5t-110.5 6q-20 -25 -58 -59.5t-79 -67.5t-79 -58.5t-59.5 -32.5 t-19.5 10t41 71zM369 373q2 -16 12 -25.5t20.5 -14.5t18.5 -8t10 -6q45 -27 109.5 -13.5t133 54.5t135 101.5t117 128t76 132t14.5 115t-68.5 78t-174.5 19.5q-14 2 -53 -21.5t-88 -65.5t-101.5 -99.5t-92.5 -121t-60 -129t-8 -124.5z" />
<glyph unicode="&#xa5;" horiz-adv-x="1003" d="M387 -381q-31 74 -26.5 162t28 185t58 203.5l67.5 217.5t55.5 224.5t20.5 226.5q-10 23 -44 76l-82 126l-104 154l-106 161l-93 149q-42 71 -62.5 119t-13.5 66.5t54 -3.5q37 -33 88.5 -105t108.5 -161l116 -182l108 -168q50 -75 88 -118t54 -30q20 39 53 110l71 162 l85 189l90 193q45 93 88.5 171t79 124t61 53t38.5 -42q-23 -41 -70 -139t-105 -237l-126 -306l-133 -346q-66 -178 -125.5 -357.5t-102.5 -340t-64.5 -292.5t-13.5 -218q-8 -25 -24.5 -48.5t-37 -32.5t-42 1t-37.5 53zM45 352q-14 23 19.5 41.5t94 33.5t136.5 27.5 t143.5 20.5l116.5 13.5t55 5.5q20 0 72.5 1t111 1t110.5 -1t73 -1q14 -8 25.5 -23.5t3.5 -34.5q-92 -12 -214 -31.5l-242 -40.5l-225 -40l-167 -29q-45 -8 -64.5 3t-48.5 54zM188 621q14 31 71.5 55t134.5 39.5t166 20.5t168 -2t139.5 -27.5t82.5 -57.5q-10 -12 -68.5 -24.5 t-139 -23.5t-174 -18.5t-175.5 -6t-139.5 11.5t-65.5 33z" />
<glyph unicode="&#xa6;" horiz-adv-x="282" d="M70 1008q2 63 5 133.5t5 132t4 106.5t2 60q0 4 3 30.5t10 60.5t16.5 67.5t22 54t27.5 20.5t34 -35q4 -147 3 -310t-5 -310zM201 881q-4 -129 -10.5 -229.5t-11.5 -197t-8 -196.5t-1 -229q-16 -35 -41 -31t-43 31q-4 6 -15.5 27.5t-13.5 27.5q0 33 -1 112.5t-1 170t1 171 t1 111.5q0 14 1 25.5t3 32t4.5 58.5t4.5 107z" />
<glyph unicode="&#xa7;" horiz-adv-x="1509" d="M186 47q-31 20 -1 53t94.5 73t148.5 82l163 79l139 65q60 29 77 43q57 49 75.5 85t9.5 62.5t-43 46t-83 32.5l-236 12q-84 12 -155.5 32.5t-106.5 52.5t-19.5 77t107.5 108l90 64l129 86q70 45 141.5 85t129.5 62q-59 8 -117.5 18.5t-106 22.5t-79 28.5t-36.5 41 t20.5 57.5t90.5 78l104 73q69 48 147.5 97t155.5 90t130 51q27 6 55.5 -4t46 -28.5t16.5 -40t-34 -39.5l-272 -150q-133 -72 -265 -162q-10 -18 2.5 -33.5t26.5 -23.5q242 -27 373 -70t179 -96t25.5 -113.5t-89 -120t-164 -115.5t-199.5 -101q125 -41 167 -94.5t23.5 -111 t-85 -116.5t-156.5 -112.5t-192.5 -99.5t-191.5 -78t-154 -45t-81 -3zM1069 985q55 47 74.5 80t16.5 55.5t-24.5 33.5t-49 14t-58.5 -2t-51 -17l-272 -150q-133 -72 -265 -161q-12 -27 8.5 -41.5t52 -21.5t65.5 -10t50 -5l140 70l138 67l113 53q48 23 62 35z" />
<glyph unicode="&#xa8;" horiz-adv-x="1193" d="M276 1065q-37 53 -19.5 105.5t56.5 82t87.5 23.5t72.5 -70q14 -39 -5 -80t-53 -66.5t-74 -28.5t-65 34zM635 1077q-37 53 -19.5 105.5t56.5 82t87 23.5t72 -69q14 -39 -5 -80t-53 -66.5t-73.5 -29t-64.5 33.5z" />
<glyph unicode="&#xa9;" horiz-adv-x="1705" d="M248 53q-102 72 -155.5 181.5t-67 240.5t11 276.5t80 290t138.5 280.5t185.5 248.5t222 194.5t248.5 117t264.5 16.5t270.5 -106.5q127 -76 174 -212t32.5 -302t-84 -348t-176 -350t-243.5 -307.5t-288.5 -220.5t-308.5 -88t-304 89zM285 154q98 -72 207.5 -71t220 54 t217 149.5t200 217.5t167 255t118.5 262t57.5 240.5t-20.5 190.5q-31 137 -100.5 202.5t-162.5 73t-202.5 -37.5t-221.5 -127t-218.5 -194t-192.5 -238.5t-144 -263t-73.5 -265.5t17.5 -244.5t131 -203.5zM590 465q-94 31 -124 97.5t-16.5 151.5t63.5 178t117.5 179 t143.5 154.5t142.5 104.5t114.5 29t59 -75q8 -45 -20 -100.5t-66.5 -94t-75.5 -49t-47 32.5q23 39 50 76l54 72q-14 27 -64.5 -1t-114 -87.5t-127 -142.5t-102 -166t-42 -157.5t54.5 -117.5q61 -4 140 13.5t162 45t164 60.5l148 60q68 28 115 43t61 9q37 -18 6.5 -54 t-101.5 -77t-170 -81t-198.5 -68.5t-188.5 -39.5t-138 5z" />
<glyph unicode="&#xaa;" horiz-adv-x="1071" d="M85.8018 798.383q-35.9033 29.5576 -39.5537 89.2754q-0.609375 9.65137 -0.609375 18.6992q0 51.876 16.4307 114.007q20.0811 73.5918 61.1562 154.422t94.0166 153.819q52.9414 72.9883 115.314 130.896t125.051 86.2588q48.0732 21.7158 93.7119 21.7158 q13.9961 0 27.9922 -1.80957q59.6348 -8.44531 108.316 -69.3691q29.8174 -36.7959 36.5117 -75.4014q3.04199 -17.4932 3.04199 -35.5898q0 -21.1123 -4.25977 -43.4307q-7.30176 -39.8125 -24.9492 -80.8311q-17.6465 -41.0176 -33.1641 -83.8457t-24.6445 -86.2588 q-5.47754 -26.542 -6.08594 -53.083q0 -17.4932 3.04297 -35.5889q6.08496 -43.4316 32.8604 -59.1152q22.5146 -13.2705 54.1582 -13.2705h12.1699q40.1631 3.01562 88.8447 20.5088t98.2754 42.8281q49.5947 25.335 97.0596 53.6855l84.584 52.4795 q36.5107 24.1289 59.0264 40.415l22.5156 15.6836q15.8213 3.0166 26.7744 3.61914q17.6475 0 21.2988 -9.04785q1.2168 -3.01562 0.608398 -6.63574q0 -13.2705 -17.0391 -34.9854q-21.9062 -27.1445 -66.0244 -62.1309q-44.1172 -34.9863 -101.015 -69.0674 q-56.8965 -34.082 -120.486 -60.623q-63.5908 -26.541 -125.051 -37.3994q-29.8184 -4.8252 -57.8096 -4.8252q-29.8174 0 -56.5928 6.03223q-52.9414 10.8574 -89.4521 54.2891q-15.2139 17.4922 -24.3408 35.8906q-9.12793 18.3975 -26.7754 31.6689l-54.1582 -55.4961 q-31.6426 -33.1768 -69.0674 -67.2578q-37.4238 -34.0811 -79.7158 -64.2422q-42.292 -30.1602 -86.7139 -45.8438q-33.4688 -11.4609 -66.9375 -11.4609l-21.2979 1.20605q-44.4229 4.82617 -87.0186 39.209zM103.448 849.053q9.73633 -35.5898 40.1631 -41.6211 q7.91016 -1.81055 16.4297 -1.81055q24.3408 0 54.7666 12.668q41.9883 17.4932 91.2783 55.7969t97.667 91.9893q48.3779 53.6865 92.1914 119.135t74.8477 136.627q31.0352 71.1787 45.6396 145.374q7.91016 42.2246 7.91016 83.2422q0 31.9707 -4.86816 63.3379 q-18.8643 15.0801 -41.9873 15.0801q-10.9541 0 -23.7324 -3.0166q-37.7285 -10.2539 -82.1504 -42.5264q-44.4219 -32.2715 -91.582 -83.5439q-47.1611 -51.2734 -90.9746 -110.689t-81.541 -123.658q-37.7285 -64.2422 -63.8945 -124.262 q-26.167 -60.0186 -37.7285 -109.482q-6.08594 -28.3506 -6.08594 -50.6699q0 -18.0957 3.65137 -31.9697z" />
<glyph unicode="&#xab;" horiz-adv-x="1705" d="M989 29l-405 268q-205 135 -385 297l-82 73q-41 36 -64.5 73.5t-19.5 77.5t53 85l69 63l104 95l123 111l123 111l104 94l69 63q12 4 34.5 0t41 -15.5t24.5 -30t-14 -38.5l-537 -537q-18 -18 -8 -43.5t37 -56.5t62.5 -61.5t69.5 -56.5t61 -43l32 -21q23 -14 68 -47 l103 -70l123 -82l123 -82l106 -70l69 -45q27 -33 31 -63.5t-8.5 -50t-40 -21.5t-66.5 23zM1487 96l-406 269q-205 135 -385 297l-82 72q-41 36 -64.5 74t-19 78t53.5 85l68 62l105 95l123 112l122 111l105 94l69 62q12 4 34.5 0t41 -15t24.5 -29.5t-14 -39.5l-537 -536 q-18 -18 -8 -44t36.5 -56.5t62.5 -61.5t70 -56.5t60 -42.5l33 -22l67 -46l104 -71l123 -81l123 -82l105 -70l70 -45q27 -33 31 -63.5t-8.5 -50t-40 -22t-66.5 22.5z" />
<glyph unicode="&#xac;" horiz-adv-x="1288" d="M1176 412q-27 -51 -55.5 -28.5t-50 88t-34 159.5t-6.5 186q-37 2 -106.5 -6l-155.5 -17.5t-178 -16.5t-174 -5t-145.5 18.5t-88.5 55.5q-14 20 52.5 46t174 46t237.5 31.5t245 4.5t194.5 -37t85.5 -91z" />
<glyph unicode="&#xad;" horiz-adv-x="1243" d="M72 707q-33 33 3 62.5t114.5 54t189 43t227.5 27.5t229.5 8t195.5 -16.5t125 -46t18 -77.5q-25 0 -89.5 -4l-137.5 -8.5l-137.5 -8.5t-88.5 -6q-61 -6 -152.5 -29.5t-185.5 -40t-178 -12t-133 53.5z" />
<glyph unicode="&#xae;" horiz-adv-x="1705" d="M248 53q-102 72 -155.5 181.5t-67 240.5t11 276.5t80 290t138.5 280.5t185.5 248.5t222 194.5t248.5 117t264.5 16.5t270.5 -106.5q127 -76 174 -212t32.5 -302t-84 -348t-176 -350t-243.5 -307.5t-288.5 -220.5t-308.5 -88t-304 89zM285 154q98 -72 207.5 -71t220 54 t217 149.5t200 217.5t167 255t118.5 262t57.5 240.5t-20.5 190.5q-31 137 -100.5 202.5t-162.5 73t-202.5 -37.5t-221.5 -127t-218.5 -194t-192.5 -238.5t-144 -263t-73.5 -265.5t17.5 -244.5t131 -203.5zM340 397q-10 25 14.5 84.5t65.5 134l91 157.5l93 155 q43 72 69.5 122t22.5 62q-16 4 -33 -3l-34 -14q-16 -7 -32.5 -9.5t-29.5 14.5q-10 16 4.5 29.5t24.5 19.5q154 98 290 152.5t243.5 72t180 3t98.5 -54.5t0 -100.5t-115 -134t-247.5 -156.5t-398.5 -169q-6 -16 19.5 -35.5t71.5 -43.5t104 -50l112 -53q55 -27 101.5 -52.5 t69 -49t14 -44t-59.5 -37.5q-2 -2 -38 15l-77 37l-78 37q-36 17 -40 22q-106 76 -177 92t-117 -3t-73.5 -60t-49 -79t-41 -59.5t-48.5 -1.5zM653 883q211 55 337 117.5t185.5 120t63.5 103.5t-33 69.5t-102.5 18.5t-143 -50t-159.5 -137t-148 -242z" />
<glyph unicode="&#xb0;" horiz-adv-x="819" d="M166 1063q-63 25 -79.5 68t-0.5 94t55 103t88.5 96t99.5 74t87 34q125 14 179 -24t56 -101.5t-40 -137t-111.5 -131t-157.5 -83t-176 7.5zM182 1174q12 -47 49 -57.5t83 5t97.5 49t91.5 73.5t63.5 83t17.5 75t-49 46t-138 2q-33 -29 -75.5 -53.5t-78.5 -54t-56.5 -69.5 t-4.5 -99z" />
<glyph unicode="&#xb1;" horiz-adv-x="950" d="M113 104q-10 8 13.5 21.5t69.5 29t109.5 30t130.5 26.5q-23 70 -28 147.5t-13 139.5h-282l-58 69q2 2 10.5 6.5l17.5 9.5t17.5 9t12.5 4q14 4 55 12l86 18q45 9 85 16t56 11l56 396q2 14 15 22t28.5 8t28 -7t12.5 -23v-367q14 0 51 -4t76.5 -9l76.5 -9.5t52 -6.5 q6 -2 28.5 -12t26.5 -16q-27 -43 -71 -56.5t-91 -19.5t-89 -17.5t-60 -48.5q-16 -33 -19.5 -65.5t-0.5 -64t10 -64.5t12 -64q82 10 155.5 13.5t118.5 -5t52 -31t-42 -63.5q-133 -16 -242.5 -40.5t-197.5 -39t-154.5 -8.5t-113.5 53z" />
<glyph unicode="&#xb2;" horiz-adv-x="772" d="M62.3174 877.352q-17.2217 9.78516 -14.2695 21.7236q2.95215 11.9375 14.2695 22.1152l93.001 84.9375q46.7461 40.707 90.2939 82.9805t81.6826 87.4824t68.6426 98.0498q16.2383 28.1826 13.04 41.4902q-3.19824 13.3086 -18.2061 16.4395 q-15.0078 3.13184 -38.1348 -0.782227q-23.1279 -3.91406 -48.4688 -11.1553q-25.3418 -7.24121 -48.4688 -14.874t-37.6426 -11.7432q-14.5166 -4.10938 -17.2227 -1.56543t14.5156 15.8525q22.1436 20.7451 54.8652 36.2061q32.7227 15.4609 66.6758 22.5068 q33.9521 7.0459 64.7061 5.47949q30.7539 -1.56543 49.207 -14.6777q18.4521 -13.1123 20.666 -38.751q2.21484 -25.6377 -19.9287 -65.9531q-26.0791 -47.3623 -66.9209 -87.6777l-82.667 -79.458q-42.3174 -38.751 -80.4521 -78.4795q-38.1357 -39.7295 -62.2461 -86.3076 q20.1748 -4.69727 61.5078 4.50098t92.5088 23.6807l107.762 30.1396q56.5879 15.6562 107.024 24.4629q50.4365 8.80762 89.5557 6.85059t56.3418 -23.0938q1.96777 -2.34863 1.96777 -11.1553q0 -8.80762 -1.96777 -11.1562q-37.3975 4.69727 -88.8184 -4.50098 q-51.4199 -9.19824 -109.484 -24.8555l-119.571 -33.2705q-61.0166 -17.6133 -116.374 -29.1602t-101.857 -12.7217q-46.5 -1.17383 -75.5322 16.4404z" />
<glyph unicode="&#xb3;" horiz-adv-x="563" d="M39.4531 911.531q-2.28809 5.35742 -5.91016 12.0527t-4.7666 12.8555q-1.14355 6.16016 0.762695 11.5156q1.90625 5.35742 9.91406 8.57031q10.2939 4.28516 22.3047 2.14258t24.9746 -6.42773l25.165 -8.57031q12.582 -4.28516 24.4023 -2.14258 q14.8701 2.14258 40.2256 16.3379q25.3555 14.1943 55.668 36.6914q30.3115 22.4971 63.1025 51.4219t61.7686 60.2598q28.9775 31.3359 51.2832 63.2061q22.3047 31.8711 32.79 60.5283q10.4854 28.6562 5.71973 52.2246t-30.3125 37.4961 q-17.1582 4.28516 -44.9912 -4.28516q-27.834 -8.57031 -58.3369 -21.4258l-61.0059 -25.1758q-30.1221 -12.8555 -53.1895 -16.0693q-23.0684 -3.21387 -35.0791 7.23145q-12.0098 10.4453 -5.90918 44.7266q12.582 20.8896 33.5527 51.957t43.6572 68.2949 q22.6865 37.2266 42.7041 76.3291t30.6934 74.9902l-15.251 -5.35645l-36.2227 -12.3203q-20.9707 -6.96289 -44.8008 -12.5869t-41.3701 -5.62402q-17.5391 0 -25.7363 7.7666t1.71582 28.1211q1.52539 4.28516 19.6357 19.2832q18.1113 14.998 44.2295 33.21 t56.2402 34.5488q30.1211 16.3379 56.2393 23.0332t43.2764 0t18.3018 -35.3525t-18.6836 -82.7568q-19.8262 -54.1006 -68.25 -141.946v-46.0654q75.876 7.49902 119.152 -10.4453q43.2754 -17.9434 59.29 -53.0283q16.0137 -35.085 7.24414 -82.4893t-35.6504 -96.6836 t-69.3936 -96.416q-42.5137 -47.1367 -95.3223 -82.2217q-52.8076 -35.085 -112.479 -53.2969q-59.6709 -18.2119 -120.677 -9.10645q-1.52539 1.07227 -5.71973 6.96387t-4.95605 8.03418z" />
<glyph unicode="&#xb4;" horiz-adv-x="581" d="M213 1075q-63 -45 -93 -50t-35 18.5t11.5 68.5t49 98.5t75.5 108.5t92 100t99.5 72t95.5 25q16 -74 -13.5 -129.5t-79.5 -104.5t-107.5 -98.5t-94.5 -108.5z" />
<glyph unicode="&#xb5;" horiz-adv-x="1001" d="M492 -479q-41 223 -97.5 415.5t-114 351t-108.5 284.5t-82 219.5t-33 153t39 85.5q23 -25 74 -101l119 -177l143 -207q76 -106 149.5 -190.5t137 -130.5t106.5 -23q12 57 -13.5 133t-67.5 158l-89 165q-47 84 -78.5 157t-35.5 130t41 86q18 -16 54 -73.5t79 -137.5 t87 -172t76.5 -179t50 -158.5t7.5 -108.5q-23 -84 -57.5 -116t-77.5 -25.5t-92.5 41t-98.5 82.5t-96 102l-86 95q-39 42 -67.5 65.5t-43.5 11.5q-6 -43 21 -124t66 -178l84 -201q44 -103 74 -191.5t36 -152t-29 -81.5z" />
<glyph unicode="&#xb6;" horiz-adv-x="1398" d="M477 -96q-2 4 -2 13t2 13l57 102l84 153l85 154l57 101l49 87q23 40 54 103l81 163l127 268q-109 -12 -174 8q-25 -74 -79 -196.5t-123 -261.5l-144 -277q-76 -139 -143.5 -243.5t-119.5 -159t-73 -25.5q-8 43 5 97t37 109.5t51.5 107.5t45.5 91l50 102l76 156l77 162 q37 78 51 117q-43 14 -89 13t-90 -7t-84 -10t-70.5 4t-50 34.5t-23.5 84.5q-8 96 38 167.5t128 115.5t194.5 63.5t240.5 13.5t262 -38t261 -87l-54 -118l-91 -194l-119 -241l-133 -253q-68 -124 -136.5 -233.5t-128 -181t-108.5 -97t-78 19.5z" />
<glyph unicode="&#xb7;" horiz-adv-x="804" d="M389 545q-33 51 -32 103t22.5 95t58.5 73t77 35t77 -17.5t59 -83.5q20 -55 -5 -113.5t-71.5 -96.5t-99.5 -43t-86 48z" />
<glyph unicode="&#xb8;" horiz-adv-x="606" d="M129 -393q-12 35 24.5 48t87 20.5t100.5 18.5t67 42q14 31 3.5 46t-34 21.5t-55 9.5t-59 10t-45 23.5t-13.5 49.5q-10 55 -7 102t14 66.5t29.5 1t41.5 -94.5q10 -31 37.5 -48t62.5 -28.5t70.5 -18.5t62.5 -19.5t37 -34t-4 -58.5q-4 -20 -47 -63t-103.5 -80t-126 -54.5 t-114.5 11.5q-6 2 -16.5 13.5t-12.5 15.5z" />
<glyph unicode="&#xb9;" horiz-adv-x="493" d="M29.7822 714.515q-25.8232 21.0693 -22.6826 58.3691t18.8438 76.3076q15.7041 39.0078 35.5947 73.46q19.8916 34.4521 26.8711 48.1191q5.58301 10.25 22.334 44.418l38.3867 78.585l48.1572 95.0996l48.1582 95.0996l38.3857 78.0156l22.334 43.8477 q4.18848 9.11133 9.77148 28.4736q5.58398 19.3613 14.3076 40.4307q8.72461 21.0703 19.1934 39.5781q10.4688 18.5068 24.7764 27.9033q14.3086 9.39551 30.71 5.40918q16.4014 -3.98535 38.0371 -29.6113q1.39648 -1.13867 -13.2607 -36.4453l-40.4805 -92.8213 l-57.2305 -130.406l-67.002 -149.198l-68.3975 -149.768l-60.7207 -131.545q-27.2197 -57.5146 -45.7148 -93.1055q-18.4961 -35.5918 -21.2871 -36.7305q-2.79199 -1.13867 -18.1465 4.84082q-15.3545 5.97852 -20.9385 11.6738z" />
<glyph unicode="&#xba;" horiz-adv-x="819" d="M166 1063q-63 25 -79.5 68t-0.5 94t55 103t88.5 96t99.5 74t87 34q125 14 179 -24t56 -101.5t-40 -137t-111.5 -131t-157.5 -83t-176 7.5zM182 1174q12 -47 49 -57.5t83 5t97.5 49t91.5 73.5t63.5 83t17.5 75t-49 46t-138 2q-33 -29 -75.5 -53.5t-78.5 -54t-56.5 -69.5 t-4.5 -99z" />
<glyph unicode="&#xbb;" horiz-adv-x="1472" d="M98 57q-25 49 10 108.5t99.5 127t145.5 139.5t148.5 144.5t107.5 141t26 130.5q-2 6 -46 42l-109 88l-139 114q-75 61 -137.5 118.5t-101.5 104.5t-32 69q0 6 7 14.5t16 17.5t18.5 16.5t15.5 7.5q53 -41 136 -93.5t170 -114t167 -131t128 -143t52 -152.5t-61 -157 l-59 -70l-83 -101l-96 -112l-92 -110l-76 -90l-45 -53l-22 -23l-35 -35l-35 -33l-22 -22q-8 4 -30 25.5t-26 31.5zM643 72q-25 47 10 107.5t99.5 128t145.5 139t148.5 144.5t107.5 141.5t26 129.5q-2 6 -46 42l-109 88l-139 114q-75 61 -137.5 118.5t-101.5 104.5t-33 70 q0 6 7.5 14l16.5 17.5t18.5 16.5t15.5 7q53 -41 136 -93t170 -113.5t167 -131t128 -143.5t52 -153t-61 -156l-59 -71l-84 -100l-95 -113l-92 -110l-76 -90l-45 -53l-22 -23l-35 -34l-35 -34l-23 -22q-8 4 -29.5 26t-25.5 32z" />
<glyph unicode="&#xbc;" horiz-adv-x="1685" d="M144.104 843.28q-22.7871 18.2197 -20.0156 50.4746q2.77148 32.2539 16.6279 65.9854q13.8564 33.7324 31.4082 63.5244t23.71 41.6104q4.92676 8.86328 19.707 38.4092l33.8711 67.9561l42.4941 82.2363l42.4932 82.2354l33.8711 67.4639l19.707 37.917 q3.69531 7.87891 8.62207 24.6211q4.92676 16.7432 12.625 34.9629q7.69727 18.2197 16.9355 34.2236q9.2373 16.0039 21.8623 24.1299q12.625 8.125 27.0977 4.67773q14.4717 -3.44727 33.5635 -25.6064q1.23145 -0.984375 -11.7012 -31.5156l-35.7188 -80.2666 l-50.5 -112.767l-59.1211 -129.018l-60.3525 -129.509l-53.5781 -113.752q-24.0186 -49.7354 -40.3379 -80.5127q-16.3203 -30.7773 -18.7832 -31.7617q-2.46387 -0.984375 -16.0127 4.18555q-13.5479 5.1709 -18.4746 10.0947zM378.751 77.5908 q-13.123 94.6465 6.97168 224.786q20.0947 130.139 60.2842 279.503q40.1885 149.363 95.9619 307.107t114.007 305.63l114.006 278.023l94.3223 219.856q22.1455 17.7461 37.3184 7.88672q15.1738 -9.8584 23.376 -31.0557q8.20117 -21.1973 10.6621 -47.3232 t-0.820312 -40.915q-8.20215 -19.7178 -23.7852 -64.083l-37.7285 -98.5908l-43.4707 -115.35l-42.6494 -116.337l-36.9092 -98.5898l-23.7852 -64.084l-28.707 -83.8018l-42.6494 -126.195l-41.8301 -126.195q-19.6846 -59.1533 -26.2461 -81.8291 q-9.8418 -34.5068 -24.1953 -104.999l-31.9873 -150.35q-17.6348 -79.8574 -38.5488 -155.279q-20.915 -75.4219 -44.7012 -117.815q-4.9209 -7.88672 -14.7627 -17.2529q-9.84277 -9.36621 -20.915 -12.3242q-11.0723 -2.95703 -20.5049 1.97266 q-9.43262 4.92871 -12.7129 27.6045zM1097.59 92.6494q-9.31445 40.207 6.40527 80.415q15.7197 40.207 36.6787 79.9473q20.96 39.7402 35.8066 79.0127t3.20215 77.6094q-29.6934 3.74023 -66.6641 -3.74023q-36.9697 -7.48047 -77.7256 -19.1689l-81.5098 -23.376 q-41.3369 -12.1553 -78.8896 -16.3633t-68.9922 3.03906q-31.4404 7.24609 -52.9814 32.96q-19.2139 22.9092 -15.1377 53.0654q4.0752 30.1553 22.124 64.7529q18.0488 34.5967 45.4121 71.0645l55.8926 73.8691q28.5293 36.9346 52.3994 70.8311 q23.8711 33.8955 36.0977 62.8818q33.1865 6.5459 48.0322 -0.233398q14.8467 -6.7793 17.1758 -21.0391q2.3291 -14.2588 -5.24023 -34.3633q-7.56836 -20.1035 -18.9219 -40.207q-11.3535 -20.1045 -23.5801 -37.4023l-17.4658 -25.7139 q-5.82227 -9.35156 -22.7061 -34.1299l-34.9336 -51.8955l-34.3506 -51.4287q-16.8838 -24.3115 -22.7061 -34.1299v-26.6484q35.5146 -2.80566 74.5234 2.33691q39.0078 5.14355 77.7256 14.2598q38.7168 9.11719 75.6875 19.1689l67.8281 18 q71.6123 16.3633 114.405 48.8564t70.1572 75.9736q27.3633 43.4805 47.7412 95.6094q20.3779 52.1299 47.7412 108.701q33.1865 9.35059 42.2109 -6.31152q9.02441 -15.6631 3.20215 -45.3506q-5.82227 -29.6885 -22.7061 -67.5586l-33.1865 -72.9336l-29.1104 -62.1816 q-12.8096 -27.1172 -10.4805 -35.5322q23.8711 7.48047 48.3242 0.233398q24.4531 -7.24609 33.7686 -27.3506q-8.15137 -16.3633 -27.6553 -21.9736q-19.5049 -5.61035 -41.6289 -10.0518t-43.666 -10.5195t-34.3506 -23.376q-29.6924 -37.4023 -51.8164 -79.9482 q-22.125 -42.5449 -39.0088 -86.7266t-30.2754 -89.0645l-26.7812 -86.96q-4.6582 -1.87012 -12.5176 -2.33789q-7.86035 -0.467773 -15.7197 0.935547q-7.86035 1.40234 -14.2646 4.6748t-7.56934 9.81836z" />
<glyph unicode="&#xbd;" horiz-adv-x="1421" d="M10.416 797.014q-18.4453 19.1543 -16.2021 53.0635q2.24316 33.9102 13.4609 69.3721q11.2168 35.4629 25.4248 66.7832q14.209 31.3213 19.1934 43.7461q3.98828 9.31836 15.9531 40.3809l27.4199 71.4424l34.3984 86.4561l34.3994 86.4561l27.4189 70.9248 l15.9531 39.8623q2.99219 8.2832 6.98047 25.8857q3.98828 17.6016 10.2197 36.7559q6.23145 19.1553 13.71 35.9805q7.47754 16.8252 17.6973 25.3672q10.2207 8.54199 21.9355 4.91797q11.7158 -3.62305 27.1699 -26.9199q0.998047 -1.03516 -9.47168 -33.1328 l-28.915 -84.3848l-40.8799 -118.554l-47.8594 -135.638l-48.8564 -136.155l-43.373 -119.589q-19.4424 -52.2871 -32.6533 -84.6436q-13.2119 -32.3564 -15.2061 -33.3916t-12.9609 4.40039q-10.9688 5.43555 -14.957 10.6133zM194.576 19.4092 q-12.5127 97.3535 6.64746 231.214q19.1602 133.861 57.4805 287.497q38.3203 153.637 91.499 315.893t108.704 314.37l108.704 285.977l89.9346 226.144q21.1152 18.2539 35.583 8.11328q14.4678 -10.1416 22.2881 -31.9443q7.82129 -21.8027 10.167 -48.6768 t-0.782227 -42.085q-7.82031 -20.2822 -22.6787 -65.917l-35.9746 -101.409l-41.4482 -118.65l-40.666 -119.663l-35.1924 -101.41l-22.6787 -65.916l-27.3721 -86.1982l-40.666 -129.805l-39.8838 -129.805q-18.7695 -60.8467 -25.0254 -84.1709 q-9.38477 -35.4932 -23.0703 -108.001l-30.5 -154.65q-16.8135 -82.1426 -36.7559 -159.721t-42.6211 -121.185q-4.69238 -8.11328 -14.0771 -17.7471t-19.9424 -12.6758q-10.5576 -3.04297 -19.5508 2.02734q-8.99316 5.07129 -12.1221 28.3955zM658.716 208.084 q-19.8262 13.0039 -16.4268 28.8682q3.39844 15.8643 16.4268 29.3877l107.062 112.871q53.8145 54.0947 103.947 110.27q50.1318 56.1758 94.0332 116.252t79.0225 130.295q18.6934 37.4512 15.0107 55.1357q-3.68164 17.6846 -20.959 21.8457t-43.9014 -1.04004 t-55.7969 -14.8242t-55.7969 -19.7656t-43.335 -15.6045q-16.7109 -5.46094 -19.8262 -2.08008t16.7109 21.0654q25.4912 27.5674 63.1611 48.1133t76.7559 29.9082q39.0869 9.3623 74.4902 7.28223q35.4043 -2.08105 56.6475 -19.5059q21.2422 -17.4248 23.791 -51.4941 q2.5498 -34.0693 -22.9414 -87.6436q-30.0225 -62.9375 -77.04 -116.512l-95.166 -105.589q-48.7168 -51.4941 -92.6172 -104.288q-43.9014 -52.7949 -71.6582 -114.691q23.2246 -6.24121 70.8086 5.98145q47.583 12.2236 106.495 31.4688l124.057 40.0508 q65.1436 20.8057 123.207 32.5088q58.0625 11.7031 103.097 9.10254t64.8604 -30.6885q2.26562 -3.12012 2.26562 -14.8232q0 -11.7041 -2.26562 -14.8242q-43.0518 6.24121 -102.247 -5.98145q-59.1963 -12.2236 -126.039 -33.0293l-137.651 -44.2119 q-70.2422 -23.4062 -133.97 -38.751q-63.7275 -15.3438 -117.259 -16.9043t-86.9531 21.8457z" />
<glyph unicode="&#xbe;" horiz-adv-x="1685" d="M41.1523 811.579q-2.5957 5.8916 -6.70605 13.2549q-4.11035 7.36426 -5.4082 14.1387q-1.29785 6.77539 0.865234 12.666q2.16309 5.8916 11.249 9.42578q11.6826 4.71289 25.3125 2.35645q13.6289 -2.35645 28.3398 -7.06934l28.5566 -9.42578 q14.2783 -4.71289 27.6914 -2.35645q16.875 2.35645 45.6475 17.9678q28.7734 15.6113 63.1719 40.3545q34.3975 24.7432 71.6074 56.5547q37.2109 31.8115 70.0947 66.2754q32.8828 34.4629 58.1943 69.5146q25.3125 35.0527 37.2109 66.5693 q11.8984 31.5176 6.49023 57.4385q-5.40918 25.9209 -34.3984 41.2383q-19.4697 4.71289 -51.0557 -4.71289t-66.2002 -23.5645l-69.2285 -27.6885q-34.1816 -14.1387 -60.3584 -17.6729q-26.1768 -3.53516 -39.8066 7.95215q-13.6289 11.4883 -6.70605 49.1914 q14.2783 22.9756 38.0752 57.1436q23.7979 34.168 49.542 75.1113t48.46 83.9492q22.7158 43.0049 34.8311 82.4746l-17.3076 -5.89062l-41.1045 -13.5498q-23.7969 -7.6582 -50.8398 -13.8438q-27.042 -6.18555 -46.9453 -6.18555t-29.2061 8.54199t1.94727 30.9277 q1.73047 4.71289 22.2832 21.209q20.5518 16.4941 50.1904 36.5244t63.8203 37.998t63.8203 25.3311q29.6377 7.36426 49.1084 0q19.4707 -7.36328 20.7686 -38.8809t-21.2012 -91.0176t-77.4492 -156.115v-50.6631q86.1025 8.24707 135.212 -11.4873 q49.1094 -19.7354 67.2812 -58.3223q18.1729 -38.5869 8.2207 -90.7236q-9.95117 -52.1357 -40.4551 -106.334t-78.7471 -106.04q-48.2441 -51.8418 -108.17 -90.4287t-127.64 -58.6162q-67.7148 -20.0303 -136.943 -10.0156q-1.73047 1.17871 -6.49023 7.6582 q-4.75879 6.48047 -5.625 8.83691zM489.829 43.6816q-10.8994 98.2559 5.79004 233.357q16.6904 135.102 50.0693 290.162q33.3799 155.06 79.7021 318.819t94.6885 317.285l94.6885 288.626l78.3398 228.24q18.3926 18.4229 30.9951 8.18848 q12.6025 -10.2354 19.415 -32.2402q6.81152 -22.0059 8.85547 -49.1279q2.04395 -27.123 -0.681641 -42.4756q-6.81152 -20.4697 -19.7549 -66.5273l-31.3359 -102.35l-36.1045 -119.749l-35.4229 -120.773l-30.6543 -102.35l-19.7549 -66.5273l-23.8428 -86.998 l-35.4229 -131.008l-34.7422 -131.008q-16.3496 -61.4092 -21.7988 -84.9502q-8.1748 -35.8223 -20.0957 -109.002l-26.5674 -156.084q-14.6465 -82.9033 -32.0176 -161.201q-17.3701 -78.2979 -37.126 -122.308q-4.08691 -8.18848 -12.2617 -17.9111 q-8.1748 -9.72363 -17.3711 -12.7939t-17.0303 2.04688t-10.5586 28.6582zM1173.39 70.416q-8.87695 50.417 6.10254 100.834q14.9805 50.416 34.9531 100.247q19.9736 49.8311 34.1211 99.0752t3.05176 97.3164q-28.2959 4.68945 -63.5264 -4.69043t-74.0664 -24.0361 l-77.6738 -29.3115q-39.3916 -15.2422 -75.1768 -20.5186t-65.7451 3.81055q-29.959 9.08691 -50.4873 41.3301q-18.3086 28.7256 -14.4248 66.5381q3.88379 37.8135 21.082 81.1953q17.1992 43.3818 43.2754 89.1084l53.2617 92.627q27.1855 46.3125 49.9336 88.8154 q22.7471 42.5029 34.3975 78.8496q31.624 8.20703 45.7725 -0.292969q14.1475 -8.50098 16.3662 -26.3809q2.21973 -17.8809 -4.99316 -43.0889q-7.21289 -25.209 -18.0312 -50.417q-10.8184 -25.209 -22.4697 -46.8994l-16.6445 -32.2432 q-5.54785 -11.7256 -21.6377 -42.7959l-33.2881 -65.0732l-32.7334 -64.4863q-16.0898 -30.4854 -21.6377 -42.7959v-33.416q33.8428 -3.51758 71.0156 2.93164q37.1719 6.44824 74.0664 17.8799q36.8955 11.4316 72.126 24.0361l64.6348 22.5703 q68.2422 20.5186 109.021 61.2627q40.7783 40.7432 66.8545 95.2646q26.0762 54.5205 45.4941 119.886q19.418 65.3662 45.4941 136.302q31.624 11.7246 40.2236 -7.91406q8.59961 -19.6396 3.05176 -56.8652q-5.54785 -37.2266 -21.6377 -84.7129l-31.624 -91.4531 l-27.7402 -77.9707q-12.2061 -34.002 -9.98633 -44.5547q22.7471 9.37988 46.0488 0.292969q23.3018 -9.08594 32.1787 -34.2949q-7.76758 -20.5186 -26.3535 -27.5527q-18.5859 -7.03516 -39.6689 -12.6045q-21.082 -5.56934 -41.6104 -13.1904t-32.7334 -29.3125 q-28.2959 -46.8994 -49.3789 -100.247q-21.082 -53.3486 -37.1719 -108.748q-16.0898 -55.4004 -28.8496 -111.68l-25.5215 -109.041q-4.43848 -2.34473 -11.9287 -2.93066q-7.49023 -0.586914 -14.9795 1.17188q-7.49023 1.75879 -13.5928 5.8623 q-6.10352 4.10352 -7.21289 12.3115z" />
<glyph unicode="&#xbf;" horiz-adv-x="1015" d="M91.4736 1858.12q-10.2383 -22.3135 -17.5967 -47.75q-7.35938 -25.4365 -0.320312 -52.2119q11.5186 -49.0889 23.9961 -49.5352q12.4785 -0.446289 21.1162 25.4365q8.63867 25.8838 13.7578 65.1543t3.2002 67.3848q-1.91992 28.1143 -12.4785 31.6846 t-31.6748 -40.1631zM145.225 1078.06q-7.67871 -47.3027 17.2773 -104.87t71.9883 -122.722q47.0312 -65.1533 109.741 -133.877l127.979 -137.448l130.538 -135.662q63.9893 -66.0459 114.541 -126.291q50.5508 -60.2451 79.9863 -110.227 q29.4355 -49.9805 27.5156 -86.5732q-1.91992 -36.5938 -42.5527 -56.6758q-40.6338 -20.0811 -130.858 -20.0811h-433.847q-11.5186 -34.8086 -2.56055 -67.8311q8.95898 -33.0234 39.0342 -33.0234h452.403q26.2363 0 56.9512 14.7266t59.5098 39.2705t51.8311 59.3525 t34.874 74.0791t7.67871 81.2188t-30.3945 83.8965q-48.6318 78.542 -107.502 142.803q-58.8701 64.2617 -122.22 120.49l-128.618 111.564q-64.6289 54.4434 -124.779 115.135q-60.1494 60.6914 -112.621 131.646q-52.4707 70.9551 -90.8643 161.099 q-3.83984 8.92578 -12.1582 16.0654q-8.31836 7.14062 -16.957 9.37207q-8.63867 2.23047 -15.9971 -3.57031q-7.35938 -5.80176 -9.91895 -21.8672z" />
<glyph unicode="&#xc0;" horiz-adv-x="2117" d="M-197 -463q-8 6 -23.5 23.5t-25.5 38.5q-9 17 -8 30q0 21 29 21q41 -53 104 -57h11q59 0 129 30q77 33 163 94.5t168 136t157 154.5t132 150.5t91 124t34 73.5q0 8 -20.5 24.5t-46.5 33.5l-48 31q-23 15 -26 24q8 25 48 39t89 26l98 21q49 10 74 27q133 193 237.5 398.5 t200.5 414.5l194 417q97 209 216 408q21 35 36 35q9 0 15 -11q18 -32 27 -122q7 -80 7 -195v-30q-1 -134 -7.5 -284.5t-15.5 -303.5l-17 -283l-14 -219q-4 -64 -3 -94v-19q8 -127 12.5 -220t25 -173t69.5 -153.5t147 -159.5q-39 -12 -71 -13q-37 0 -65 17q-52 31 -86 95.5 t-55 146.5l-41 162q-19 79 -43 138.5t-63 75.5q-4 0 -14 1t-24.5 1t-26.5 -1t-19 -1q-23 -4 -84 -19l-134 -33q-73 -17 -138 -35l-96 -25q-61 -16 -131 -80t-145.5 -152l-156.5 -192l-166 -205q-85 -100 -173 -186t-176 -137.5t-177 -58.5q-10 -1 -19 -1q-79 0 -155 51z M1159 639q6 -2 27.5 -2t27.5 2q43 6 111 14.5t130 17.5l109 16l46 7l57 58l2 31q2 32 5 84.5t6 116.5l7 130q3 66 5 126t4 106v309q-8 5 -16 4q-9 0 -18 -6q-15 -12 -24 -27l-479 -958v-29zM1772 2384q-35 59 -86 108.5l-97 98.5t-73 105.5t-12 129.5q41 2 86 -25.5 t90 -71.5t84 -100.5t68.5 -109.5t45 -98t11.5 -68.5t-32 -18.5t-85 50z" />
<glyph unicode="&#xc1;" horiz-adv-x="2117" d="M-197 -463q-8 6 -23.5 23.5t-25.5 38.5q-9 17 -8 30q0 21 29 21q41 -53 104 -57h11q59 0 129 30q77 33 163 94.5t168 136t157 154.5t132 150.5t91 124t34 73.5q0 8 -20.5 24.5t-46.5 33.5l-48 31q-23 15 -26 24q8 25 48 39t89 26l98 21q49 10 74 27q133 193 237.5 398.5 t200.5 414.5l194 417q97 209 216 408q21 35 36 35q9 0 15 -11q18 -32 27 -122q7 -80 7 -195v-30q-1 -134 -7.5 -284.5t-15.5 -303.5l-17 -283l-14 -219q-4 -64 -3 -94v-19q8 -127 12.5 -220t25 -173t69.5 -153.5t147 -159.5q-39 -12 -71 -13q-37 0 -65 17q-52 31 -86 95.5 t-55 146.5l-41 162q-19 79 -43 138.5t-63 75.5q-4 0 -14 1t-24.5 1t-26.5 -1t-19 -1q-23 -4 -84 -19l-134 -33q-73 -17 -138 -35l-96 -25q-61 -16 -131 -80t-145.5 -152l-156.5 -192l-166 -205q-85 -100 -173 -186t-176 -137.5t-177 -58.5q-10 -1 -19 -1q-79 0 -155 51z M1159 639q6 -2 27.5 -2t27.5 2q43 6 111 14.5t130 17.5l109 16l46 7l57 58l2 31q2 32 5 84.5t6 116.5l7 130q3 66 5 126t4 106v309q-8 5 -16 4q-9 0 -18 -6q-15 -12 -24 -27l-479 -958v-29zM1589 2394q-63 -45 -93 -50t-35 18.5t11.5 68.5t49 98.5t75.5 108.5t92 100 t99.5 72t95.5 25q16 -74 -13.5 -129.5t-79.5 -104.5t-107.5 -98.5t-94.5 -108.5z" />
<glyph unicode="&#xc2;" horiz-adv-x="2117" d="M-197 -463q-8 6 -23.5 23.5t-25.5 38.5q-9 17 -8 30q0 21 29 21q41 -53 104 -57h11q59 0 129 30q77 33 163 94.5t168 136t157 154.5t132 150.5t91 124t34 73.5q0 8 -20.5 24.5t-46.5 33.5l-48 31q-23 15 -26 24q8 25 48 39t89 26l98 21q49 10 74 27q133 193 237.5 398.5 t200.5 414.5l194 417q97 209 216 408q21 35 36 35q9 0 15 -11q18 -32 27 -122q7 -80 7 -195v-30q-1 -134 -7.5 -284.5t-15.5 -303.5l-17 -283l-14 -219q-4 -64 -3 -94v-19q8 -127 12.5 -220t25 -173t69.5 -153.5t147 -159.5q-39 -12 -71 -13q-37 0 -65 17q-52 31 -86 95.5 t-55 146.5l-41 162q-19 79 -43 138.5t-63 75.5q-4 0 -14 1t-24.5 1t-26.5 -1t-19 -1q-23 -4 -84 -19l-134 -33q-73 -17 -138 -35l-96 -25q-61 -16 -131 -80t-145.5 -152l-156.5 -192l-166 -205q-85 -100 -173 -186t-176 -137.5t-177 -58.5q-10 -1 -19 -1q-79 0 -155 51z M1159 639q6 -2 27.5 -2t27.5 2q43 6 111 14.5t130 17.5l109 16l46 7l57 58l2 31q2 32 5 84.5t6 116.5l7 130q3 66 5 126t4 106v309q-8 5 -16 4q-9 0 -18 -6q-15 -12 -24 -27l-479 -958v-29zM1986 2327q-4 4 -12 39l-21 83l-26 100q-14 52 -28.5 95t-29 66.5t-24.5 11.5 q-6 -10 -22 -48l-36 -85q-20 -47 -46.5 -97.5t-55.5 -88t-60.5 -53t-62.5 4.5q-12 8 -25.5 22.5t-3.5 33.5l40 78l60 119l60 119q29 56 39 79q55 119 102.5 150.5t84 5t64.5 -97t45 -157.5t23.5 -175.5t1.5 -149.5t-21.5 -82.5t-45.5 27.5z" />
<glyph unicode="&#xc3;" horiz-adv-x="2117" d="M-197 -463q-8 6 -23.5 23.5t-25.5 38.5q-9 17 -8 30q0 21 29 21q41 -53 104 -57h11q59 0 129 30q77 33 163 94.5t168 136t157 154.5t132 150.5t91 124t34 73.5q0 8 -20.5 24.5t-46.5 33.5l-48 31q-23 15 -26 24q8 25 48 39t89 26l98 21q49 10 74 27q133 193 237.5 398.5 t200.5 414.5l194 417q97 209 216 408q21 35 36 35q9 0 15 -11q18 -32 27 -122q7 -80 7 -195v-30q-1 -134 -7.5 -284.5t-15.5 -303.5l-17 -283l-14 -219q-4 -64 -3 -94v-19q8 -127 12.5 -220t25 -173t69.5 -153.5t147 -159.5q-39 -12 -71 -13q-37 0 -65 17q-52 31 -86 95.5 t-55 146.5l-41 162q-19 79 -43 138.5t-63 75.5q-4 0 -14 1t-24.5 1t-26.5 -1t-19 -1q-23 -4 -84 -19l-134 -33q-73 -17 -138 -35l-96 -25q-61 -16 -131 -80t-145.5 -152l-156.5 -192l-166 -205q-85 -100 -173 -186t-176 -137.5t-177 -58.5q-10 -1 -19 -1q-79 0 -155 51z M1159 639q6 -2 27.5 -2t27.5 2q43 6 111 14.5t130 17.5l109 16l46 7l57 58l2 31q2 32 5 84.5t6 116.5l7 130q3 66 5 126t4 106v309q-8 5 -16 4q-9 0 -18 -6q-15 -12 -24 -27l-479 -958v-29zM1628 2419q-49 31 -78.5 79t-47 101t-28 102.5t-22.5 81t-30.5 36.5t-52.5 -28.5 t-87 -116.5t-135 -226q-45 -14 -56.5 19.5t3 94t48 134t79 137t98.5 104.5t104 37t97.5 -66.5t78.5 -206.5q25 -106 66 -147t94 -38t116.5 40t130.5 85l136 97q70 49 135 76q14 -23 -14.5 -70t-84.5 -100t-131 -106.5t-151.5 -89t-147.5 -47t-120 17.5z" />
<glyph unicode="&#xc4;" horiz-adv-x="2117" d="M-197 -463q-8 6 -23.5 23.5t-25.5 38.5q-9 17 -8 30q0 21 29 21q41 -53 104 -57h11q59 0 129 30q77 33 163 94.5t168 136t157 154.5t132 150.5t91 124t34 73.5q0 8 -20.5 24.5t-46.5 33.5l-48 31q-23 15 -26 24q8 25 48 39t89 26l98 21q49 10 74 27q133 193 237.5 398.5 t200.5 414.5l194 417q97 209 216 408q21 35 36 35q9 0 15 -11q18 -32 27 -122q7 -80 7 -195v-30q-1 -134 -7.5 -284.5t-15.5 -303.5l-17 -283l-14 -219q-4 -64 -3 -94v-19q8 -127 12.5 -220t25 -173t69.5 -153.5t147 -159.5q-39 -12 -71 -13q-37 0 -65 17q-52 31 -86 95.5 t-55 146.5l-41 162q-19 79 -43 138.5t-63 75.5q-4 0 -14 1t-24.5 1t-26.5 -1t-19 -1q-23 -4 -84 -19l-134 -33q-73 -17 -138 -35l-96 -25q-61 -16 -131 -80t-145.5 -152l-156.5 -192l-166 -205q-85 -100 -173 -186t-176 -137.5t-177 -58.5q-10 -1 -19 -1q-79 0 -155 51z M1159 639q6 -2 27.5 -2t27.5 2q43 6 111 14.5t130 17.5l109 16l46 7l57 58l2 31q2 32 5 84.5t6 116.5l7 130q3 66 5 126t4 106v309q-8 5 -16 4q-9 0 -18 -6q-15 -12 -24 -27l-479 -958v-29zM1476 2435q-37 53 -19.5 105.5t56.5 82t87.5 23.5t72.5 -70q14 -39 -5 -80 t-53 -66.5t-74 -28.5t-65 34zM1835 2447q-37 53 -19.5 105.5t56.5 82t87 23.5t72 -69q14 -39 -5 -80t-53 -66.5t-73.5 -29t-64.5 33.5z" />
<glyph unicode="&#xc5;" horiz-adv-x="2117" d="M-197 -463q-8 6 -23.5 23.5t-25.5 38.5q-9 17 -8 30q0 21 29 21q41 -53 104 -57h11q59 0 129 30q77 33 163 94.5t168 136t157 154.5t132 150.5t91 124t34 73.5q0 8 -20.5 24.5t-46.5 33.5l-48 31q-23 15 -26 24q8 25 48 39t89 26l98 21q49 10 74 27q133 193 237.5 398.5 t200.5 414.5l194 417q97 209 216 408q21 35 36 35q9 0 15 -11q18 -32 27 -122q7 -80 7 -195v-30q-1 -134 -7.5 -284.5t-15.5 -303.5l-17 -283l-14 -219q-4 -64 -3 -94v-19q8 -127 12.5 -220t25 -173t69.5 -153.5t147 -159.5q-39 -12 -71 -13q-37 0 -65 17q-52 31 -86 95.5 t-55 146.5l-41 162q-19 79 -43 138.5t-63 75.5q-4 0 -14 1t-24.5 1t-26.5 -1t-19 -1q-23 -4 -84 -19l-134 -33q-73 -17 -138 -35l-96 -25q-61 -16 -131 -80t-145.5 -152l-156.5 -192l-166 -205q-85 -100 -173 -186t-176 -137.5t-177 -58.5q-10 -1 -19 -1q-79 0 -155 51z M1159 639q6 -2 27.5 -2t27.5 2q43 6 111 14.5t130 17.5l109 16l46 7l57 58l2 31q2 32 5 84.5t6 116.5l7 130q3 66 5 126t4 106v309q-8 5 -16 4q-9 0 -18 -6q-15 -12 -24 -27l-479 -958v-29zM1589 2212q-63 25 -78.5 75t1 110.5t57 123.5t90 117.5t100.5 90.5t88 40 q125 14 179 -30t55.5 -117.5t-43 -158.5t-115 -153t-158.5 -99.5t-176 1.5zM1571 2294q12 -47 52 -51.5t92 19t109.5 70t105.5 99.5t79 107.5t29.5 95.5t-41 61.5t-134.5 7.5l-88 -73q-55 -45 -106 -99.5t-82.5 -116t-15.5 -120.5z" />
<glyph unicode="&#xc6;" horiz-adv-x="3981" d="M-449 -113q-6 6 -17 28t-17 43.5t-2 36.5t30 9q29 -61 91.5 -76.5t144.5 3t177 61.5t191.5 101.5t185.5 122t157.5 121.5t112.5 104t48 67q2 8 -15 27.5t-39 41.5l-41 40q-19 19 -21 28q12 20 53 27.5t92 8.5l100 2q49 1 78 13q168 162 299 322l254 319l252 321 q129 161 289 329q76 80 111.5 69.5t40.5 -82t-13 -194.5t-51 -269.5t-74 -304.5l-80 -301l-69 -258q-31 -115 -43 -176q-23 -111 -60 -232.5t-78 -240.5l-78 -229q-38 -111 -62.5 -199t-30 -148.5t21.5 -78.5q-66 -8 -93.5 30.5t-30.5 108t14.5 163t41 193t50 198.5t43 182 t17.5 140.5t-26 75.5q-4 0 -14 3t-24.5 5t-27 5.5t-18.5 3.5q-23 0 -76 20l-119 46q-65 26 -124.5 45.5t-89.5 17.5q-63 -4 -143.5 -52.5t-172.5 -120.5l-192 -160l-203 -169q-102 -82 -204.5 -149.5t-199 -100.5t-184.5 -24t-162 83zM1096 709q4 -4 25.5 -8.5t27.5 -2.5 q43 -4 102.5 -32.5t112.5 -60.5t91 -57l38 -26l68 45l8 32l20 81l28 113l31 127l29 122l25 103q2 16 11 59l19 91l17 93q8 44 12 60q-16 12 -33.5 3t-27.5 -21l-600 -695zM1374 -242q-10 14 8 29q25 90 52.5 172t58.5 164l65 165l70 175q12 25 -5 48.5t-37.5 48t-31 49 t18.5 53.5q2 2 19.5 6t37 8t35.5 8t21 6q8 4 29.5 25.5t25.5 29.5l81 145q42 77 79.5 157.5t70.5 161.5t51 159q6 20 -3 30.5t-25.5 15.5t-34.5 9t-32.5 13.5t-20.5 26t4 46.5q8 23 66.5 51.5t150.5 60.5t212 63.5t251 60.5t265 52.5t257 37.5t224.5 18.5t167 -7t88 -38 t-14.5 -73.5q-23 -6 -46.5 -1t-49 12t-52 13t-51.5 4q-240 -23 -469 -79l-463 -119q-63 -16 -127.5 -61.5t-124 -107t-111.5 -135t-90 -149.5t-60.5 -148.5t-22.5 -132.5v-86q29 -6 104.5 11.5t173.5 43.5l208 52q110 27 207 38t170 0t97 -59q2 -4 2 -14t-2 -14 q-133 -20 -273 -35.5t-279.5 -40.5t-271.5 -65.5t-249 -112.5q-96 -166 -171 -344t-134 -363q72 27 168 51.5t185 44t155.5 32t79.5 14.5q106 16 207.5 29.5t202 21.5t201.5 10t208 -4q16 -4 23.5 -20.5t9.5 -35t0 -35t-4 -24.5q-274 14 -540.5 -20.5t-535.5 -91.5 q-43 -10 -103 -34t-123.5 -44.5t-124 -27.5t-99.5 20q-10 4 -17.5 11t-11.5 19z" />
<glyph unicode="&#xc7;" horiz-adv-x="1581" d="M268 29q-121 49 -180 134t-68 196q-2 21 -1 44q0 93 28 199q35 131 100.5 272.5t154.5 286t188.5 281.5t204 262t199.5 225.5t176 172t132 102.5q90 53 150.5 53t96.5 -37t49 -100q12 -59 12 -125q0 -76 -14 -154q-13 -72 -33.5 -124t-45 -76.5t-47.5 -2.5q-2 20 5 61.5 t18.5 93.5t21.5 106.5t15 101.5q2 19 1 35q0 25 -4 44q-6 32 -28 38q-20 5 -42 5q-57 0 -125 -35q-95 -48 -201.5 -144.5t-217.5 -229.5t-215 -285.5t-195.5 -313.5t-157 -313.5t-99.5 -285.5q-25 -100 -25 -179q0 -26 3 -50q11 -96 73 -145q44 -35 122 -34q30 0 64 5 q94 12 179 55t164 100.5t155 124.5l150 133q75 66 152 121t158 88q16 6 30 6q25 0 43 -19q18 -20 18 -45q0 -13 -5 -28q-14 -43 -88.5 -111.5t-183 -146.5t-238 -152.5t-253 -130t-229.5 -79.5q-53 -12 -94.5 -12t-72.5 12zM545 -319q-12 35 24.5 48t87 20.5t100.5 18.5 t67 42q14 31 3.5 46t-34 21.5t-55 9.5t-59 10t-45 23.5t-13.5 49.5q-10 55 -7 102t14 66.5t29.5 1t41.5 -94.5q10 -31 37.5 -48t62.5 -28.5t70.5 -18.5t62.5 -19.5t37 -34t-4 -58.5q-4 -20 -47 -63t-103.5 -80t-126 -54.5t-114.5 11.5q-6 2 -16.5 13.5t-12.5 15.5z" />
<glyph unicode="&#xc8;" horiz-adv-x="1863" d="M43 57q-4 5 -4 11q0 9 12 18q25 90 52.5 172t58.5 164l64 165l71 175q12 25 -5.5 48.5t-38 48t-30.5 49t19 53.5q2 2 19.5 6l36.5 8t35.5 8t20.5 6q8 4 30 25.5t26 29.5l80 145q42 77 80 157.5t71 161.5t51 159q6 20 -3 30.5t-25.5 15.5t-35 9t-32.5 13.5t-20.5 26 t4.5 46.5q8 23 66.5 51.5t150.5 60.5t211.5 63.5t251 60.5t265.5 52.5t257 37.5t224 18l52 2q67 0 115 -9q66 -11 88 -38q9 -10 9 -23q0 -21 -23 -50q-23 -6 -46.5 -1t-49 12t-52 13t-51.5 4q-240 -23 -469 -79l-463 -119q-63 -16 -127.5 -61.5t-124 -107t-112 -135 t-90 -149.5t-60 -148.5t-22.5 -132.5v-86q7 -2 18 -1q30 0 86 13q76 17 174 43l208 52q110 27 207 38q49 6 91 5.5t79 -5.5q73 -11 97 -59q2 -4 2 -14t-2 -14q-133 -20 -273.5 -35.5t-279.5 -40.5t-271 -65.5t-249 -112.5q-96 -166 -171 -344t-134 -363q72 27 168 51.5 t185 44t155.5 32t79.5 14.5q106 16 207.5 29.5t202 21.5t201.5 10q25 1 51 1q77 0 157 -5q16 -4 23 -20.5t9.5 -35t0 -35t-4.5 -24.5q-80 4 -159 4q-193 0 -381 -24q-266 -35 -535 -92q-43 -10 -103.5 -34t-124 -44.5t-123.5 -27.5q-13 -2 -25 -1q-44 0 -74 21 q-10 4 -17.5 11t-11.5 19zM1008 2126q-35 59 -86 108.5l-97 98.5t-73 105.5t-12 129.5q41 2 86 -25.5t90 -71.5t84 -100.5t68.5 -109.5t45 -98t11.5 -68.5t-32 -18.5t-85 50z" />
<glyph unicode="&#xc9;" horiz-adv-x="1863" d="M43 57q-4 5 -4 11q0 9 12 18q25 90 52.5 172t58.5 164l64 165l71 175q12 25 -5.5 48.5t-38 48t-30.5 49t19 53.5q2 2 19.5 6l36.5 8t35.5 8t20.5 6q8 4 30 25.5t26 29.5l80 145q42 77 80 157.5t71 161.5t51 159q6 20 -3 30.5t-25.5 15.5t-35 9t-32.5 13.5t-20.5 26 t4.5 46.5q8 23 66.5 51.5t150.5 60.5t211.5 63.5t251 60.5t265.5 52.5t257 37.5t224 18l52 2q67 0 115 -9q66 -11 88 -38q9 -10 9 -23q0 -21 -23 -50q-23 -6 -46.5 -1t-49 12t-52 13t-51.5 4q-240 -23 -469 -79l-463 -119q-63 -16 -127.5 -61.5t-124 -107t-112 -135 t-90 -149.5t-60 -148.5t-22.5 -132.5v-86q7 -2 18 -1q30 0 86 13q76 17 174 43l208 52q110 27 207 38q49 6 91 5.5t79 -5.5q73 -11 97 -59q2 -4 2 -14t-2 -14q-133 -20 -273.5 -35.5t-279.5 -40.5t-271 -65.5t-249 -112.5q-96 -166 -171 -344t-134 -363q72 27 168 51.5 t185 44t155.5 32t79.5 14.5q106 16 207.5 29.5t202 21.5t201.5 10q25 1 51 1q77 0 157 -5q16 -4 23 -20.5t9.5 -35t0 -35t-4.5 -24.5q-80 4 -159 4q-193 0 -381 -24q-266 -35 -535 -92q-43 -10 -103.5 -34t-124 -44.5t-123.5 -27.5q-13 -2 -25 -1q-44 0 -74 21 q-10 4 -17.5 11t-11.5 19zM1034 2081q-63 -45 -93 -50t-35 18.5t11.5 68.5t49 98.5t75.5 108.5t92 100t99.5 72t95.5 25q16 -74 -13.5 -129.5t-79.5 -104.5t-107.5 -98.5t-94.5 -108.5z" />
<glyph unicode="&#xca;" horiz-adv-x="1863" d="M43 57q-4 5 -4 11q0 9 12 18q25 90 52.5 172t58.5 164l64 165l71 175q12 25 -5.5 48.5t-38 48t-30.5 49t19 53.5q2 2 19.5 6l36.5 8t35.5 8t20.5 6q8 4 30 25.5t26 29.5l80 145q42 77 80 157.5t71 161.5t51 159q6 20 -3 30.5t-25.5 15.5t-35 9t-32.5 13.5t-20.5 26 t4.5 46.5q8 23 66.5 51.5t150.5 60.5t211.5 63.5t251 60.5t265.5 52.5t257 37.5t224 18l52 2q67 0 115 -9q66 -11 88 -38q9 -10 9 -23q0 -21 -23 -50q-23 -6 -46.5 -1t-49 12t-52 13t-51.5 4q-240 -23 -469 -79l-463 -119q-63 -16 -127.5 -61.5t-124 -107t-112 -135 t-90 -149.5t-60 -148.5t-22.5 -132.5v-86q7 -2 18 -1q30 0 86 13q76 17 174 43l208 52q110 27 207 38q49 6 91 5.5t79 -5.5q73 -11 97 -59q2 -4 2 -14t-2 -14q-133 -20 -273.5 -35.5t-279.5 -40.5t-271 -65.5t-249 -112.5q-96 -166 -171 -344t-134 -363q72 27 168 51.5 t185 44t155.5 32t79.5 14.5q106 16 207.5 29.5t202 21.5t201.5 10q25 1 51 1q77 0 157 -5q16 -4 23 -20.5t9.5 -35t0 -35t-4.5 -24.5q-80 4 -159 4q-193 0 -381 -24q-266 -35 -535 -92q-43 -10 -103.5 -34t-124 -44.5t-123.5 -27.5q-13 -2 -25 -1q-44 0 -74 21 q-10 4 -17.5 11t-11.5 19zM1245 2181q-4 4 -12 39l-21 83l-26 100q-14 52 -28.5 95t-29 66.5t-24.5 11.5q-6 -10 -22 -48l-36 -85q-20 -47 -46.5 -97.5t-55.5 -88t-60.5 -53t-62.5 4.5q-12 8 -25.5 22.5t-3.5 33.5l40 78l60 119l60 119q29 56 39 79q55 119 102.5 150.5t84 5 t64.5 -97t45 -157.5t23.5 -175.5t1.5 -149.5t-21.5 -82.5t-45.5 27.5z" />
<glyph unicode="&#xcb;" horiz-adv-x="1863" d="M43 57q-4 5 -4 11q0 9 12 18q25 90 52.5 172t58.5 164l64 165l71 175q12 25 -5.5 48.5t-38 48t-30.5 49t19 53.5q2 2 19.5 6l36.5 8t35.5 8t20.5 6q8 4 30 25.5t26 29.5l80 145q42 77 80 157.5t71 161.5t51 159q6 20 -3 30.5t-25.5 15.5t-35 9t-32.5 13.5t-20.5 26 t4.5 46.5q8 23 66.5 51.5t150.5 60.5t211.5 63.5t251 60.5t265.5 52.5t257 37.5t224 18l52 2q67 0 115 -9q66 -11 88 -38q9 -10 9 -23q0 -21 -23 -50q-23 -6 -46.5 -1t-49 12t-52 13t-51.5 4q-240 -23 -469 -79l-463 -119q-63 -16 -127.5 -61.5t-124 -107t-112 -135 t-90 -149.5t-60 -148.5t-22.5 -132.5v-86q7 -2 18 -1q30 0 86 13q76 17 174 43l208 52q110 27 207 38q49 6 91 5.5t79 -5.5q73 -11 97 -59q2 -4 2 -14t-2 -14q-133 -20 -273.5 -35.5t-279.5 -40.5t-271 -65.5t-249 -112.5q-96 -166 -171 -344t-134 -363q72 27 168 51.5 t185 44t155.5 32t79.5 14.5q106 16 207.5 29.5t202 21.5t201.5 10q25 1 51 1q77 0 157 -5q16 -4 23 -20.5t9.5 -35t0 -35t-4.5 -24.5q-80 4 -159 4q-193 0 -381 -24q-266 -35 -535 -92q-43 -10 -103.5 -34t-124 -44.5t-123.5 -27.5q-13 -2 -25 -1q-44 0 -74 21 q-10 4 -17.5 11t-11.5 19zM921 2206q-37 53 -19.5 105.5t56.5 82t87.5 23.5t72.5 -70q14 -39 -5 -80t-53 -66.5t-74 -28.5t-65 34zM1280 2218q-37 53 -19.5 105.5t56.5 82t87 23.5t72 -69q14 -39 -5 -80t-53 -66.5t-73.5 -29t-64.5 33.5z" />
<glyph unicode="&#xcc;" horiz-adv-x="550" d="M29 84q-2 9 -3 24q0 11 2 24q3 32 9 64.5t12 57.5t8 29l566 1468q10 31 21 35q3 1 5 1q8 0 15 -10q8 -13 14 -38t9 -55q2 -18 2 -34q0 -11 -1 -23q-2 -28 -10 -46l-161 -380l-156 -385q-75 -194 -139 -390.5t-109 -396.5q-16 -11 -29 -11h-4q-14 2 -24.5 12.5t-17.5 26 t-9 27.5zM539 1929q-35 59 -86 108.5l-97 98.5t-73 105.5t-12 129.5q41 2 86 -25.5t90 -71.5t84 -100.5t68.5 -109.5t45 -98t11.5 -68.5t-32 -18.5t-85 50z" />
<glyph unicode="&#xcd;" horiz-adv-x="550" d="M29 84q-2 9 -3 24q0 11 2 24q3 32 9 64.5t12 57.5t8 29l566 1468q10 31 21 35q3 1 5 1q8 0 15 -10q8 -13 14 -38t9 -55q2 -18 2 -34q0 -11 -1 -23q-2 -28 -10 -46l-161 -380l-156 -385q-75 -194 -139 -390.5t-109 -396.5q-16 -11 -29 -11h-4q-14 2 -24.5 12.5t-17.5 26 t-9 27.5zM440 1861q-63 -45 -93 -50t-35 18.5t11.5 68.5t49 98.5t75.5 108.5t92 100t99.5 72t95.5 25q16 -74 -13.5 -129.5t-79.5 -104.5t-107.5 -98.5t-94.5 -108.5z" />
<glyph unicode="&#xce;" horiz-adv-x="550" d="M29 84q-2 9 -3 24q0 11 2 24q3 32 9 64.5t12 57.5t8 29l566 1468q10 31 21 35q3 1 5 1q8 0 15 -10q8 -13 14 -38t9 -55q2 -18 2 -34q0 -11 -1 -23q-2 -28 -10 -46l-161 -380l-156 -385q-75 -194 -139 -390.5t-109 -396.5q-16 -11 -29 -11h-4q-14 2 -24.5 12.5t-17.5 26 t-9 27.5zM807 1743q-4 4 -12 39l-21 83l-26 100q-14 52 -28.5 95t-29 66.5t-24.5 11.5q-6 -10 -22 -48l-36 -85q-20 -47 -46.5 -97.5t-55.5 -88t-60.5 -53t-62.5 4.5q-12 8 -25.5 22.5t-3.5 33.5l40 78l60 119l60 119q29 56 39 79q55 119 102.5 150.5t84 5t64.5 -97 t45 -157.5t23.5 -175.5t1.5 -149.5t-21.5 -82.5t-45.5 27.5z" />
<glyph unicode="&#xcf;" horiz-adv-x="550" d="M29 84q-2 9 -3 24q0 11 2 24q3 32 9 64.5t12 57.5t8 29l566 1468q10 31 21 35q3 1 5 1q8 0 15 -10q8 -13 14 -38t9 -55q2 -18 2 -34q0 -11 -1 -23q-2 -28 -10 -46l-161 -380l-156 -385q-75 -194 -139 -390.5t-109 -396.5q-16 -11 -29 -11h-4q-14 2 -24.5 12.5t-17.5 26 t-9 27.5zM360 1966q-37 53 -19.5 105.5t56.5 82t87.5 23.5t72.5 -70q14 -39 -5 -80t-53 -66.5t-74 -28.5t-65 34zM719 1978q-37 53 -19.5 105.5t56.5 82t87 23.5t72 -69q14 -39 -5 -80t-53 -66.5t-73.5 -29t-64.5 33.5z" />
<glyph unicode="&#xd0;" horiz-adv-x="2058" d="M57 29q-12 37 5.5 66.5t52.5 45.5l310 151l307 148q153 76 302.5 161t294.5 190q285 203 464 382t271.5 329.5t106.5 273t-28 215t-132 152t-207.5 85t-255 15t-273.5 -57.5t-261 -134t-221 -214q-2 -4 -7.5 -16.5t-9.5 -26.5l-8 -28q-4 -13 -4 -15l-150 -362 q-76 -180 -145.5 -362.5t-131 -368t-110.5 -375.5q-45 -14 -64.5 3t-20.5 53t9.5 83t26 93t29.5 83t20 51l43 119l65 179l76 211l75 211l65 179l43 119q-23 74 -8.5 130t50.5 102.5t85 86.5l98 76q113 86 225.5 139.5t230.5 81t241.5 34.5t263.5 -1q104 -6 198.5 -56 t169.5 -114q121 -100 139.5 -228t-40 -271.5t-181 -297t-283.5 -305t-348.5 -296t-375 -269.5t-363.5 -224t-313 -160.5t-225.5 -81t-100.5 15.5zM-12 1130q-33 33 3 63t114.5 54.5t189.5 43t227.5 27.5t229 8t195.5 -16.5t125 -46t18 -77.5q-25 0 -89.5 -4l-137 -8.5 l-137 -8.5t-89.5 -6q-61 -6 -152.5 -29.5t-185.5 -40t-178 -12.5t-133 53z" />
<glyph unicode="&#xd1;" horiz-adv-x="2074" d="M29 57q16 80 60 173.5t96 186.5l103 176q50 83 81 142l395 791h197l57 -58q12 -10 19 -61t13.5 -123t10.5 -154.5t10 -160.5t13.5 -141.5t17.5 -92.5q43 -121 101.5 -232.5t123.5 -219.5q6 -3 14 -4q28 0 71 49q54 61 122 174.5t144 265.5l154 316l150 329l136 303 l106 240q45 100 64 135q18 32 35 32h1q18 -1 32 -19.5t20 -47.5q3 -12 2 -23q0 -15 -4 -28q-80 -219 -177.5 -442.5t-204.5 -444.5l-219 -439l-219 -425q-39 -49 -77.5 -76.5t-76.5 -31.5h-8q-34 0 -70 23q-40 26 -79 85q-82 145 -130 274t-81 256t-59.5 259.5t-67.5 283.5 q-16 10 -51 -25.5t-81 -103.5t-99 -160l-109 -193l-109 -204l-100 -190l-78 -156q-34 -68 -51 -96l-31 -57l-38 -65l-32 -54l-13 -23h-84q-2 6 -2 27.5t2 29.5zM1282 1708q-49 31 -78.5 79t-47 101t-28 102.5t-22.5 81t-30.5 36.5t-52.5 -28.5t-87 -116.5t-135 -226 q-45 -14 -56.5 19.5t3 94t48 134t79 137t98.5 104.5t104 37t97.5 -66.5t78.5 -206.5q25 -106 66 -147t94 -38t116.5 40t130.5 85l136 97q70 49 135 76q14 -23 -14.5 -70t-84.5 -100t-131 -106.5t-151.5 -89t-147.5 -47t-120 17.5z" />
<glyph unicode="&#xd2;" horiz-adv-x="1318" d="M242 29q-125 53 -165 146q-31 71 -31 152q0 25 3 50q12 109 61.5 218.5t102.5 195.5l38 59l58 91l70 106l71 105l60 89q27 39 41 57q29 193 119 305.5t203 155.5q73 28 150 28q42 0 85 -8q121 -24 210 -108t129 -223q19 -65 19 -142q0 -86 -24 -185 q-45 -187 -195.5 -419.5t-441.5 -502.5q-51 -47 -120 -91.5t-143.5 -72t-152.5 -32.5q-11 -1 -22 -1q-65 1 -125 27zM156 225q25 -113 94 -140q29 -12 63 -12q46 0 102 22q95 38 207.5 128t224 211t215 263.5t179.5 282.5t116 268q30 96 30 173q0 25 -4 48q-13 93 -90 141 q-55 34 -151 34q-38 0 -81 -6l-151 -146q-95 -95 -203.5 -218t-216 -264.5t-189.5 -281.5t-125 -270q-28 -85 -28 -159q0 -39 8 -74zM995 1948q-35 59 -86 108.5l-97 98.5t-73 105.5t-12 129.5q41 2 86 -25.5t90 -71.5t84 -100.5t68.5 -109.5t45 -98t11.5 -68.5t-32 -18.5 t-85 50z" />
<glyph unicode="&#xd3;" horiz-adv-x="1318" d="M242 29q-125 53 -165 146q-31 71 -31 152q0 25 3 50q12 109 61.5 218.5t102.5 195.5l38 59l58 91l70 106l71 105l60 89q27 39 41 57q29 193 119 305.5t203 155.5q73 28 150 28q42 0 85 -8q121 -24 210 -108t129 -223q19 -65 19 -142q0 -86 -24 -185 q-45 -187 -195.5 -419.5t-441.5 -502.5q-51 -47 -120 -91.5t-143.5 -72t-152.5 -32.5q-11 -1 -22 -1q-65 1 -125 27zM156 225q25 -113 94 -140q29 -12 63 -12q46 0 102 22q95 38 207.5 128t224 211t215 263.5t179.5 282.5t116 268q30 96 30 173q0 25 -4 48q-13 93 -90 141 q-55 34 -151 34q-38 0 -81 -6l-151 -146q-95 -95 -203.5 -218t-216 -264.5t-189.5 -281.5t-125 -270q-28 -85 -28 -159q0 -39 8 -74zM877 1839q-63 -45 -93 -50t-35 18.5t11.5 68.5t49 98.5t75.5 108.5t92 100t99.5 72t95.5 25q16 -74 -13.5 -129.5t-79.5 -104.5 t-107.5 -98.5t-94.5 -108.5z" />
<glyph unicode="&#xd4;" horiz-adv-x="1318" d="M242 29q-125 53 -165 146q-31 71 -31 152q0 25 3 50q12 109 61.5 218.5t102.5 195.5l38 59l58 91l70 106l71 105l60 89q27 39 41 57q29 193 119 305.5t203 155.5q73 28 150 28q42 0 85 -8q121 -24 210 -108t129 -223q19 -65 19 -142q0 -86 -24 -185 q-45 -187 -195.5 -419.5t-441.5 -502.5q-51 -47 -120 -91.5t-143.5 -72t-152.5 -32.5q-11 -1 -22 -1q-65 1 -125 27zM156 225q25 -113 94 -140q29 -12 63 -12q46 0 102 22q95 38 207.5 128t224 211t215 263.5t179.5 282.5t116 268q30 96 30 173q0 25 -4 48q-13 93 -90 141 q-55 34 -151 34q-38 0 -81 -6l-151 -146q-95 -95 -203.5 -218t-216 -264.5t-189.5 -281.5t-125 -270q-28 -85 -28 -159q0 -39 8 -74zM1180 1889q-4 4 -12 39l-21 83l-26 100q-14 52 -28.5 95t-29 66.5t-24.5 11.5q-6 -10 -22 -48l-36 -85q-20 -47 -46.5 -97.5t-55.5 -88 t-60.5 -53t-62.5 4.5q-12 8 -25.5 22.5t-3.5 33.5l40 78l60 119l60 119q29 56 39 79q55 119 102.5 150.5t84 5t64.5 -97t45 -157.5t23.5 -175.5t1.5 -149.5t-21.5 -82.5t-45.5 27.5z" />
<glyph unicode="&#xd5;" horiz-adv-x="1318" d="M242 29q-125 53 -165 146q-31 71 -31 152q0 25 3 50q12 109 61.5 218.5t102.5 195.5l38 59l58 91l70 106l71 105l60 89q27 39 41 57q29 193 119 305.5t203 155.5q73 28 150 28q42 0 85 -8q121 -24 210 -108t129 -223q19 -65 19 -142q0 -86 -24 -185 q-45 -187 -195.5 -419.5t-441.5 -502.5q-51 -47 -120 -91.5t-143.5 -72t-152.5 -32.5q-11 -1 -22 -1q-65 1 -125 27zM156 225q25 -113 94 -140q29 -12 63 -12q46 0 102 22q95 38 207.5 128t224 211t215 263.5t179.5 282.5t116 268q30 96 30 173q0 25 -4 48q-13 93 -90 141 q-55 34 -151 34q-38 0 -81 -6l-151 -146q-95 -95 -203.5 -218t-216 -264.5t-189.5 -281.5t-125 -270q-28 -85 -28 -159q0 -39 8 -74zM1063 1897q-49 31 -78.5 79t-47 101t-28 102.5t-22.5 81t-30.5 36.5t-52.5 -28.5t-87 -116.5t-135 -226q-45 -14 -56.5 19.5t3 94t48 134 t79 137t98.5 104.5t104 37t97.5 -66.5t78.5 -206.5q25 -106 66 -147t94 -38t116.5 40t130.5 85l136 97q70 49 135 76q14 -23 -14.5 -70t-84.5 -100t-131 -106.5t-151.5 -89t-147.5 -47t-120 17.5z" />
<glyph unicode="&#xd6;" horiz-adv-x="1318" d="M242 29q-125 53 -165 146q-31 71 -31 152q0 25 3 50q12 109 61.5 218.5t102.5 195.5l38 59l58 91l70 106l71 105l60 89q27 39 41 57q29 193 119 305.5t203 155.5q73 28 150 28q42 0 85 -8q121 -24 210 -108t129 -223q19 -65 19 -142q0 -86 -24 -185 q-45 -187 -195.5 -419.5t-441.5 -502.5q-51 -47 -120 -91.5t-143.5 -72t-152.5 -32.5q-11 -1 -22 -1q-65 1 -125 27zM156 225q25 -113 94 -140q29 -12 63 -12q46 0 102 22q95 38 207.5 128t224 211t215 263.5t179.5 282.5t116 268q30 96 30 173q0 25 -4 48q-13 93 -90 141 q-55 34 -151 34q-38 0 -81 -6l-151 -146q-95 -95 -203.5 -218t-216 -264.5t-189.5 -281.5t-125 -270q-28 -85 -28 -159q0 -39 8 -74zM847 1913q-37 53 -19.5 105.5t56.5 82t87.5 23.5t72.5 -70q14 -39 -5 -80t-53 -66.5t-74 -28.5t-65 34zM1206 1925q-37 53 -19.5 105.5 t56.5 82t87 23.5t72 -69q14 -39 -5 -80t-53 -66.5t-73.5 -29t-64.5 33.5z" />
<glyph unicode="&#xd7;" horiz-adv-x="1705" d="M215 225q-23 33 -2.5 66t65 66.5t100.5 67.5t104 69.5t78 73.5t20 81q-2 12 -15 58l-27 98l-28 98q-12 45 -14 58q-2 6 -2 27.5t2 29.5q20 16 41.5 2t42 -46t40.5 -74l36 -82q17 -40 34 -71.5t31 -39.5q43 29 94 70l101 85l96 85l75 71q53 27 74 22.5t22 -27t-13.5 -55 t-33 -63.5t-33.5 -53l-16 -23l-176 -121q-66 -47 -95.5 -79.5t-30.5 -55t13.5 -46t41 -52.5t50 -75t41 -112.5t15.5 -164.5q-74 -23 -110.5 3.5t-53 77t-20.5 113t-13.5 113.5t-31 77.5t-72.5 7t-140 -97t-233 -239.5q-4 2 -12 10l-17 18l-18 17q-8 8 -10 12z" />
<glyph unicode="&#xd8;" horiz-adv-x="1318" d="M242 29q-125 53 -165 146q-31 71 -31 152q0 25 3 50q12 109 61.5 218.5t102.5 195.5l38 59l58 91l70 106l71 105l60 89q27 39 41 57q29 193 119 305.5t203 155.5q73 28 150 28q42 0 85 -8q121 -24 210 -108t129 -223q19 -65 19 -142q0 -86 -24 -185 q-45 -187 -195.5 -419.5t-441.5 -502.5q-51 -47 -120 -91.5t-143.5 -72t-152.5 -32.5q-11 -1 -22 -1q-65 1 -125 27zM156 225q25 -113 94 -140q29 -12 63 -12q46 0 102 22q95 38 207.5 128t224 211t215 263.5t179.5 282.5t116 268q30 96 30 173q0 25 -4 48q-13 93 -90 141 q-55 34 -151 34q-38 0 -81 -6l-151 -146q-95 -95 -203.5 -218t-216 -264.5t-189.5 -281.5t-125 -270q-28 -85 -28 -159q0 -39 8 -74zM406.474 -171.389q-18.6592 124.506 9.91211 295.701q28.5723 171.195 85.7158 367.682q57.1436 196.485 136.445 403.995t162.102 402.051 l162.102 365.735l134.113 289.217q31.4873 23.3447 53.0615 10.376q21.5752 -12.9697 33.2373 -40.8535q11.6611 -27.8848 15.1602 -62.2529q3.49902 -34.3691 -1.16602 -53.8232q-11.6621 -25.9385 -33.8203 -84.3008l-53.6445 -129.693l-61.8086 -151.741 l-60.6426 -153.039l-52.4785 -129.693l-33.8203 -84.3008l-40.8164 -110.24l-60.6426 -166.008l-59.4766 -166.008q-27.9883 -77.8154 -37.3184 -107.646q-13.9941 -45.3926 -34.4023 -138.123l-45.4824 -197.783q-25.0732 -105.052 -54.8105 -204.268 q-29.7383 -99.2158 -63.5586 -154.983q-6.99707 -10.376 -20.9912 -22.6963q-13.9941 -12.3213 -29.7383 -16.2119q-15.7432 -3.89062 -29.1543 2.59375q-13.4121 6.48438 -18.0762 36.3145z" />
<glyph unicode="&#xd9;" d="M227 29q-90 72 -123 187q-26 90 -25 195q0 29 2 60q9 139 52 293t102.5 303.5t125 284.5t123 237.5t96.5 161.5q38 57 42 57q14 0 27 -26q8 -16 9 -37t-2 -41.5t-5 -36.5q0 -2 -5 -10t-9 -18.5t-9 -18.5t-5 -10q-195 -426 -292.5 -715t-119.5 -462q-8 -59 -8 -106 q0 -90 28 -136q36 -57 105 -57q13 0 28 2q89 13 212.5 97t262 217.5t282 302.5t271.5 354t230 372.5t158 357.5q4 4 14 15.5t14 11.5q55 -37 55.5 -119t-44.5 -192.5t-127 -242.5t-187.5 -272.5t-227.5 -280t-249 -264t-250 -227t-229.5 -168t-190.5 -87.5q-30 -8 -55 -7 q-46 0 -76 25zM1004 1845q-35 59 -86 108.5l-97 98.5t-73 105.5t-12 129.5q41 2 86 -25.5t90 -71.5t84 -100.5t68.5 -109.5t45 -98t11.5 -68.5t-32 -18.5t-85 50z" />
<glyph unicode="&#xda;" d="M227 29q-90 72 -123 187q-26 90 -25 195q0 29 2 60q9 139 52 293t102.5 303.5t125 284.5t123 237.5t96.5 161.5q38 57 42 57q14 0 27 -26q8 -16 9 -37t-2 -41.5t-5 -36.5q0 -2 -5 -10t-9 -18.5t-9 -18.5t-5 -10q-195 -426 -292.5 -715t-119.5 -462q-8 -59 -8 -106 q0 -90 28 -136q36 -57 105 -57q13 0 28 2q89 13 212.5 97t262 217.5t282 302.5t271.5 354t230 372.5t158 357.5q4 4 14 15.5t14 11.5q55 -37 55.5 -119t-44.5 -192.5t-127 -242.5t-187.5 -272.5t-227.5 -280t-249 -264t-250 -227t-229.5 -168t-190.5 -87.5q-30 -8 -55 -7 q-46 0 -76 25zM1038 1841q-63 -45 -93 -50t-35 18.5t11.5 68.5t49 98.5t75.5 108.5t92 100t99.5 72t95.5 25q16 -74 -13.5 -129.5t-79.5 -104.5t-107.5 -98.5t-94.5 -108.5z" />
<glyph unicode="&#xdb;" d="M227 29q-90 72 -123 187q-26 90 -25 195q0 29 2 60q9 139 52 293t102.5 303.5t125 284.5t123 237.5t96.5 161.5q38 57 42 57q14 0 27 -26q8 -16 9 -37t-2 -41.5t-5 -36.5q0 -2 -5 -10t-9 -18.5t-9 -18.5t-5 -10q-195 -426 -292.5 -715t-119.5 -462q-8 -59 -8 -106 q0 -90 28 -136q36 -57 105 -57q13 0 28 2q89 13 212.5 97t262 217.5t282 302.5t271.5 354t230 372.5t158 357.5q4 4 14 15.5t14 11.5q55 -37 55.5 -119t-44.5 -192.5t-127 -242.5t-187.5 -272.5t-227.5 -280t-249 -264t-250 -227t-229.5 -168t-190.5 -87.5q-30 -8 -55 -7 q-46 0 -76 25zM1282 1856q-4 4 -12 39l-21 83l-26 100q-14 52 -28.5 95t-29 66.5t-24.5 11.5q-6 -10 -22 -48l-36 -85q-20 -47 -46.5 -97.5t-55.5 -88t-60.5 -53t-62.5 4.5q-12 8 -25.5 22.5t-3.5 33.5l40 78l60 119l60 119q29 56 39 79q55 119 102.5 150.5t84 5t64.5 -97 t45 -157.5t23.5 -175.5t1.5 -149.5t-21.5 -82.5t-45.5 27.5z" />
<glyph unicode="&#xdc;" d="M227 29q-90 72 -123 187q-26 90 -25 195q0 29 2 60q9 139 52 293t102.5 303.5t125 284.5t123 237.5t96.5 161.5q38 57 42 57q14 0 27 -26q8 -16 9 -37t-2 -41.5t-5 -36.5q0 -2 -5 -10t-9 -18.5t-9 -18.5t-5 -10q-195 -426 -292.5 -715t-119.5 -462q-8 -59 -8 -106 q0 -90 28 -136q36 -57 105 -57q13 0 28 2q89 13 212.5 97t262 217.5t282 302.5t271.5 354t230 372.5t158 357.5q4 4 14 15.5t14 11.5q55 -37 55.5 -119t-44.5 -192.5t-127 -242.5t-187.5 -272.5t-227.5 -280t-249 -264t-250 -227t-229.5 -168t-190.5 -87.5q-30 -8 -55 -7 q-46 0 -76 25zM917 2017q-37 53 -19.5 105.5t56.5 82t87.5 23.5t72.5 -70q14 -39 -5 -80t-53 -66.5t-74 -28.5t-65 34zM1276 2029q-37 53 -19.5 105.5t56.5 82t87 23.5t72 -69q14 -39 -5 -80t-53 -66.5t-73.5 -29t-64.5 33.5z" />
<glyph unicode="&#xdd;" horiz-adv-x="1003" d="M139 -319q-18 43 -17 88q0 33 9 68q23 83 74 174t117.5 189.5t127 202t101.5 212.5q39 104 39 212v11q-10 23 -44 76l-82 126l-104 154l-106 161l-93 149q-42 71 -63 119q-15 36 -15 55q0 7 2 12q7 18 54 -4q37 -33 88.5 -105t108.5 -161l116 -182l108 -168 q50 -75 88 -118q29 -33 46 -33q5 0 8 3q20 39 53 110l71 162l85 189l90 193q45 93 88.5 171t79 124t61.5 53q3 1 6 1q21 0 32 -43q2 -8 1 -17q0 -38 -25 -113q-32 -93 -91 -225t-140 -293l-169 -334l-178 -347l-167 -333q-77 -159 -135.5 -291t-82.5 -222 q-8 -25 -24.5 -48.5t-37.5 -32.5q-10 -4 -19 -4q-11 0 -23 5q-22 11 -38 54zM614 1892q-63 -45 -93 -50t-35 18.5t11.5 68.5t49 98.5t75.5 108.5t92 100t99.5 72t95.5 25q16 -74 -13.5 -129.5t-79.5 -104.5t-107.5 -98.5t-94.5 -108.5z" />
<glyph unicode="&#xde;" horiz-adv-x="1501" d="M33 -401q0 2 -33 7l-72 11l-70 11q-32 5 -32 7q27 51 66 155l89 240l104 297l116 329l120 336l117 317q57 150 110.5 270.5t97.5 196t79 99t53 -25.5q37 -35 38 -77.5t-20.5 -94t-58.5 -113t-73.5 -135t-68.5 -158.5t-42 -184q211 160 370.5 238t271.5 91.5t176.5 -26.5 t84 -115t-4.5 -173t-88.5 -200.5t-168.5 -201t-246.5 -171t-322 -110.5t-392.5 -22q-2 2 -17 -57l-37 -149l-47 -193l-47 -194l-37 -148q-15 -59 -15 -57zM354 606q-4 -10 -4 -42t4 -42q125 -6 249 20.5t234.5 78t203 123t150.5 158.5t78.5 184.5t-9.5 197.5q0 2 -10.5 3 t-23 0t-23.5 -1h-13q-82 12 -170 -13.5t-172 -75.5t-163 -121.5t-144.5 -150.5t-113.5 -162t-73 -157z" />
<glyph unicode="&#xdf;" horiz-adv-x="1660" d="M588 1581q-88 -193 -172 -423t-142.5 -477t-80 -497t15.5 -483q-43 2 -73 37t-47 90t-23.5 126t-3 142.5t16.5 140t34 119.5q6 16 19 72.5t29 134.5l34 165l33 165q15 78 28.5 135t19.5 74q33 76 29 133t-12 108.5t-6 100.5t47 110q6 8 31 37l53 63l54 62q26 29 32 35 q12 16 71.5 59t146.5 98.5t192.5 115t211 109.5t201.5 84t166 35t102.5 -35t10.5 -126q-23 -86 -73 -165t-117.5 -153.5t-145.5 -146.5l-152 -142q-74 -71 -137 -141.5t-104 -144.5q287 -10 443.5 -63.5t211.5 -134t23.5 -179t-118.5 -196t-217 -185.5t-272.5 -149.5 t-282 -86t-247.5 4.5l20 78q240 0 421 55t303 140t185.5 184.5t67.5 188.5t-52 151.5t-173 74t-295 -44t-418 -202.5l51 274l186 158l215 188l214 199q104 100 181 190t117 162t23 113q-74 12 -153.5 -9.5t-162.5 -64.5t-164 -102.5t-154.5 -123t-135.5 -125.5z" />
<glyph unicode="&#xe0;" horiz-adv-x="1753" d="M141 57q-59 49 -65 148q-1 16 -1 31q0 86 27 189q33 122 100.5 256t154.5 255t189.5 217t205.5 143q79 36 154 36q23 0 46 -3q98 -14 178 -115q49 -61 60 -125q5 -29 5 -59q0 -35 -7 -72q-12 -66 -41 -134t-54.5 -139t-40.5 -143q-9 -44 -10 -88q0 -29 5 -59 q10 -72 54 -98q37 -22 89 -22h20q66 5 146 34t161.5 71t159.5 89l139 87q60 40 97 67l37 26q26 5 44 6q29 0 35 -15q2 -5 1 -11q0 -22 -28 -58q-36 -45 -108.5 -103t-166 -114.5t-198 -100.5t-205.5 -62q-49 -8 -95 -8q-49 0 -93 10q-87 18 -147 90q-25 29 -40 59.5 t-44 52.5l-89 -92q-52 -55 -113.5 -111.5t-131 -106.5t-142.5 -76q-55 -19 -110 -19l-35 2q-73 8 -143 65zM170 141q16 -59 66 -69q13 -3 27 -3q40 0 90 21q69 29 150 92.5t160.5 152.5t151.5 197.5t123 226.5t75 241q13 70 13 138q0 53 -8 105q-31 25 -69 25q-18 0 -39 -5 q-62 -17 -135 -70.5t-150.5 -138.5t-149.5 -183.5t-134 -205t-105 -206t-62 -181.5q-10 -47 -10 -84q0 -30 6 -53zM1014 1497q-35 59 -86 108.5l-97 98.5t-73 105.5t-12 129.5q41 2 86 -25.5t90 -71.5t84 -100.5t68.5 -109.5t45 -98t11.5 -68.5t-32 -18.5t-85 50z" />
<glyph unicode="&#xe1;" horiz-adv-x="1753" d="M141 57q-59 49 -65 148q-1 16 -1 31q0 86 27 189q33 122 100.5 256t154.5 255t189.5 217t205.5 143q79 36 154 36q23 0 46 -3q98 -14 178 -115q49 -61 60 -125q5 -29 5 -59q0 -35 -7 -72q-12 -66 -41 -134t-54.5 -139t-40.5 -143q-9 -44 -10 -88q0 -29 5 -59 q10 -72 54 -98q37 -22 89 -22h20q66 5 146 34t161.5 71t159.5 89l139 87q60 40 97 67l37 26q26 5 44 6q29 0 35 -15q2 -5 1 -11q0 -22 -28 -58q-36 -45 -108.5 -103t-166 -114.5t-198 -100.5t-205.5 -62q-49 -8 -95 -8q-49 0 -93 10q-87 18 -147 90q-25 29 -40 59.5 t-44 52.5l-89 -92q-52 -55 -113.5 -111.5t-131 -106.5t-142.5 -76q-55 -19 -110 -19l-35 2q-73 8 -143 65zM170 141q16 -59 66 -69q13 -3 27 -3q40 0 90 21q69 29 150 92.5t160.5 152.5t151.5 197.5t123 226.5t75 241q13 70 13 138q0 53 -8 105q-31 25 -69 25q-18 0 -39 -5 q-62 -17 -135 -70.5t-150.5 -138.5t-149.5 -183.5t-134 -205t-105 -206t-62 -181.5q-10 -47 -10 -84q0 -30 6 -53zM666 1409q-63 -45 -93 -50t-35 18.5t11.5 68.5t49 98.5t75.5 108.5t92 100t99.5 72t95.5 25q16 -74 -13.5 -129.5t-79.5 -104.5t-107.5 -98.5t-94.5 -108.5z " />
<glyph unicode="&#xe2;" horiz-adv-x="1753" d="M141 57q-59 49 -65 148q-1 16 -1 31q0 86 27 189q33 122 100.5 256t154.5 255t189.5 217t205.5 143q79 36 154 36q23 0 46 -3q98 -14 178 -115q49 -61 60 -125q5 -29 5 -59q0 -35 -7 -72q-12 -66 -41 -134t-54.5 -139t-40.5 -143q-9 -44 -10 -88q0 -29 5 -59 q10 -72 54 -98q37 -22 89 -22h20q66 5 146 34t161.5 71t159.5 89l139 87q60 40 97 67l37 26q26 5 44 6q29 0 35 -15q2 -5 1 -11q0 -22 -28 -58q-36 -45 -108.5 -103t-166 -114.5t-198 -100.5t-205.5 -62q-49 -8 -95 -8q-49 0 -93 10q-87 18 -147 90q-25 29 -40 59.5 t-44 52.5l-89 -92q-52 -55 -113.5 -111.5t-131 -106.5t-142.5 -76q-55 -19 -110 -19l-35 2q-73 8 -143 65zM170 141q16 -59 66 -69q13 -3 27 -3q40 0 90 21q69 29 150 92.5t160.5 152.5t151.5 197.5t123 226.5t75 241q13 70 13 138q0 53 -8 105q-31 25 -69 25q-18 0 -39 -5 q-62 -17 -135 -70.5t-150.5 -138.5t-149.5 -183.5t-134 -205t-105 -206t-62 -181.5q-10 -47 -10 -84q0 -30 6 -53zM1042 1385q-4 4 -12 39l-21 83l-26 100q-14 52 -28.5 95t-29 66.5t-24.5 11.5q-6 -10 -22 -48l-36 -85q-20 -47 -46.5 -97.5t-55.5 -88t-60.5 -53t-62.5 4.5 q-12 8 -25.5 22.5t-3.5 33.5l40 78l60 119l60 119q29 56 39 79q55 119 102.5 150.5t84 5t64.5 -97t45 -157.5t23.5 -175.5t1.5 -149.5t-21.5 -82.5t-45.5 27.5z" />
<glyph unicode="&#xe3;" horiz-adv-x="1753" d="M141 57q-59 49 -65 148q-1 16 -1 31q0 86 27 189q33 122 100.5 256t154.5 255t189.5 217t205.5 143q79 36 154 36q23 0 46 -3q98 -14 178 -115q49 -61 60 -125q5 -29 5 -59q0 -35 -7 -72q-12 -66 -41 -134t-54.5 -139t-40.5 -143q-9 -44 -10 -88q0 -29 5 -59 q10 -72 54 -98q37 -22 89 -22h20q66 5 146 34t161.5 71t159.5 89l139 87q60 40 97 67l37 26q26 5 44 6q29 0 35 -15q2 -5 1 -11q0 -22 -28 -58q-36 -45 -108.5 -103t-166 -114.5t-198 -100.5t-205.5 -62q-49 -8 -95 -8q-49 0 -93 10q-87 18 -147 90q-25 29 -40 59.5 t-44 52.5l-89 -92q-52 -55 -113.5 -111.5t-131 -106.5t-142.5 -76q-55 -19 -110 -19l-35 2q-73 8 -143 65zM170 141q16 -59 66 -69q13 -3 27 -3q40 0 90 21q69 29 150 92.5t160.5 152.5t151.5 197.5t123 226.5t75 241q13 70 13 138q0 53 -8 105q-31 25 -69 25q-18 0 -39 -5 q-62 -17 -135 -70.5t-150.5 -138.5t-149.5 -183.5t-134 -205t-105 -206t-62 -181.5q-10 -47 -10 -84q0 -30 6 -53zM956 1454q-49 31 -78.5 79t-47 101t-28 102.5t-22.5 81t-30.5 36.5t-52.5 -28.5t-87 -116.5t-135 -226q-45 -14 -56.5 19.5t3 94t48 134t79 137t98.5 104.5 t104 37t97.5 -66.5t78.5 -206.5q25 -106 66 -147t94 -38t116.5 40t130.5 85l136 97q70 49 135 76q14 -23 -14.5 -70t-84.5 -100t-131 -106.5t-151.5 -89t-147.5 -47t-120 17.5z" />
<glyph unicode="&#xe4;" horiz-adv-x="1753" d="M141 57q-59 49 -65 148q-1 16 -1 31q0 86 27 189q33 122 100.5 256t154.5 255t189.5 217t205.5 143q79 36 154 36q23 0 46 -3q98 -14 178 -115q49 -61 60 -125q5 -29 5 -59q0 -35 -7 -72q-12 -66 -41 -134t-54.5 -139t-40.5 -143q-9 -44 -10 -88q0 -29 5 -59 q10 -72 54 -98q37 -22 89 -22h20q66 5 146 34t161.5 71t159.5 89l139 87q60 40 97 67l37 26q26 5 44 6q29 0 35 -15q2 -5 1 -11q0 -22 -28 -58q-36 -45 -108.5 -103t-166 -114.5t-198 -100.5t-205.5 -62q-49 -8 -95 -8q-49 0 -93 10q-87 18 -147 90q-25 29 -40 59.5 t-44 52.5l-89 -92q-52 -55 -113.5 -111.5t-131 -106.5t-142.5 -76q-55 -19 -110 -19l-35 2q-73 8 -143 65zM170 141q16 -59 66 -69q13 -3 27 -3q40 0 90 21q69 29 150 92.5t160.5 152.5t151.5 197.5t123 226.5t75 241q13 70 13 138q0 53 -8 105q-31 25 -69 25q-18 0 -39 -5 q-62 -17 -135 -70.5t-150.5 -138.5t-149.5 -183.5t-134 -205t-105 -206t-62 -181.5q-10 -47 -10 -84q0 -30 6 -53zM585 1409q-37 53 -19.5 105.5t56.5 82t87.5 23.5t72.5 -70q14 -39 -5 -80t-53 -66.5t-74 -28.5t-65 34zM944 1421q-37 53 -19.5 105.5t56.5 82t87 23.5 t72 -69q14 -39 -5 -80t-53 -66.5t-73.5 -29t-64.5 33.5z" />
<glyph unicode="&#xe5;" horiz-adv-x="1753" d="M141 57q-59 49 -65 148q-1 16 -1 31q0 86 27 189q33 122 100.5 256t154.5 255t189.5 217t205.5 143q79 36 154 36q23 0 46 -3q98 -14 178 -115q49 -61 60 -125q5 -29 5 -59q0 -35 -7 -72q-12 -66 -41 -134t-54.5 -139t-40.5 -143q-9 -44 -10 -88q0 -29 5 -59 q10 -72 54 -98q37 -22 89 -22h20q66 5 146 34t161.5 71t159.5 89l139 87q60 40 97 67l37 26q26 5 44 6q29 0 35 -15q2 -5 1 -11q0 -22 -28 -58q-36 -45 -108.5 -103t-166 -114.5t-198 -100.5t-205.5 -62q-49 -8 -95 -8q-49 0 -93 10q-87 18 -147 90q-25 29 -40 59.5 t-44 52.5l-89 -92q-52 -55 -113.5 -111.5t-131 -106.5t-142.5 -76q-55 -19 -110 -19l-35 2q-73 8 -143 65zM170 141q16 -59 66 -69q13 -3 27 -3q40 0 90 21q69 29 150 92.5t160.5 152.5t151.5 197.5t123 226.5t75 241q13 70 13 138q0 53 -8 105q-31 25 -69 25q-18 0 -39 -5 q-62 -17 -135 -70.5t-150.5 -138.5t-149.5 -183.5t-134 -205t-105 -206t-62 -181.5q-10 -47 -10 -84q0 -30 6 -53zM666 1311q-63 25 -78.5 75t1 110.5t57 123.5t90 117.5t100.5 90.5t88 40q125 14 179 -30t55.5 -117.5t-43 -158.5t-115 -153t-158.5 -99.5t-176 1.5z M648 1393q12 -47 52 -51.5t92 19t109.5 70t105.5 99.5t79 107.5t29.5 95.5t-41 61.5t-134.5 7.5l-88 -73q-55 -45 -106 -99.5t-82.5 -116t-15.5 -120.5z" />
<glyph unicode="&#xe6;" horiz-adv-x="2840" d="M141 57q-59 49 -65 147.5t26.5 220.5t100 256t154.5 255t189.5 217t205 143t201 33t177.5 -115q49 -61 59.5 -125.5t-1.5 -130t-41 -134t-54.5 -139.5t-41 -143.5t-4.5 -146.5q10 -72 57 -102.5t118.5 -33.5t159.5 16.5t178.5 51t175.5 69.5t151 71l108 54l41 22 q23 -6 0 -38t-76 -74t-131 -90t-169 -89t-187.5 -69.5t-186.5 -30.5t-168 27.5t-129 103.5q-23 31 -39 60.5t-45 51.5l-89 -92q-52 -55 -113.5 -111.5t-131 -106.5t-142.5 -75.5t-145.5 -17.5t-142.5 65zM170 141q16 -59 65.5 -69.5t118 18.5t149.5 92.5t160.5 152.5 t151.5 197.5t123 226.5t74.5 241.5t5.5 242.5q-45 37 -107.5 19.5t-135.5 -70.5t-150.5 -138t-149.5 -183.5t-134 -205t-105 -206t-61.5 -182.5t-4.5 -136zM1110 238q-76 25 -115 76t-51 113t-3 131t28 130l170 185q94 103 199.5 204t219 186t230.5 132q61 25 84.5 -8 t23.5 -86.5t-16 -109.5t-37 -79q-23 -27 -78 -64l-128 -85l-154 -102q-82 -54 -158 -109.5t-137.5 -111.5t-93 -108.5t-24.5 -98.5t69 -83q86 -10 206.5 9.5t247.5 51t244 65.5t193 52l28 -26q-35 -47 -104.5 -91t-157.5 -79t-186.5 -61.5t-191.5 -39t-174 -12t-134 18.5z M1647 1112q-2 4 -22.5 -6t-49.5 -27.5t-61 -40.5l-58 -42q-27 -19 -43 -32.5t-12 -15.5q6 -4 46 19.5t85 54.5l81 57q36 27 34 33z" />
<glyph unicode="&#xe7;" horiz-adv-x="1398" d="M256 29q-127 43 -169 132q-29 61 -29 133q0 34 7 70q19 114 86.5 239.5t158.5 241.5t194.5 208t193.5 140q74 40 132 40q12 0 23 -2q65 -10 81 -101q2 -12 2 -23q0 -31 -11 -65q-15 -47 -44 -91t-65 -79.5t-69.5 -54t-60.5 -13.5t-35 44q31 51 68 100l74 96q-9 17 -31 18 q-12 0 -27 -5q-43 -14 -101.5 -59.5t-126 -113t-129 -148.5t-110.5 -167t-71 -167q-15 -54 -15 -102q0 -24 3 -46q11 -68 71 -113q17 -1 35 -1q69 0 153 19q106 24 219 60.5t225 81.5l203 82q91 37 154 57q45 15 69 15q9 0 15 -2q26 -13 26 -33q0 -8 -4 -18 q-15 -32 -68.5 -70.5t-135.5 -80.5t-179.5 -82t-201.5 -73t-200.5 -53t-177.5 -26q-19 -1 -37 -1q-56 1 -95 13zM473 -393q-12 35 24.5 48t87 20.5t100.5 18.5t67 42q14 31 3.5 46t-34 21.5t-55 9.5t-59 10t-45 23.5t-13.5 49.5q-10 55 -7 102t14 66.5t29.5 1t41.5 -94.5 q10 -31 37.5 -48t62.5 -28.5t70.5 -18.5t62.5 -19.5t37 -34t-4 -58.5q-4 -20 -47 -63t-103.5 -80t-126 -54.5t-114.5 11.5q-6 2 -16.5 13.5t-12.5 15.5z" />
<glyph unicode="&#xe8;" horiz-adv-x="1087" d="M213 29q-76 25 -115 76t-51 113q-7 36 -7 74q0 28 4 57q9 69 28 130l170 186q94 103 199.5 203.5t219 185.5t230.5 132q26 11 46 10q26 0 39 -18q24 -33 23.5 -86.5t-16.5 -109.5t-37 -79q-23 -27 -78 -64l-128 -85l-154 -102q-82 -54 -158 -109.5t-137.5 -111.5 t-92.5 -108q-26 -43 -26 -82q0 -9 1 -17q7 -46 69 -83q30 -4 63 -3q64 0 144 13q121 19 247.5 50.5t243.5 65.5t193 52l28 -26q-37 -47 -105.5 -91t-156.5 -79t-186.5 -61.5t-191.5 -39t-174 -12t-134 18.5zM750 903q-1 1 -3 1q-5 0 -20 -7q-20 -10 -49 -27.5t-61 -40.5 l-58 -42q-27 -19 -43 -32q-13 -11 -13 -14q0 -2 3 -2q9 0 44 20q40 24 85 54l81 57q36 27 34 33zM524 1331q-35 59 -86 108.5l-97 98.5t-73 105.5t-12 129.5q41 2 86 -25.5t90 -71.5t84 -100.5t68.5 -109.5t45 -98t11.5 -68.5t-32 -18.5t-85 50z" />
<glyph unicode="&#xe9;" horiz-adv-x="1087" d="M213 29q-76 25 -115 76t-51 113q-7 36 -7 74q0 28 4 57q9 69 28 130l170 186q94 103 199.5 203.5t219 185.5t230.5 132q26 11 46 10q26 0 39 -18q24 -33 23.5 -86.5t-16.5 -109.5t-37 -79q-23 -27 -78 -64l-128 -85l-154 -102q-82 -54 -158 -109.5t-137.5 -111.5 t-92.5 -108q-26 -43 -26 -82q0 -9 1 -17q7 -46 69 -83q30 -4 63 -3q64 0 144 13q121 19 247.5 50.5t243.5 65.5t193 52l28 -26q-37 -47 -105.5 -91t-156.5 -79t-186.5 -61.5t-191.5 -39t-174 -12t-134 18.5zM750 903q-1 1 -3 1q-5 0 -20 -7q-20 -10 -49 -27.5t-61 -40.5 l-58 -42q-27 -19 -43 -32q-13 -11 -13 -14q0 -2 3 -2q9 0 44 20q40 24 85 54l81 57q36 27 34 33zM541 1075q-63 -45 -93 -50t-35 18.5t11.5 68.5t49 98.5t75.5 108.5t92 100t99.5 72t95.5 25q16 -74 -13.5 -129.5t-79.5 -104.5t-107.5 -98.5t-94.5 -108.5z" />
<glyph unicode="&#xea;" horiz-adv-x="1087" d="M213 29q-76 25 -115 76t-51 113q-7 36 -7 74q0 28 4 57q9 69 28 130l170 186q94 103 199.5 203.5t219 185.5t230.5 132q26 11 46 10q26 0 39 -18q24 -33 23.5 -86.5t-16.5 -109.5t-37 -79q-23 -27 -78 -64l-128 -85l-154 -102q-82 -54 -158 -109.5t-137.5 -111.5 t-92.5 -108q-26 -43 -26 -82q0 -9 1 -17q7 -46 69 -83q30 -4 63 -3q64 0 144 13q121 19 247.5 50.5t243.5 65.5t193 52l28 -26q-37 -47 -105.5 -91t-156.5 -79t-186.5 -61.5t-191.5 -39t-174 -12t-134 18.5zM750 903q-1 1 -3 1q-5 0 -20 -7q-20 -10 -49 -27.5t-61 -40.5 l-58 -42q-27 -19 -43 -32q-13 -11 -13 -14q0 -2 3 -2q9 0 44 20q40 24 85 54l81 57q36 27 34 33zM719 1248q-4 4 -12 39l-21 83l-26 100q-14 52 -28.5 95t-29 66.5t-24.5 11.5q-6 -10 -22 -48l-36 -85q-20 -47 -46.5 -97.5t-55.5 -88t-60.5 -53t-62.5 4.5q-12 8 -25.5 22.5 t-3.5 33.5l40 78l60 119l60 119q29 56 39 79q55 119 102.5 150.5t84 5t64.5 -97t45 -157.5t23.5 -175.5t1.5 -149.5t-21.5 -82.5t-45.5 27.5z" />
<glyph unicode="&#xeb;" horiz-adv-x="1087" d="M213 29q-76 25 -115 76t-51 113q-7 36 -7 74q0 28 4 57q9 69 28 130l170 186q94 103 199.5 203.5t219 185.5t230.5 132q26 11 46 10q26 0 39 -18q24 -33 23.5 -86.5t-16.5 -109.5t-37 -79q-23 -27 -78 -64l-128 -85l-154 -102q-82 -54 -158 -109.5t-137.5 -111.5 t-92.5 -108q-26 -43 -26 -82q0 -9 1 -17q7 -46 69 -83q30 -4 63 -3q64 0 144 13q121 19 247.5 50.5t243.5 65.5t193 52l28 -26q-37 -47 -105.5 -91t-156.5 -79t-186.5 -61.5t-191.5 -39t-174 -12t-134 18.5zM750 903q-1 1 -3 1q-5 0 -20 -7q-20 -10 -49 -27.5t-61 -40.5 l-58 -42q-27 -19 -43 -32q-13 -11 -13 -14q0 -2 3 -2q9 0 44 20q40 24 85 54l81 57q36 27 34 33zM313 1231q-37 53 -19.5 105.5t56.5 82t87.5 23.5t72.5 -70q14 -39 -5 -80t-53 -66.5t-74 -28.5t-65 34zM672 1243q-37 53 -19.5 105.5t56.5 82t87 23.5t72 -69q14 -39 -5 -80 t-53 -66.5t-73.5 -29t-64.5 33.5z" />
<glyph unicode="&#xec;" horiz-adv-x="634" d="M29 29q100 328 184 521t139.5 272t77 51.5t-3.5 -140t-100.5 -301t-212.5 -432.5q-20 -8 -47 -3t-37 32zM319 1069q-35 59 -86 108.5l-97 98.5t-72.5 105.5t-12.5 129.5q41 2 86 -25.5t90 -71.5t84 -100.5t69 -109.5t45 -98t11 -68.5t-32 -18.5t-85 50z" />
<glyph unicode="&#xed;" horiz-adv-x="634" d="M29 29q10 -27 36.5 -32t47.5 3q137 244 212.5 432.5t100.5 301t3.5 140t-77 -51.5t-139.5 -272t-184 -521zM315 1075q-63 -45 -92.5 -50t-35 18.5t11 68.5t49.5 98.5t76 108.5t92 100t99 72t95 25q16 -74 -13.5 -129.5t-79.5 -104.5t-107.5 -98.5t-94.5 -108.5z" />
<glyph unicode="&#xee;" horiz-adv-x="634" d="M29 29q100 328 184 521t139.5 272t77 51.5t-3.5 -140t-100.5 -301t-212.5 -432.5q-20 -8 -47 -3t-37 32zM473 967q-4 4 -12 39l-21 83l-26 100q-14 52 -28.5 95t-29 66.5t-24.5 11.5q-6 -10 -22 -48l-36 -85q-20 -47 -46.5 -97.5t-55.5 -88t-60.5 -53t-62.5 4.5 q-12 8 -25.5 22.5t-3.5 33.5l40 78l60 119l60 119q29 56 39 79q55 119 102.5 150.5t84 5t64.5 -97t45 -157.5t23.5 -175.5t1.5 -149.5t-21.5 -82.5t-45.5 27.5z" />
<glyph unicode="&#xef;" horiz-adv-x="634" d="M29 29q100 328 184 521t139.5 272t77 51.5t-3.5 -140t-100.5 -301t-212.5 -432.5q-20 -8 -47 -3t-37 32zM68 1065q-37 53 -19.5 105.5t56 82t87 23.5t72.5 -70q14 -39 -5 -80t-53 -66.5t-73.5 -28.5t-64.5 34zM426 1077q-37 53 -19.5 105.5t56.5 82t87 23.5t73 -69 q14 -39 -5.5 -80t-53.5 -66.5t-73.5 -29t-64.5 33.5z" />
<glyph unicode="&#xf0;" horiz-adv-x="786" d="M598 1059q33 -23 47 -34t5 -28.5t-42 -48.5l-94 -92q63 -74 119.5 -177.5t93.5 -208.5t45 -201.5t-27 -155.5q-63 -90 -134.5 -124t-144.5 -27t-143.5 48t-129 103.5t-101.5 137.5t-61.5 149.5t-9 141t54.5 113.5q59 45 127.5 35t140.5 -50t143.5 -93t137.5 -92 q8 29 -3.5 68.5t-37 85.5t-60.5 94.5t-73 91.5q-55 -53 -103 -76q-35 -18 -21.5 27t56.5 120q-29 27 -53.5 47.5t-42.5 30.5q-63 61 -72.5 96t13 46.5t63.5 -3t76 -53.5l44 -53q28 -33 44 -55zM602 113q16 43 5 96t-43 106.5t-80 102.5t-106.5 81.5t-125 46t-131.5 -2.5 q-12 -51 8.5 -119t62 -135.5t98 -126t114 -89t110.5 -25t88 64.5z" />
<glyph unicode="&#xf1;" horiz-adv-x="1439" d="M975 29q-2 23 -2 45q0 59 15 117q22 81 57.5 161t77.5 158t73 153.5t43 150.5q4 26 4 52q0 48 -14 95q-24 8 -52 7q-43 0 -93 -20q-81 -33 -172 -98.5t-186 -154.5l-186 -180l-174 -173q-83 -82 -149.5 -136t-113.5 -69q-11 -3 -19 -3q-30 0 -41 36q0 2 17 38l48 94 l67 133l78 153l81 153l74 136l56 98t32 43q53 -36 53 -86q0 -36 -13 -75q-15 -44 -34 -90q-11 -28 -11 -54q0 -18 5 -35l111 77l156 101q85 53 175 101.5t171 78t143 32.5h9q56 0 85 -38q22 -30 22 -87q0 -21 -3 -45q-11 -91 -79 -249q-6 -12 -21 -46l-36 -81l-43 -98 l-43 -98l-36 -82q-15 -35 -20 -45q-4 -10 -7 -37t-9 -57.5t-15 -60.5t-24 -44q-6 -6 -12 -6q-2 0 -5 1q-9 3 -17.5 9t-14.5 13.5t-8 11.5zM750 1163q-49 31 -78.5 79t-47 101t-28 102.5t-22.5 81t-30.5 36.5t-52.5 -28.5t-87 -116.5t-135 -226q-45 -14 -56.5 19.5t3 94 t48 134t79 137t98.5 104.5t104 37t97.5 -66.5t78.5 -206.5q25 -106 66 -147t94 -38t116.5 40t130.5 85l136 97q70 49 135 76q14 -23 -14.5 -70t-84.5 -100t-131 -106.5t-151.5 -89t-147.5 -47t-120 17.5z" />
<glyph unicode="&#xf2;" horiz-adv-x="1073" d="M199 29q-78 31 -112 88q-33 56 -33 125q0 73 31 156q30 81 78 162t109.5 156t124 134t122 96t104.5 43q49 6 91 6q92 0 152 -27q88 -40 122 -118q23 -54 23 -119q0 -30 -4 -62q-15 -103 -66.5 -209t-132.5 -203t-180.5 -162.5t-209.5 -87.5q-37 -7 -74 -7q-73 0 -145 29z M170 170q16 -66 62 -82q22 -8 49 -8q28 0 60 9q62 17 137 65.5t146.5 112t136 139t109.5 149.5t63 139q8 29 8 55q0 32 -12 58q-22 47 -87 67q-34 11 -86 11q-46 0 -105 -8q-35 -33 -89 -79t-113.5 -102.5t-117 -120t-99.5 -130t-61 -137.5q-10 -36 -10 -72q0 -33 9 -66z M694 1204q-35 59 -86 108.5l-97 98.5t-73 105.5t-12 129.5q41 2 86 -25.5t90 -71.5t84 -100.5t68.5 -109.5t45 -98t11.5 -68.5t-32 -18.5t-85 50z" />
<glyph unicode="&#xf3;" horiz-adv-x="1073" d="M199 29q-78 31 -112 88q-33 56 -33 125q0 73 31 156q30 81 78 162t109.5 156t124 134t122 96t104.5 43q49 6 91 6q92 0 152 -27q88 -40 122 -118q23 -54 23 -119q0 -30 -4 -62q-15 -103 -66.5 -209t-132.5 -203t-180.5 -162.5t-209.5 -87.5q-37 -7 -74 -7q-73 0 -145 29z M170 170q16 -66 62 -82q22 -8 49 -8q28 0 60 9q62 17 137 65.5t146.5 112t136 139t109.5 149.5t63 139q8 29 8 55q0 32 -12 58q-22 47 -87 67q-34 11 -86 11q-46 0 -105 -8q-35 -33 -89 -79t-113.5 -102.5t-117 -120t-99.5 -130t-61 -137.5q-10 -36 -10 -72q0 -33 9 -66z M535 1075q-63 -45 -93 -50t-35 18.5t11.5 68.5t49 98.5t75.5 108.5t92 100t99.5 72t95.5 25q16 -74 -13.5 -129.5t-79.5 -104.5t-107.5 -98.5t-94.5 -108.5z" />
<glyph unicode="&#xf4;" horiz-adv-x="1073" d="M199 29q-78 31 -112 88q-33 56 -33 125q0 73 31 156q30 81 78 162t109.5 156t124 134t122 96t104.5 43q49 6 91 6q92 0 152 -27q88 -40 122 -118q23 -54 23 -119q0 -30 -4 -62q-15 -103 -66.5 -209t-132.5 -203t-180.5 -162.5t-209.5 -87.5q-37 -7 -74 -7q-73 0 -145 29z M170 170q16 -66 62 -82q22 -8 49 -8q28 0 60 9q62 17 137 65.5t146.5 112t136 139t109.5 149.5t63 139q8 29 8 55q0 32 -12 58q-22 47 -87 67q-34 11 -86 11q-46 0 -105 -8q-35 -33 -89 -79t-113.5 -102.5t-117 -120t-99.5 -130t-61 -137.5q-10 -36 -10 -72q0 -33 9 -66z M850 1104q-4 4 -12 39l-21 83l-26 100q-14 52 -28.5 95t-29 66.5t-24.5 11.5q-6 -10 -22 -48l-36 -85q-20 -47 -46.5 -97.5t-55.5 -88t-60.5 -53t-62.5 4.5q-12 8 -25.5 22.5t-3.5 33.5l40 78l60 119l60 119q29 56 39 79q55 119 102.5 150.5t84 5t64.5 -97t45 -157.5 t23.5 -175.5t1.5 -149.5t-21.5 -82.5t-45.5 27.5z" />
<glyph unicode="&#xf5;" horiz-adv-x="1073" d="M199 29q-78 31 -112 88q-33 56 -33 125q0 73 31 156q30 81 78 162t109.5 156t124 134t122 96t104.5 43q49 6 91 6q92 0 152 -27q88 -40 122 -118q23 -54 23 -119q0 -30 -4 -62q-15 -103 -66.5 -209t-132.5 -203t-180.5 -162.5t-209.5 -87.5q-37 -7 -74 -7q-73 0 -145 29z M170 170q16 -66 62 -82q22 -8 49 -8q28 0 60 9q62 17 137 65.5t146.5 112t136 139t109.5 149.5t63 139q8 29 8 55q0 32 -12 58q-22 47 -87 67q-34 11 -86 11q-46 0 -105 -8q-35 -33 -89 -79t-113.5 -102.5t-117 -120t-99.5 -130t-61 -137.5q-10 -36 -10 -72q0 -33 9 -66z M766 1090q-49 31 -78.5 79t-47 101t-28 102.5t-22.5 81t-30.5 36.5t-52.5 -28.5t-87 -116.5t-135 -226q-45 -14 -56.5 19.5t3 94t48 134t79 137t98.5 104.5t104 37t97.5 -66.5t78.5 -206.5q25 -106 66 -147t94 -38t116.5 40t130.5 85l136 97q70 49 135 76q14 -23 -14.5 -70 t-84.5 -100t-131 -106.5t-151.5 -89t-147.5 -47t-120 17.5z" />
<glyph unicode="&#xf6;" horiz-adv-x="1073" d="M199 29q-78 31 -112 88q-33 56 -33 125q0 73 31 156q30 81 78 162t109.5 156t124 134t122 96t104.5 43q49 6 91 6q92 0 152 -27q88 -40 122 -118q23 -54 23 -119q0 -30 -4 -62q-15 -103 -66.5 -209t-132.5 -203t-180.5 -162.5t-209.5 -87.5q-37 -7 -74 -7q-73 0 -145 29z M170 170q16 -66 62 -82q22 -8 49 -8q28 0 60 9q62 17 137 65.5t146.5 112t136 139t109.5 149.5t63 139q8 29 8 55q0 32 -12 58q-22 47 -87 67q-34 11 -86 11q-46 0 -105 -8q-35 -33 -89 -79t-113.5 -102.5t-117 -120t-99.5 -130t-61 -137.5q-10 -36 -10 -72q0 -33 9 -66z M401 1118q-37 53 -19.5 105.5t56.5 82t87.5 23.5t72.5 -70q14 -39 -5 -80t-53 -66.5t-74 -28.5t-65 34zM760 1130q-37 53 -19.5 105.5t56.5 82t87 23.5t72 -69q14 -39 -5 -80t-53 -66.5t-73.5 -29t-64.5 33.5z" />
<glyph unicode="&#xf7;" horiz-adv-x="1538" d="M213 516q-82 -14 -105.5 4.5t29.5 85.5q2 8 54.5 19.5t135.5 24t190.5 24.5t219 20t220 12.5t194.5 1.5t142.5 -15.5t64.5 -37.5q4 -6 4 -27.5t-4 -29.5q-47 -4 -137 -10l-202 -15l-234 -17l-233.5 -16.5t-201.5 -14.5t-137 -9zM553 227q-18 35 -2 56.5t44 30t57.5 1 t41.5 -31.5q20 -43 8 -71t-38.5 -37t-59.5 3t-51 49zM582 905q-27 25 -29 54.5t11.5 50t41 25.5t60.5 -17q33 -23 37 -55.5t-11.5 -57t-45 -30t-64.5 29.5z" />
<glyph unicode="&#xf8;" horiz-adv-x="1073" d="M199 29q-78 31 -112 88q-33 56 -33 125q0 73 31 156q30 81 78 162t109.5 156t124 134t122 96t104.5 43q49 6 91 6q92 0 152 -27q88 -40 122 -118q23 -54 23 -119q0 -30 -4 -62q-15 -103 -66.5 -209t-132.5 -203t-180.5 -162.5t-209.5 -87.5q-37 -7 -74 -7q-73 0 -145 29z M170 170q16 -66 62 -82q22 -8 49 -8q28 0 60 9q62 17 137 65.5t146.5 112t136 139t109.5 149.5t63 139q8 29 8 55q0 32 -12 58q-22 47 -87 67q-34 11 -86 11q-46 0 -105 -8q-35 -33 -89 -79t-113.5 -102.5t-117 -120t-99.5 -130t-61 -137.5q-10 -36 -10 -72q0 -33 9 -66z M233 -262q-16 96 8.5 228t73.5 283.5t117 311.5t139 310l139 282l115 223q27 18 45.5 8t28.5 -31.5t13 -48t-1 -41.5q-10 -20 -29 -65l-46 -100l-53 -117l-52 -118l-45 -100l-29 -65l-35 -85l-52 -128l-51 -128q-24 -60 -32 -83q-12 -35 -29.5 -106.5l-39 -152.5t-47 -157.5 t-54.5 -119.5q-6 -8 -18 -17.5t-25.5 -12.5t-25 2t-15.5 28z" />
<glyph unicode="&#xf9;" horiz-adv-x="1439" d="M1075 29q-68 27 -107.5 71.5t-62 102t-34.5 121.5l-23 129q-16 10 -54 -12.5t-88 -64.5l-110 -94q-59 -52 -122.5 -100.5t-126 -82t-118.5 -40.5q-9 -1 -18 -1q-45 0 -82 26q-45 31 -72 115q-4 13 -4 31q0 31 14 76q22 71 64.5 157t98 176t109.5 169t100 136t71 74 q52 -26 52 -74q0 -5 -1 -11q-6 -56 -46 -128t-100.5 -155t-113.5 -163.5t-86 -155.5q-22 -50 -22 -92q0 -21 6 -40q17 -7 38 -8q42 0 97 31q82 46 175 129t191 189l184 203l150 175q66 76 96 100q51 -27 51.5 -82t-28.5 -129t-70 -158t-71.5 -166t-35.5 -156q-1 -7 -1 -15 q0 -66 43 -113l84 -101h254q12 0 12 -6q0 -4 -4 -9q-10 -15 -29.5 -33.5t-40 -34t-22.5 -15.5q-35 -6 -63 -6q-22 0 -41 4q-40 8 -93 31zM721 1069q-35 59 -86 108.5l-97 98.5t-73 105.5t-12 129.5q41 2 86 -25.5t90 -71.5t84 -100.5t68.5 -109.5t45 -98t11.5 -68.5 t-32 -18.5t-85 50z" />
<glyph unicode="&#xfa;" horiz-adv-x="1439" d="M1075 29q-68 27 -107.5 71.5t-62 102t-34.5 121.5l-23 129q-16 10 -54 -12.5t-88 -64.5l-110 -94q-59 -52 -122.5 -100.5t-126 -82t-118.5 -40.5q-9 -1 -18 -1q-45 0 -82 26q-45 31 -72 115q-4 13 -4 31q0 31 14 76q22 71 64.5 157t98 176t109.5 169t100 136t71 74 q52 -26 52 -74q0 -5 -1 -11q-6 -56 -46 -128t-100.5 -155t-113.5 -163.5t-86 -155.5q-22 -50 -22 -92q0 -21 6 -40q17 -7 38 -8q42 0 97 31q82 46 175 129t191 189l184 203l150 175q66 76 96 100q51 -27 51.5 -82t-28.5 -129t-70 -158t-71.5 -166t-35.5 -156q-1 -7 -1 -15 q0 -66 43 -113l84 -101h254q12 0 12 -6q0 -4 -4 -9q-10 -15 -29.5 -33.5t-40 -34t-22.5 -15.5q-35 -6 -63 -6q-22 0 -41 4q-40 8 -93 31zM821 1067q-63 -45 -93 -50t-35 18.5t11.5 68.5t49 98.5t75.5 108.5t92 100t99.5 72t95.5 25q16 -74 -13.5 -129.5t-79.5 -104.5 t-107.5 -98.5t-94.5 -108.5z" />
<glyph unicode="&#xfb;" horiz-adv-x="1439" d="M1075 29q-68 27 -107.5 71.5t-62 102t-34.5 121.5l-23 129q-16 10 -54 -12.5t-88 -64.5l-110 -94q-59 -52 -122.5 -100.5t-126 -82t-118.5 -40.5q-9 -1 -18 -1q-45 0 -82 26q-45 31 -72 115q-4 13 -4 31q0 31 14 76q22 71 64.5 157t98 176t109.5 169t100 136t71 74 q52 -26 52 -74q0 -5 -1 -11q-6 -56 -46 -128t-100.5 -155t-113.5 -163.5t-86 -155.5q-22 -50 -22 -92q0 -21 6 -40q17 -7 38 -8q42 0 97 31q82 46 175 129t191 189l184 203l150 175q66 76 96 100q51 -27 51.5 -82t-28.5 -129t-70 -158t-71.5 -166t-35.5 -156q-1 -7 -1 -15 q0 -66 43 -113l84 -101h254q12 0 12 -6q0 -4 -4 -9q-10 -15 -29.5 -33.5t-40 -34t-22.5 -15.5q-35 -6 -63 -6q-22 0 -41 4q-40 8 -93 31zM999 1112q-4 4 -12 39l-21 83l-26 100q-14 52 -28.5 95t-29 66.5t-24.5 11.5q-6 -10 -22 -48l-36 -85q-20 -47 -46.5 -97.5t-55.5 -88 t-60.5 -53t-62.5 4.5q-12 8 -25.5 22.5t-3.5 33.5l40 78l60 119l60 119q29 56 39 79q55 119 102.5 150.5t84 5t64.5 -97t45 -157.5t23.5 -175.5t1.5 -149.5t-21.5 -82.5t-45.5 27.5z" />
<glyph unicode="&#xfc;" horiz-adv-x="1439" d="M1075 29q-68 27 -107.5 71.5t-62 102t-34.5 121.5l-23 129q-16 10 -54 -12.5t-88 -64.5l-110 -94q-59 -52 -122.5 -100.5t-126 -82t-118.5 -40.5q-9 -1 -18 -1q-45 0 -82 26q-45 31 -72 115q-4 13 -4 31q0 31 14 76q22 71 64.5 157t98 176t109.5 169t100 136t71 74 q52 -26 52 -74q0 -5 -1 -11q-6 -56 -46 -128t-100.5 -155t-113.5 -163.5t-86 -155.5q-22 -50 -22 -92q0 -21 6 -40q17 -7 38 -8q42 0 97 31q82 46 175 129t191 189l184 203l150 175q66 76 96 100q51 -27 51.5 -82t-28.5 -129t-70 -158t-71.5 -166t-35.5 -156q-1 -7 -1 -15 q0 -66 43 -113l84 -101h254q12 0 12 -6q0 -4 -4 -9q-10 -15 -29.5 -33.5t-40 -34t-22.5 -15.5q-35 -6 -63 -6q-22 0 -41 4q-40 8 -93 31zM532 1169q-37 53 -19.5 105.5t56.5 82t87.5 23.5t72.5 -70q14 -39 -5 -80t-53 -66.5t-74 -28.5t-65 34zM891 1181q-37 53 -19.5 105.5 t56.5 82t87 23.5t72 -69q14 -39 -5 -80t-53 -66.5t-73.5 -29t-64.5 33.5z" />
<glyph unicode="&#xfd;" horiz-adv-x="1101" d="M-424 -961q-11 16 -11 41q0 11 2 24q7 42 26.5 92t49 103.5t60.5 102.5l57 87l41 58l63 82l94 125l111 147l111 146l95 125l63 82q10 11 10 29t-10 42q-20 48 -62 111l-92 139q-51 76 -92 156t-62 157q-11 39 -11 76q0 35 10 68q8 6 17 6q13 0 27 -13q24 -22 49 -68 t54 -108l57 -128l58 -127q29 -61 56.5 -105.5t54 -65t51.5 -1.5q63 49 125.5 122.5t120.5 153.5l110 157q51 77 94 132q18 23 34.5 32t51.5 -3q11 -3 11 -19q0 -22 -21 -67q-37 -78 -117 -201t-191 -279l-235 -326l-248 -336l-228 -310l-177 -252q-74 -109 -94 -160l-22 -45 q-11 -23 -34 -39q-4 2 -12 10l-17 18l-18 17q-8 8 -10 12zM549 1075q-63 -45 -93 -50t-35 18.5t11.5 68.5t49 98.5t75.5 108.5t92 100t99.5 72t95.5 25q16 -74 -13.5 -129.5t-79.5 -104.5t-107.5 -98.5t-94.5 -108.5z" />
<glyph unicode="&#xfe;" horiz-adv-x="1353" d="M-119 -940q12 219 64.5 469t124 515t153.5 540l156 544q74 270 128 531.5t71 499.5q43 6 78.5 0.5t58 -33t29 -86t-10 -160.5t-60.5 -253.5t-122 -366.5q254 88 413.5 79.5t238.5 -82t86 -194.5t-42 -256t-147.5 -267t-228.5 -229.5t-284.5 -142.5t-318.5 -4 q-66 -190 -99.5 -322.5t-48 -224.5t-17.5 -157.5t-8 -126t-18.5 -126t-49.5 -157.5q-6 -10 -28 -17.5t-47.5 -8.5t-47 7.5t-23.5 28.5zM356 283q84 -31 177.5 -10.5t184.5 74.5t174 135t147.5 172t104.5 185.5t46 176.5t-28 142.5t-118 84.5q-172 -16 -280.5 -64.5 t-173 -119t-97 -161.5t-52 -192.5t-36 -209t-49.5 -213.5z" />
<glyph unicode="&#xff;" horiz-adv-x="1101" d="M-424 -961q-11 16 -11 41q0 11 2 24q7 42 26.5 92t49 103.5t60.5 102.5l57 87l41 58l63 82l94 125l111 147l111 146l95 125l63 82q10 11 10 29t-10 42q-20 48 -62 111l-92 139q-51 76 -92 156t-62 157q-11 39 -11 76q0 35 10 68q8 6 17 6q13 0 27 -13q24 -22 49 -68 t54 -108l57 -128l58 -127q29 -61 56.5 -105.5t54 -65t51.5 -1.5q63 49 125.5 122.5t120.5 153.5l110 157q51 77 94 132q18 23 34.5 32t51.5 -3q11 -3 11 -19q0 -22 -21 -67q-37 -78 -117 -201t-191 -279l-235 -326l-248 -336l-228 -310l-177 -252q-74 -109 -94 -160l-22 -45 q-11 -23 -34 -39q-4 2 -12 10l-17 18l-18 17q-8 8 -10 12zM301 1065q-37 53 -19.5 105.5t56.5 82t87.5 23.5t72.5 -70q14 -39 -5 -80t-53 -66.5t-74 -28.5t-65 34zM660 1077q-37 53 -19.5 105.5t56.5 82t87 23.5t72 -69q14 -39 -5 -80t-53 -66.5t-73.5 -29t-64.5 33.5z" />
<glyph unicode="&#x102;" horiz-adv-x="2117" d="M-197 -463q-8 6 -23.5 23.5t-25.5 38.5q-9 17 -8 30q0 21 29 21q41 -53 104 -57h11q59 0 129 30q77 33 163 94.5t168 136t157 154.5t132 150.5t91 124t34 73.5q0 8 -20.5 24.5t-46.5 33.5l-48 31q-23 15 -26 24q8 25 48 39t89 26l98 21q49 10 74 27q133 193 237.5 398.5 t200.5 414.5l194 417q97 209 216 408q21 35 36 35q9 0 15 -11q18 -32 27 -122q7 -80 7 -195v-30q-1 -134 -7.5 -284.5t-15.5 -303.5l-17 -283l-14 -219q-4 -64 -3 -94v-19q8 -127 12.5 -220t25 -173t69.5 -153.5t147 -159.5q-39 -12 -71 -13q-37 0 -65 17q-52 31 -86 95.5 t-55 146.5l-41 162q-19 79 -43 138.5t-63 75.5q-4 0 -14 1t-24.5 1t-26.5 -1t-19 -1q-23 -4 -84 -19l-134 -33q-73 -17 -138 -35l-96 -25q-61 -16 -131 -80t-145.5 -152l-156.5 -192l-166 -205q-85 -100 -173 -186t-176 -137.5t-177 -58.5q-10 -1 -19 -1q-79 0 -155 51z M1159 639q6 -2 27.5 -2t27.5 2q43 6 111 14.5t130 17.5l109 16l46 7l57 58l2 31q2 32 5 84.5t6 116.5l7 130q3 66 5 126t4 106v309q-8 5 -16 4q-9 0 -18 -6q-15 -12 -24 -27l-479 -958v-29zM1890 2706q59 -37 61.5 -84t-30.5 -88t-91.5 -65.5t-121 -15.5t-119.5 59.5 t-86 160.5q-4 4 2 11.5t16 13.5l21 12q10 6 16 6q16 -25 41 -55.5t53.5 -55t60.5 -38t63.5 -6t60 41t53.5 103.5z" />
<glyph unicode="&#x103;" horiz-adv-x="1753" d="M141 57q-59 49 -65 148q-1 16 -1 31q0 86 27 189q33 122 100.5 256t154.5 255t189.5 217t205.5 143q79 36 154 36q23 0 46 -3q98 -14 178 -115q49 -61 60 -125q5 -29 5 -59q0 -35 -7 -72q-12 -66 -41 -134t-54.5 -139t-40.5 -143q-9 -44 -10 -88q0 -29 5 -59 q10 -72 54 -98q37 -22 89 -22h20q66 5 146 34t161.5 71t159.5 89l139 87q60 40 97 67l37 26q26 5 44 6q29 0 35 -15q2 -5 1 -11q0 -22 -28 -58q-36 -45 -108.5 -103t-166 -114.5t-198 -100.5t-205.5 -62q-49 -8 -95 -8q-49 0 -93 10q-87 18 -147 90q-25 29 -40 59.5 t-44 52.5l-89 -92q-52 -55 -113.5 -111.5t-131 -106.5t-142.5 -76q-55 -19 -110 -19l-35 2q-73 8 -143 65zM170 141q16 -59 66 -69q13 -3 27 -3q40 0 90 21q69 29 150 92.5t160.5 152.5t151.5 197.5t123 226.5t75 241q13 70 13 138q0 53 -8 105q-31 25 -69 25q-18 0 -39 -5 q-62 -17 -135 -70.5t-150.5 -138.5t-149.5 -183.5t-134 -205t-105 -206t-62 -181.5q-10 -47 -10 -84q0 -30 6 -53zM1104 1790q59 -37 61.5 -84t-30.5 -88t-91.5 -65.5t-121 -15.5t-119.5 59.5t-86 160.5q-4 4 2 11.5t16 13.5l21 12q10 6 16 6q16 -25 41 -55.5t53.5 -55 t60.5 -38t63.5 -6t60 41t53.5 103.5z" />
<glyph unicode="&#x106;" horiz-adv-x="1581" d="M268 29q-121 49 -180 134t-68 196q-2 21 -1 44q0 93 28 199q35 131 100.5 272.5t154.5 286t188.5 281.5t204 262t199.5 225.5t176 172t132 102.5q90 53 150.5 53t96.5 -37t49 -100q12 -59 12 -125q0 -76 -14 -154q-13 -72 -33.5 -124t-45 -76.5t-47.5 -2.5q-2 20 5 61.5 t18.5 93.5t21.5 106.5t15 101.5q2 19 1 35q0 25 -4 44q-6 32 -28 38q-20 5 -42 5q-57 0 -125 -35q-95 -48 -201.5 -144.5t-217.5 -229.5t-215 -285.5t-195.5 -313.5t-157 -313.5t-99.5 -285.5q-25 -100 -25 -179q0 -26 3 -50q11 -96 73 -145q44 -35 122 -34q30 0 64 5 q94 12 179 55t164 100.5t155 124.5l150 133q75 66 152 121t158 88q16 6 30 6q25 0 43 -19q18 -20 18 -45q0 -13 -5 -28q-14 -43 -88.5 -111.5t-183 -146.5t-238 -152.5t-253 -130t-229.5 -79.5q-53 -12 -94.5 -12t-72.5 12zM995 2332q-63 -45 -93 -50t-35 18.5t11.5 68.5 t49 98.5t75.5 108.5t92 100t99.5 72t95.5 25q16 -74 -13.5 -129.5t-79.5 -104.5t-107.5 -98.5t-94.5 -108.5z" />
<glyph unicode="&#x107;" horiz-adv-x="1398" d="M256 29q-127 43 -169 132q-29 61 -29 133q0 34 7 70q19 114 86.5 239.5t158.5 241.5t194.5 208t193.5 140q74 40 132 40q12 0 23 -2q65 -10 81 -101q2 -12 2 -23q0 -31 -11 -65q-15 -47 -44 -91t-65 -79.5t-69.5 -54t-60.5 -13.5t-35 44q31 51 68 100l74 96q-9 17 -31 18 q-12 0 -27 -5q-43 -14 -101.5 -59.5t-126 -113t-129 -148.5t-110.5 -167t-71 -167q-15 -54 -15 -102q0 -24 3 -46q11 -68 71 -113q17 -1 35 -1q69 0 153 19q106 24 219 60.5t225 81.5l203 82q91 37 154 57q45 15 69 15q9 0 15 -2q26 -13 26 -33q0 -8 -4 -18 q-15 -32 -68.5 -70.5t-135.5 -80.5t-179.5 -82t-201.5 -73t-200.5 -53t-177.5 -26q-19 -1 -37 -1q-56 1 -95 13zM791 1456q-63 -45 -93 -50t-35 18.5t11.5 68.5t49 98.5t75.5 108.5t92 100t99.5 72t95.5 25q16 -74 -13.5 -129.5t-79.5 -104.5t-107.5 -98.5t-94.5 -108.5z " />
<glyph unicode="&#x108;" horiz-adv-x="1581" d="M268 29q-121 49 -180 134t-68 196q-2 21 -1 44q0 93 28 199q35 131 100.5 272.5t154.5 286t188.5 281.5t204 262t199.5 225.5t176 172t132 102.5q90 53 150.5 53t96.5 -37t49 -100q12 -59 12 -125q0 -76 -14 -154q-13 -72 -33.5 -124t-45 -76.5t-47.5 -2.5q-2 20 5 61.5 t18.5 93.5t21.5 106.5t15 101.5q2 19 1 35q0 25 -4 44q-6 32 -28 38q-20 5 -42 5q-57 0 -125 -35q-95 -48 -201.5 -144.5t-217.5 -229.5t-215 -285.5t-195.5 -313.5t-157 -313.5t-99.5 -285.5q-25 -100 -25 -179q0 -26 3 -50q11 -96 73 -145q44 -35 122 -34q30 0 64 5 q94 12 179 55t164 100.5t155 124.5l150 133q75 66 152 121t158 88q16 6 30 6q25 0 43 -19q18 -20 18 -45q0 -13 -5 -28q-14 -43 -88.5 -111.5t-183 -146.5t-238 -152.5t-253 -130t-229.5 -79.5q-53 -12 -94.5 -12t-72.5 12zM1292 2476q-4 4 -12 39l-21 83l-26 100 q-14 52 -28.5 95t-29 66.5t-24.5 11.5q-6 -10 -22 -48l-36 -85q-20 -47 -46.5 -97.5t-55.5 -88t-60.5 -53t-62.5 4.5q-12 8 -25.5 22.5t-3.5 33.5l40 78l60 119l60 119q29 56 39 79q55 119 102.5 150.5t84 5t64.5 -97t45 -157.5t23.5 -175.5t1.5 -149.5t-21.5 -82.5 t-45.5 27.5z" />
<glyph unicode="&#x109;" horiz-adv-x="1398" d="M256 29q-127 43 -169 132q-29 61 -29 133q0 34 7 70q19 114 86.5 239.5t158.5 241.5t194.5 208t193.5 140q74 40 132 40q12 0 23 -2q65 -10 81 -101q2 -12 2 -23q0 -31 -11 -65q-15 -47 -44 -91t-65 -79.5t-69.5 -54t-60.5 -13.5t-35 44q31 51 68 100l74 96q-9 17 -31 18 q-12 0 -27 -5q-43 -14 -101.5 -59.5t-126 -113t-129 -148.5t-110.5 -167t-71 -167q-15 -54 -15 -102q0 -24 3 -46q11 -68 71 -113q17 -1 35 -1q69 0 153 19q106 24 219 60.5t225 81.5l203 82q91 37 154 57q45 15 69 15q9 0 15 -2q26 -13 26 -33q0 -8 -4 -18 q-15 -32 -68.5 -70.5t-135.5 -80.5t-179.5 -82t-201.5 -73t-200.5 -53t-177.5 -26q-19 -1 -37 -1q-56 1 -95 13zM930 1364q-4 4 -12 39l-21 83l-26 100q-14 52 -28.5 95t-29 66.5t-24.5 11.5q-6 -10 -22 -48l-36 -85q-20 -47 -46.5 -97.5t-55.5 -88t-60.5 -53t-62.5 4.5 q-12 8 -25.5 22.5t-3.5 33.5l40 78l60 119l60 119q29 56 39 79q55 119 102.5 150.5t84 5t64.5 -97t45 -157.5t23.5 -175.5t1.5 -149.5t-21.5 -82.5t-45.5 27.5z" />
<glyph unicode="&#x10a;" horiz-adv-x="1581" d="M268 29q-121 49 -180 134t-68 196q-2 21 -1 44q0 93 28 199q35 131 100.5 272.5t154.5 286t188.5 281.5t204 262t199.5 225.5t176 172t132 102.5q90 53 150.5 53t96.5 -37t49 -100q12 -59 12 -125q0 -76 -14 -154q-13 -72 -33.5 -124t-45 -76.5t-47.5 -2.5q-2 20 5 61.5 t18.5 93.5t21.5 106.5t15 101.5q2 19 1 35q0 25 -4 44q-6 32 -28 38q-20 5 -42 5q-57 0 -125 -35q-95 -48 -201.5 -144.5t-217.5 -229.5t-215 -285.5t-195.5 -313.5t-157 -313.5t-99.5 -285.5q-25 -100 -25 -179q0 -26 3 -50q11 -96 73 -145q44 -35 122 -34q30 0 64 5 q94 12 179 55t164 100.5t155 124.5l150 133q75 66 152 121t158 88q16 6 30 6q25 0 43 -19q18 -20 18 -45q0 -13 -5 -28q-14 -43 -88.5 -111.5t-183 -146.5t-238 -152.5t-253 -130t-229.5 -79.5q-53 -12 -94.5 -12t-72.5 12zM946 2384q-39 51 -38 103.5t26.5 95.5t68.5 72.5 t89 35.5t90 -17.5t71 -84.5q16 -37 7 -76t-35.5 -74t-63.5 -61.5t-76 -36.5t-76.5 -1t-62.5 44z" />
<glyph unicode="&#x10b;" horiz-adv-x="1398" d="M256 29q-127 43 -169 132q-29 61 -29 133q0 34 7 70q19 114 86.5 239.5t158.5 241.5t194.5 208t193.5 140q74 40 132 40q12 0 23 -2q65 -10 81 -101q2 -12 2 -23q0 -31 -11 -65q-15 -47 -44 -91t-65 -79.5t-69.5 -54t-60.5 -13.5t-35 44q31 51 68 100l74 96q-9 17 -31 18 q-12 0 -27 -5q-43 -14 -101.5 -59.5t-126 -113t-129 -148.5t-110.5 -167t-71 -167q-15 -54 -15 -102q0 -24 3 -46q11 -68 71 -113q17 -1 35 -1q69 0 153 19q106 24 219 60.5t225 81.5l203 82q91 37 154 57q45 15 69 15q9 0 15 -2q26 -13 26 -33q0 -8 -4 -18 q-15 -32 -68.5 -70.5t-135.5 -80.5t-179.5 -82t-201.5 -73t-200.5 -53t-177.5 -26q-19 -1 -37 -1q-56 1 -95 13zM572 1452q-39 51 -38 103.5t26.5 95.5t68.5 72.5t89 35.5t90 -17.5t71 -84.5q16 -37 7 -76t-35.5 -74t-63.5 -61.5t-76 -36.5t-76.5 -1t-62.5 44z" />
<glyph unicode="&#x10c;" horiz-adv-x="1581" d="M268 29q-121 49 -180 134t-68 196q-2 21 -1 44q0 93 28 199q35 131 100.5 272.5t154.5 286t188.5 281.5t204 262t199.5 225.5t176 172t132 102.5q90 53 150.5 53t96.5 -37t49 -100q12 -59 12 -125q0 -76 -14 -154q-13 -72 -33.5 -124t-45 -76.5t-47.5 -2.5q-2 20 5 61.5 t18.5 93.5t21.5 106.5t15 101.5q2 19 1 35q0 25 -4 44q-6 32 -28 38q-20 5 -42 5q-57 0 -125 -35q-95 -48 -201.5 -144.5t-217.5 -229.5t-215 -285.5t-195.5 -313.5t-157 -313.5t-99.5 -285.5q-25 -100 -25 -179q0 -26 3 -50q11 -96 73 -145q44 -35 122 -34q30 0 64 5 q94 12 179 55t164 100.5t155 124.5l150 133q75 66 152 121t158 88q16 6 30 6q25 0 43 -19q18 -20 18 -45q0 -13 -5 -28q-14 -43 -88.5 -111.5t-183 -146.5t-238 -152.5t-253 -130t-229.5 -79.5q-53 -12 -94.5 -12t-72.5 12zM1294 2663q33 25 47 3t11 -61.5t-23.5 -87 t-55 -75t-84 -24.5t-112.5 63q-10 8 -34 29l-50 45l-51 45q-25 22 -35 30q-8 8 4 13.5t23 7.5q39 12 77.5 -6.5t72.5 -46t57.5 -54.5t31.5 -33q14 -6 33.5 15.5t38 51.5t32 55.5t17.5 29.5z" />
<glyph unicode="&#x10d;" horiz-adv-x="1398" d="M256 29q-127 43 -169 132q-29 61 -29 133q0 34 7 70q19 114 86.5 239.5t158.5 241.5t194.5 208t193.5 140q74 40 132 40q12 0 23 -2q65 -10 81 -101q2 -12 2 -23q0 -31 -11 -65q-15 -47 -44 -91t-65 -79.5t-69.5 -54t-60.5 -13.5t-35 44q31 51 68 100l74 96q-9 17 -31 18 q-12 0 -27 -5q-43 -14 -101.5 -59.5t-126 -113t-129 -148.5t-110.5 -167t-71 -167q-15 -54 -15 -102q0 -24 3 -46q11 -68 71 -113q17 -1 35 -1q69 0 153 19q106 24 219 60.5t225 81.5l203 82q91 37 154 57q45 15 69 15q9 0 15 -2q26 -13 26 -33q0 -8 -4 -18 q-15 -32 -68.5 -70.5t-135.5 -80.5t-179.5 -82t-201.5 -73t-200.5 -53t-177.5 -26q-19 -1 -37 -1q-56 1 -95 13zM952 1704q33 25 47 3t11 -61.5t-23.5 -87t-55 -75t-84 -24.5t-112.5 63q-10 8 -34 29l-50 45l-51 45q-25 22 -35 30q-8 8 4 13.5t23 7.5q39 12 77.5 -6.5 t72.5 -46t57.5 -54.5t31.5 -33q14 -6 33.5 15.5t38 51.5t32 55.5t17.5 29.5z" />
<glyph unicode="&#x10e;" horiz-adv-x="2058" d="M57 29q-5 15 -5 29q0 20 10 37q17 30 53 46l310 151l307 148q153 76 302.5 161t294.5 190q285 203 464 382t271.5 329.5t106.5 273.5q4 31 4 60q0 86 -32 155q-42 92 -132 151.5t-208 84.5q-84 18 -178 18q-38 0 -77 -2q-137 -10 -273 -57.5t-261 -134.5t-221 -214 q-2 -4 -7.5 -16.5t-9.5 -26.5l-8 -28q-4 -13 -4 -15l-150 -362q-76 -180 -145.5 -362.5t-131 -368t-110.5 -375.5q-20 -6 -35 -7q-18 0 -29 10q-21 18 -21 60q0 34 10 76q10 47 25.5 93t29.5 83t20 51l43 119l65 179l76 211l75 211l65 179l43 119q-14 45 -14 84q0 25 6 46 q14 56 50 102.5t85 86.5l98 76q113 86 225.5 139.5t230.5 81t242 34.5q58 3 119 4q70 0 144 -5q104 -6 198.5 -56t169.5 -114q121 -100 140 -228q4 -31 4 -62q0 -100 -44 -209q-58 -143 -181 -297t-284 -305.5t-348.5 -296t-375 -269.5t-363.5 -224t-313 -160.5t-225 -81.5 q-32 -7 -54 -7q-39 1 -47 23zM1352 2679q33 25 47 3t11 -61.5t-23.5 -87t-55 -75t-84 -24.5t-112.5 63q-10 8 -34 29l-50 45l-51 45q-25 22 -35 30q-8 8 4 13.5t23 7.5q39 12 77.5 -6.5t72.5 -46t57.5 -54.5t31.5 -33q14 -6 33.5 15.5t38 51.5t32 55.5t17.5 29.5z" />
<glyph unicode="&#x116;" horiz-adv-x="1863" d="M43 57q-4 5 -4 11q0 9 12 18q25 90 52.5 172t58.5 164l64 165l71 175q12 25 -5.5 48.5t-38 48t-30.5 49t19 53.5q2 2 19.5 6l36.5 8t35.5 8t20.5 6q8 4 30 25.5t26 29.5l80 145q42 77 80 157.5t71 161.5t51 159q6 20 -3 30.5t-25.5 15.5t-35 9t-32.5 13.5t-20.5 26 t4.5 46.5q8 23 66.5 51.5t150.5 60.5t211.5 63.5t251 60.5t265.5 52.5t257 37.5t224 18l52 2q67 0 115 -9q66 -11 88 -38q9 -10 9 -23q0 -21 -23 -50q-23 -6 -46.5 -1t-49 12t-52 13t-51.5 4q-240 -23 -469 -79l-463 -119q-63 -16 -127.5 -61.5t-124 -107t-112 -135 t-90 -149.5t-60 -148.5t-22.5 -132.5v-86q7 -2 18 -1q30 0 86 13q76 17 174 43l208 52q110 27 207 38q49 6 91 5.5t79 -5.5q73 -11 97 -59q2 -4 2 -14t-2 -14q-133 -20 -273.5 -35.5t-279.5 -40.5t-271 -65.5t-249 -112.5q-96 -166 -171 -344t-134 -363q72 27 168 51.5 t185 44t155.5 32t79.5 14.5q106 16 207.5 29.5t202 21.5t201.5 10q25 1 51 1q77 0 157 -5q16 -4 23 -20.5t9.5 -35t0 -35t-4.5 -24.5q-80 4 -159 4q-193 0 -381 -24q-266 -35 -535 -92q-43 -10 -103.5 -34t-124 -44.5t-123.5 -27.5q-13 -2 -25 -1q-44 0 -74 21 q-10 4 -17.5 11t-11.5 19zM1192 2218q-39 51 -38 103.5t26.5 95.5t68.5 72.5t89 35.5t90 -17.5t71 -84.5q16 -37 7 -76t-35.5 -74t-63.5 -61.5t-76 -36.5t-76.5 -1t-62.5 44z" />
<glyph unicode="&#x117;" horiz-adv-x="1087" d="M213 29q-76 25 -115 76t-51 113q-7 36 -7 74q0 28 4 57q9 69 28 130l170 186q94 103 199.5 203.5t219 185.5t230.5 132q26 11 46 10q26 0 39 -18q24 -33 23.5 -86.5t-16.5 -109.5t-37 -79q-23 -27 -78 -64l-128 -85l-154 -102q-82 -54 -158 -109.5t-137.5 -111.5 t-92.5 -108q-26 -43 -26 -82q0 -9 1 -17q7 -46 69 -83q30 -4 63 -3q64 0 144 13q121 19 247.5 50.5t243.5 65.5t193 52l28 -26q-37 -47 -105.5 -91t-156.5 -79t-186.5 -61.5t-191.5 -39t-174 -12t-134 18.5zM750 903q-1 1 -3 1q-5 0 -20 -7q-20 -10 -49 -27.5t-61 -40.5 l-58 -42q-27 -19 -43 -32q-13 -11 -13 -14q0 -2 3 -2q9 0 44 20q40 24 85 54l81 57q36 27 34 33zM555 1399q-39 51 -38 103.5t26.5 95.5t68.5 72.5t89 35.5t90 -17.5t71 -84.5q16 -37 7 -76t-35.5 -74t-63.5 -61.5t-76 -36.5t-76.5 -1t-62.5 44z" />
<glyph unicode="&#x11a;" horiz-adv-x="1863" d="M43 57q-4 5 -4 11q0 9 12 18q25 90 52.5 172t58.5 164l64 165l71 175q12 25 -5.5 48.5t-38 48t-30.5 49t19 53.5q2 2 19.5 6l36.5 8t35.5 8t20.5 6q8 4 30 25.5t26 29.5l80 145q42 77 80 157.5t71 161.5t51 159q6 20 -3 30.5t-25.5 15.5t-35 9t-32.5 13.5t-20.5 26 t4.5 46.5q8 23 66.5 51.5t150.5 60.5t211.5 63.5t251 60.5t265.5 52.5t257 37.5t224 18l52 2q67 0 115 -9q66 -11 88 -38q9 -10 9 -23q0 -21 -23 -50q-23 -6 -46.5 -1t-49 12t-52 13t-51.5 4q-240 -23 -469 -79l-463 -119q-63 -16 -127.5 -61.5t-124 -107t-112 -135 t-90 -149.5t-60 -148.5t-22.5 -132.5v-86q7 -2 18 -1q30 0 86 13q76 17 174 43l208 52q110 27 207 38q49 6 91 5.5t79 -5.5q73 -11 97 -59q2 -4 2 -14t-2 -14q-133 -20 -273.5 -35.5t-279.5 -40.5t-271 -65.5t-249 -112.5q-96 -166 -171 -344t-134 -363q72 27 168 51.5 t185 44t155.5 32t79.5 14.5q106 16 207.5 29.5t202 21.5t201.5 10q25 1 51 1q77 0 157 -5q16 -4 23 -20.5t9.5 -35t0 -35t-4.5 -24.5q-80 4 -159 4q-193 0 -381 -24q-266 -35 -535 -92q-43 -10 -103.5 -34t-124 -44.5t-123.5 -27.5q-13 -2 -25 -1q-44 0 -74 21 q-10 4 -17.5 11t-11.5 19zM1282 2368q33 25 47 3t11 -61.5t-23.5 -87t-55 -75t-84 -24.5t-112.5 63q-10 8 -34 29l-50 45l-51 45q-25 22 -35 30q-8 8 4 13.5t23 7.5q39 12 77.5 -6.5t72.5 -46t57.5 -54.5t31.5 -33q14 -6 33.5 15.5t38 51.5t32 55.5t17.5 29.5z" />
<glyph unicode="&#x11b;" horiz-adv-x="1087" d="M213 29q-76 25 -115 76t-51 113q-7 36 -7 74q0 28 4 57q9 69 28 130l170 186q94 103 199.5 203.5t219 185.5t230.5 132q26 11 46 10q26 0 39 -18q24 -33 23.5 -86.5t-16.5 -109.5t-37 -79q-23 -27 -78 -64l-128 -85l-154 -102q-82 -54 -158 -109.5t-137.5 -111.5 t-92.5 -108q-26 -43 -26 -82q0 -9 1 -17q7 -46 69 -83q30 -4 63 -3q64 0 144 13q121 19 247.5 50.5t243.5 65.5t193 52l28 -26q-37 -47 -105.5 -91t-156.5 -79t-186.5 -61.5t-191.5 -39t-174 -12t-134 18.5zM750 903q-1 1 -3 1q-5 0 -20 -7q-20 -10 -49 -27.5t-61 -40.5 l-58 -42q-27 -19 -43 -32q-13 -11 -13 -14q0 -2 3 -2q9 0 44 20q40 24 85 54l81 57q36 27 34 33zM754 1483q33 25 47 3t11 -61.5t-23.5 -87t-55 -75t-84 -24.5t-112.5 63q-10 8 -34 29l-50 45l-51 45q-25 22 -35 30q-8 8 4 13.5t23 7.5q39 12 77.5 -6.5t72.5 -46t57.5 -54.5 t31.5 -33q14 -6 33.5 15.5t38 51.5t32 55.5t17.5 29.5z" />
<glyph unicode="&#x11c;" d="M184 29q-106 76 -139 196q-19 70 -19 149q0 57 10 118q24 145 93.5 308t167.5 323.5t215 309t235.5 268.5t230.5 200.5t196 103.5q22 6 43 6q25 0 49 -8q45 -14 82.5 -46t63.5 -74t32 -84q2 -11 2 -22q0 -29 -12 -56q-16 -36 -64 -54q-10 -4 -25.5 -4t-15.5 4v197 q0 6 -12 12t-28.5 10t-34 6t-25.5 0q-123 -31 -241 -111.5t-220 -185t-187 -220t-143 -216.5q-166 -293 -243.5 -487.5t-85.5 -310.5l-2 -31q0 -91 44 -130q45 -41 119 -42q8 0 17 1q86 5 197.5 51t227 115.5t226.5 152.5t192.5 162t125.5 142q33 48 34 77q0 10 -4 18 q-14 2 -28 2q-29 0 -60 -9q-47 -12 -82 -22l-85 -28l-128 -42l-127 -43l-84 -28q-35 -12 -58.5 6t-31.5 45.5t-1 55.5t36 34t95 29l153 53l186 65q100 35 197.5 65t183.5 50t145 23h11q51 0 73 -18q12 -10 12.5 -27.5t-12.5 -43.5q-14 -16 -47 -50l-74 -75l-89 -89l-88 -87 l-75 -74q-34 -34 -51 -48q-10 -8 -56 -49l-104 -89l-116 -97l-90 -75l-83 -68q-50 -42 -111.5 -86t-129 -84t-135.5 -62q-65 -21 -126 -20h-6q-65 1 -116 38zM1466 2157q-4 4 -12 39l-21 83l-26 100q-14 52 -28.5 95t-29 66.5t-24.5 11.5q-6 -10 -22 -48l-36 -85 q-20 -47 -46.5 -97.5t-55.5 -88t-60.5 -53t-62.5 4.5q-12 8 -25.5 22.5t-3.5 33.5l40 78l60 119l60 119q29 56 39 79q55 119 102.5 150.5t84 5t64.5 -97t45 -157.5t23.5 -175.5t1.5 -149.5t-21.5 -82.5t-45.5 27.5z" />
<glyph unicode="&#x11d;" horiz-adv-x="903" d="M-340 -707q-78 29 -127 83.5t-74.5 119t-31.5 129.5q-2 26 -3 50q0 36 6 66q9 50 29.5 76.5t48.5 12.5v-16q0 -205 52 -313q53 -112 139 -140q34 -11 73 -11q57 0 123 25q110 43 220 131t210.5 212t171 257.5t100.5 265.5q14 63 14 119q0 63 -17 119q-180 -129 -296 -181 q-104 -47 -164 -47q-7 0 -13 1q-61 6 -77 60q-7 24 -7 54q0 37 11 83q19 82 67.5 181t112 194.5t138 177t148.5 130t138 52.5h9q59 0 101 -56q57 -78 72 -208q6 -51 5 -107q0 -87 -14 -184q-23 -160 -78 -335t-138 -341t-188.5 -309.5t-227 -238.5t-256.5 -130 q-53 -14 -108 -14q-84 0 -169 32zM170 537q-4 -8 -5 -29t-1 -43.5t1 -42t5 -27.5q21 -6 43 -5q40 0 81 20q62 31 121.5 87t109.5 128.5t85 144.5t53 131q11 39 11 65q0 14 -3 24q-7 23 -32 23q-8 0 -16 -2q-39 -9 -115 -79l-79 -74q-50 -47 -102.5 -102.5t-96.5 -113.5 t-60 -105zM895 1346q-4 4 -12 39l-21 83l-26 100q-14 52 -28.5 95t-29 66.5t-24.5 11.5q-6 -10 -22 -48l-36 -85q-20 -47 -46.5 -97.5t-55.5 -88t-60.5 -53t-62.5 4.5q-12 8 -25.5 22.5t-3.5 33.5l40 78l60 119l60 119q29 56 39 79q55 119 102.5 150.5t84 5t64.5 -97 t45 -157.5t23.5 -175.5t1.5 -149.5t-21.5 -82.5t-45.5 27.5z" />
<glyph unicode="&#x11e;" d="M184 29q-106 76 -139 196q-19 70 -19 149q0 57 10 118q24 145 93.5 308t167.5 323.5t215 309t235.5 268.5t230.5 200.5t196 103.5q22 6 43 6q25 0 49 -8q45 -14 82.5 -46t63.5 -74t32 -84q2 -11 2 -22q0 -29 -12 -56q-16 -36 -64 -54q-10 -4 -25.5 -4t-15.5 4v197 q0 6 -12 12t-28.5 10t-34 6t-25.5 0q-123 -31 -241 -111.5t-220 -185t-187 -220t-143 -216.5q-166 -293 -243.5 -487.5t-85.5 -310.5l-2 -31q0 -91 44 -130q45 -41 119 -42q8 0 17 1q86 5 197.5 51t227 115.5t226.5 152.5t192.5 162t125.5 142q33 48 34 77q0 10 -4 18 q-14 2 -28 2q-29 0 -60 -9q-47 -12 -82 -22l-85 -28l-128 -42l-127 -43l-84 -28q-35 -12 -58.5 6t-31.5 45.5t-1 55.5t36 34t95 29l153 53l186 65q100 35 197.5 65t183.5 50t145 23h11q51 0 73 -18q12 -10 12.5 -27.5t-12.5 -43.5q-14 -16 -47 -50l-74 -75l-89 -89l-88 -87 l-75 -74q-34 -34 -51 -48q-10 -8 -56 -49l-104 -89l-116 -97l-90 -75l-83 -68q-50 -42 -111.5 -86t-129 -84t-135.5 -62q-65 -21 -126 -20h-6q-65 1 -116 38zM1046 2384q59 -37 61.5 -84t-30.5 -88t-91.5 -65.5t-121 -15.5t-119.5 59.5t-86 160.5q-4 4 2 11.5t16 13.5l21 12 q10 6 16 6q16 -25 41 -55.5t53.5 -55t60.5 -38t63.5 -6t60 41t53.5 103.5z" />
<glyph unicode="&#x11f;" horiz-adv-x="903" d="M-340 -707q-78 29 -127 83.5t-74.5 119t-31.5 129.5q-2 26 -3 50q0 36 6 66q9 50 29.5 76.5t48.5 12.5v-16q0 -205 52 -313q53 -112 139 -140q34 -11 73 -11q57 0 123 25q110 43 220 131t210.5 212t171 257.5t100.5 265.5q14 63 14 119q0 63 -17 119q-180 -129 -296 -181 q-104 -47 -164 -47q-7 0 -13 1q-61 6 -77 60q-7 24 -7 54q0 37 11 83q19 82 67.5 181t112 194.5t138 177t148.5 130t138 52.5h9q59 0 101 -56q57 -78 72 -208q6 -51 5 -107q0 -87 -14 -184q-23 -160 -78 -335t-138 -341t-188.5 -309.5t-227 -238.5t-256.5 -130 q-53 -14 -108 -14q-84 0 -169 32zM170 537q-4 -8 -5 -29t-1 -43.5t1 -42t5 -27.5q21 -6 43 -5q40 0 81 20q62 31 121.5 87t109.5 128.5t85 144.5t53 131q11 39 11 65q0 14 -3 24q-7 23 -32 23q-8 0 -16 -2q-39 -9 -115 -79l-79 -74q-50 -47 -102.5 -102.5t-96.5 -113.5 t-60 -105zM678 1575q59 -37 61.5 -84t-30.5 -88t-91.5 -65.5t-121 -15.5t-119.5 59.5t-86 160.5q-4 4 2 11.5t16 13.5l21 12q10 6 16 6q16 -25 41 -55.5t53.5 -55t60.5 -38t63.5 -6t60 41t53.5 103.5z" />
<glyph unicode="&#x120;" d="M184 29q-106 76 -139 196q-19 70 -19 149q0 57 10 118q24 145 93.5 308t167.5 323.5t215 309t235.5 268.5t230.5 200.5t196 103.5q22 6 43 6q25 0 49 -8q45 -14 82.5 -46t63.5 -74t32 -84q2 -11 2 -22q0 -29 -12 -56q-16 -36 -64 -54q-10 -4 -25.5 -4t-15.5 4v197 q0 6 -12 12t-28.5 10t-34 6t-25.5 0q-123 -31 -241 -111.5t-220 -185t-187 -220t-143 -216.5q-166 -293 -243.5 -487.5t-85.5 -310.5l-2 -31q0 -91 44 -130q45 -41 119 -42q8 0 17 1q86 5 197.5 51t227 115.5t226.5 152.5t192.5 162t125.5 142q33 48 34 77q0 10 -4 18 q-14 2 -28 2q-29 0 -60 -9q-47 -12 -82 -22l-85 -28l-128 -42l-127 -43l-84 -28q-35 -12 -58.5 6t-31.5 45.5t-1 55.5t36 34t95 29l153 53l186 65q100 35 197.5 65t183.5 50t145 23h11q51 0 73 -18q12 -10 12.5 -27.5t-12.5 -43.5q-14 -16 -47 -50l-74 -75l-89 -89l-88 -87 l-75 -74q-34 -34 -51 -48q-10 -8 -56 -49l-104 -89l-116 -97l-90 -75l-83 -68q-50 -42 -111.5 -86t-129 -84t-135.5 -62q-65 -21 -126 -20h-6q-65 1 -116 38zM1012 2226q-39 51 -38 103.5t26.5 95.5t68.5 72.5t89 35.5t90 -17.5t71 -84.5q16 -37 7 -76t-35.5 -74 t-63.5 -61.5t-76 -36.5t-76.5 -1t-62.5 44z" />
<glyph unicode="&#x121;" horiz-adv-x="903" d="M-340 -707q-78 29 -127 83.5t-74.5 119t-31.5 129.5q-2 26 -3 50q0 36 6 66q9 50 29.5 76.5t48.5 12.5v-16q0 -205 52 -313q53 -112 139 -140q34 -11 73 -11q57 0 123 25q110 43 220 131t210.5 212t171 257.5t100.5 265.5q14 63 14 119q0 63 -17 119q-180 -129 -296 -181 q-104 -47 -164 -47q-7 0 -13 1q-61 6 -77 60q-7 24 -7 54q0 37 11 83q19 82 67.5 181t112 194.5t138 177t148.5 130t138 52.5h9q59 0 101 -56q57 -78 72 -208q6 -51 5 -107q0 -87 -14 -184q-23 -160 -78 -335t-138 -341t-188.5 -309.5t-227 -238.5t-256.5 -130 q-53 -14 -108 -14q-84 0 -169 32zM170 537q-4 -8 -5 -29t-1 -43.5t1 -42t5 -27.5q21 -6 43 -5q40 0 81 20q62 31 121.5 87t109.5 128.5t85 144.5t53 131q11 39 11 65q0 14 -3 24q-7 23 -32 23q-8 0 -16 -2q-39 -9 -115 -79l-79 -74q-50 -47 -102.5 -102.5t-96.5 -113.5 t-60 -105zM473 1348q-39 51 -38 103.5t26.5 95.5t68.5 72.5t89 35.5t90 -17.5t71 -84.5q16 -37 7 -76t-35.5 -74t-63.5 -61.5t-76 -36.5t-76.5 -1t-62.5 44z" />
<glyph unicode="&#x124;" horiz-adv-x="1771" d="M86 29q-20 29 -20 87q0 15 2 31q6 82 32.5 185.5t65.5 218.5t79 218l73 184l51 120l52 121l80 185l93 217l93 216l80 185l52 121q21 7 37 7q24 0 33 -19q7 -15 7 -38t-7 -54q-14 -62 -50 -150t-81 -187l-92 -199q-47 -101 -85 -191.5t-59 -161.5q-15 -50 -14 -83 q0 -13 2 -24q25 -3 53 -3q24 0 51 2q59 5 121 15t120 21.5t106 19.5q152 25 261 64t190 95t139.5 128t108.5 165t98 206l108 247q20 43 37.5 36t30 -35.5t16.5 -64.5q2 -18 2 -30.5t-2 -19.5q-2 -6 -14.5 -32t-28 -53.5t-27.5 -52t-14 -30.5q-4 -10 -13 -35l-17 -51l-17 -51 q-8 -25 -11 -33q10 -4 32 -25.5t26 -32.5q2 -8 1 -16q0 -37 -29 -81q-36 -54 -87 -111l-100 -113q-49 -55 -68 -103q-100 -248 -175 -497.5t-108 -517.5q-8 -14 -23 -27q-8 -7 -18 -7q-8 0 -16 5q-1 12 -1 27q0 50 11 125q14 96 37 209.5t50 231.5l52 215q24 97 38 162.5 t12 73.5q-32 6 -76 7q-26 0 -57 -2q-82 -6 -180.5 -22.5t-204 -40t-203.5 -48.5t-183 -49l-141 -41q-43 -94 -70 -208l-56 -229q-28 -116 -63.5 -222.5t-92.5 -188.5q-4 2 -15.5 13.5t-13.5 15.5zM1591 2173q-4 4 -12 39l-21 83l-26 100q-14 52 -28.5 95t-29 66.5 t-24.5 11.5q-6 -10 -22 -48l-36 -85q-20 -47 -46.5 -97.5t-55.5 -88t-60.5 -53t-62.5 4.5q-12 8 -25.5 22.5t-3.5 33.5l40 78l60 119l60 119q29 56 39 79q55 119 102.5 150.5t84 5t64.5 -97t45 -157.5t23.5 -175.5t1.5 -149.5t-21.5 -82.5t-45.5 27.5z" />
<glyph unicode="&#x125;" horiz-adv-x="1384" d="M29 57q-2 4 -2 13.5t2 13.5q8 20 31 69l52 102l52 102l35 67q4 8 25 44l52 87l68 113l73 122l67 112l53 87q39 61 88 148l104 181l115 193l117 189q57 90 109 163.5t93 117.5t70 54q5 2 10 1q20 0 29 -31q2 -10 2 -42t-2 -42l-57 -89l-85 -137l-84 -137q-40 -65 -57 -90 l-73 -112l-112 -175l-128 -204l-118 -199q-52 -92 -83 -157q-24 -52 -24 -75q0 -6 2 -9q59 18 127.5 63t139.5 97l139 102q69 49 130 78q59 -8 106.5 -46t63.5 -96q-2 -16 -2 -49t-1 -75t-1 -88t1 -88t1 -74.5t2 -49.5q2 -27 24.5 -68.5t49.5 -81.5l48 -71q20 -28 20 -32 q0 -9 -50 -9q-24 0 -46 8q-44 16 -77.5 52t-55 83.5t-25.5 90.5q-4 25 -8.5 84l-9.5 126.5t-8 128t-3 85.5l-57 28q-14 6 -51.5 -13.5t-85.5 -55t-100 -79.5l-97 -84l-78 -70q-33 -30 -41 -38l-73 -72l-110 -111l-111 -111l-73 -72q-29 -7 -57 -8q-4 0 -7 1q-32 0 -48 35z M1419 2089q-4 4 -12 39l-21 83l-26 100q-14 52 -28.5 95t-29 66.5t-24.5 11.5q-6 -10 -22 -48l-36 -85q-20 -47 -46.5 -97.5t-55.5 -88t-60.5 -53t-62.5 4.5q-12 8 -25.5 22.5t-3.5 33.5l40 78l60 119l60 119q29 56 39 79q55 119 102.5 150.5t84 5t64.5 -97t45 -157.5 t23.5 -175.5t1.5 -149.5t-21.5 -82.5t-45.5 27.5z" />
<glyph unicode="&#x127;" horiz-adv-x="1384" d="M186 1130q-33 33 3 63t115 54.5t189.5 43t227.5 27.5t229.5 8t195.5 -16.5t125 -46t17 -77.5q-25 0 -89 -4l-137 -8.5l-137.5 -8.5t-88.5 -6q-61 -6 -152.5 -29.5t-186 -40t-178.5 -12.5t-133 53zM53 16q-2 4 -2 13.5t2 13.5q8 20 32 69l51 102l52 102l35 67q4 8 26 44 l52 87l68 113l72 122l68 112l52 87q39 61 88 148l105 181l114 193l117 189q57 90 109.5 163.5t93.5 118t69.5 53.5t38.5 -30q2 -10 2 -42t-2 -42l-56 -89l-85 -137l-85 -137l-56 -90l-73 -112l-113 -175l-128 -204l-117 -199q-52 -92 -83 -157.5t-23 -83.5q59 18 128 63 t139 97l140 102q69 49 130 78q59 -8 106 -46t64 -96q-2 -16 -2 -49t-1 -75t-1 -88t1 -88t1 -74.5t2 -49.5q2 -27 24.5 -68.5t48.5 -81.5l49 -71q22 -31 19 -33q-51 -16 -95 0.5t-78 52t-55.5 83t-25.5 90.5q-4 25 -8 84l-9 126.5t-8.5 128t-3.5 85.5l-57 28q-14 6 -51 -13 t-85 -55t-100 -80l-98 -84l-78 -70q-33 -30 -41 -38l-72 -72l-111 -111l-110 -111l-73 -72q-33 -8 -65 -7.5t-48 35.5z" />
<glyph unicode="&#x128;" horiz-adv-x="550" d="M29 84q-2 9 -3 24q0 11 2 24q3 32 9 64.5t12 57.5t8 29l566 1468q10 31 21 35q3 1 5 1q8 0 15 -10q8 -13 14 -38t9 -55q2 -18 2 -34q0 -11 -1 -23q-2 -28 -10 -46l-161 -380l-156 -385q-75 -194 -139 -390.5t-109 -396.5q-16 -11 -29 -11h-4q-14 2 -24.5 12.5t-17.5 26 t-9 27.5zM623 1931q-49 31 -78.5 79t-47 101t-28 102.5t-22.5 81t-30.5 36.5t-52.5 -28.5t-87 -116.5t-135 -226q-45 -14 -56.5 19.5t3 94t48 134t79 137t98.5 104.5t104 37t97.5 -66.5t78.5 -206.5q25 -106 66 -147t94 -38t116.5 40t130.5 85l136 97q70 49 135 76 q14 -23 -14.5 -70t-84.5 -100t-131 -106.5t-151.5 -89t-147.5 -47t-120 17.5z" />
<glyph unicode="&#x130;" horiz-adv-x="550" d="M29 84q-2 9 -3 24q0 11 2 24q3 32 9 64.5t12 57.5t8 29l566 1468q10 31 21 35q3 1 5 1q8 0 15 -10q8 -13 14 -38t9 -55q2 -18 2 -34q0 -11 -1 -23q-2 -28 -10 -46l-161 -380l-156 -385q-75 -194 -139 -390.5t-109 -396.5q-16 -11 -29 -11h-4q-14 2 -24.5 12.5t-17.5 26 t-9 27.5zM520 1968q-39 51 -38 103.5t26.5 95.5t68.5 72.5t89 35.5t90 -17.5t71 -84.5q16 -37 7 -76t-35.5 -74t-63.5 -61.5t-76 -36.5t-76.5 -1t-62.5 44z" />
<glyph unicode="&#x134;" horiz-adv-x="1554" d="M213 29q-27 12 -59.5 49t-62.5 85t-53.5 101t-30.5 100q-3 16 -2 30q0 27 8 47q13 32 59 38q2 -35 8 -89t23.5 -107.5t50 -94.5t88.5 -47q34 -4 65 -4q104 0 189 41q111 53 195.5 151.5t147 228.5t108.5 267.5t80 268.5l60 233q2 12 16 63l27 107l27 108q12 50 17 62 q11 42 11 71q0 19 -5 34q-12 35 -45 44q-15 4 -34 4q-23 0 -50 -6q-51 -11 -110 -31l-121 -42q-62 -23 -118.5 -39t-103.5 -21q-9 -1 -17 0q-36 0 -59 15q-40 26 -40 52q0 8 4 16q17 34 83 65t169.5 58.5t222 52t243.5 46t232.5 37t188.5 25.5l114 14q41 6 116 16l153 18 l137.5 15.5t72.5 6.5q47 4 118.5 6t139.5 2t117 -2t49 -6l29 -84q-68 -4 -183.5 -7.5t-253 -11.5t-284 -22.5t-274.5 -38t-225 -59t-136 -87.5q-20 -57 -50 -178l-71 -276q-41 -156 -94 -332t-121 -345t-147.5 -315.5t-175 -241.5t-205.5 -125q-35 -9 -73 -10q-78 1 -165 44 zM1520 2210q-4 4 -12 39l-21 83l-26 100q-14 52 -28.5 95t-29 66.5t-24.5 11.5q-6 -10 -22 -48l-36 -85q-20 -47 -46.5 -97.5t-55.5 -88t-60.5 -53t-62.5 4.5q-12 8 -25.5 22.5t-3.5 33.5l40 78l60 119l60 119q29 56 39 79q55 119 102.5 150.5t84 5t64.5 -97t45 -157.5 t23.5 -175.5t1.5 -149.5t-21.5 -82.5t-45.5 27.5z" />
<glyph unicode="&#x135;" horiz-adv-x="466" d="M-608 -874q-61 27 -126 73.5t-100.5 105t-28.5 122t85 122.5q27 -4 31 -49t12 -100t33.5 -104.5t93.5 -57.5q115 -16 207 37t166.5 152.5t135 232.5t109.5 276.5t90 284.5l78 257q37 116 72 193t74 93q33 -10 31.5 -96t-30 -216t-80.5 -292t-122 -323t-156 -309.5 t-180 -251.5t-194.5 -148t-200.5 -2zM459 967q-4 4 -13 39l-20 83l-27 100q-14 52 -28.5 95t-28.5 66.5t-25 11.5q-6 -10 -21 -48l-36 -85q-20 -47 -47 -97.5t-55.5 -88t-60 -53t-62.5 4.5q-12 8 -25.5 22.5t-3.5 33.5l40 78l59 119l61 119q29 56 39 79q55 119 102 150.5 t84 5t64.5 -97t45 -157.5t23.5 -175.5t1 -149.5t-21 -82.5t-45 27.5z" />
<glyph unicode="&#x139;" horiz-adv-x="1751" d="M72 29q-20 12 -28 33q-6 17 -6 37q0 6 1 12q2 27 12 55.5t23 56.5q31 68 82 144l237 455l235 454l225 459q110 231 208 469q4 10 16.5 28.5t27.5 28.5q12 8 25 8q4 0 9 -1q18 -3 35 -36q11 -22 10 -54q0 -41 -17 -100q-31 -105 -96 -246.5t-159 -307.5l-191 -339 l-195 -341q-96 -168 -169.5 -312.5t-113.5 -253.5q-32 -87 -32 -141q0 -14 2 -24q81 -7 163 -8q97 0 194 11q179 19 359.5 48t360.5 51q117 15 234 15q64 0 129 -5q31 2 54 -24q13 -14 13 -31q0 -14 -10 -29q-6 0 -22.5 1t-34 1t-33.5 -1t-23 -1q-92 -8 -207 -25l-244 -37 l-262 -39q-134 -19 -267.5 -31.5t-258.5 -16.5q-31 -1 -61 -1q-90 0 -170 9q-4 0 -25.5 11.5t-29.5 17.5zM1020 2359q-63 -45 -93 -50t-35 18.5t11.5 68.5t49 98.5t75.5 108.5t92 100t99.5 72t95.5 25q16 -74 -13.5 -129.5t-79.5 -104.5t-107.5 -98.5t-94.5 -108.5z" />
<glyph unicode="&#x13a;" horiz-adv-x="819" d="M141 29q-72 51 -92 131q-12 47 -12 98q0 36 6 75q14 93 53 193.5t85 193.5t90 171t69 127q4 10 19 40l36 70l43 86l43 86l36 72l20 41q6 12 19 49t30.5 79t39 82t45.5 57q13 10 26 10l21 -6q24 -13 46 -74q-10 -25 -48 -100l-91 -180l-116 -232l-123 -257l-114 -255 q-53 -125 -85.5 -224.5t-40.5 -166.5q-1 -13 -1 -24q0 -47 25 -58q28 -15 71 -15h19q55 4 116 15l119 20q49 9 85 9q7 0 14 -1q10 -23 -14.5 -43t-69.5 -36.5t-103.5 -27.5t-111.5 -16q-35 -3 -67 -2h-29q-44 3 -58 13zM625 1810q-63 -45 -93 -50t-35 18.5t11.5 68.5 t49 98.5t75.5 108.5t92 100t99.5 72t95.5 25q16 -74 -13.5 -129.5t-79.5 -104.5t-107.5 -98.5t-94.5 -108.5z" />
<glyph unicode="&#x141;" horiz-adv-x="1751" d="M-29 688q-33 33 3 62.5t115 54t189.5 43t227.5 28t229.5 8.5t195.5 -16.5t125 -46t17 -78.5q-25 0 -89 -4t-137 -8t-137.5 -8t-88.5 -6q-61 -6 -152.5 -29.5t-186 -40t-178.5 -12.5t-133 53zM72 29q-20 12 -27.5 33.5t-5.5 48t12 55.5t23 57q31 68 82 144l237 455 l235 454l225 459q110 231 208 469q4 10 16.5 28.5t27.5 28.5t33.5 7t35.5 -36q25 -49 -6 -154.5t-96.5 -246.5t-159.5 -307l-191 -339l-195 -341q-96 -168 -169.5 -312.5t-113.5 -254t-30 -164.5q178 -16 357.5 3t359.5 48t360 51.5t363 9.5q31 2 54.5 -24.5t2.5 -59.5 q-6 0 -22.5 1t-34 1t-33.5 -1t-23 -1q-92 -8 -207 -25l-244 -37l-262 -39q-134 -19 -267.5 -31.5t-258.5 -16.5t-231 8q-4 0 -25.5 11.5t-29.5 17.5z" />
<glyph unicode="&#x142;" horiz-adv-x="819" d="M-117 707q-33 33 3 62.5t115 54t189.5 43t227.5 27.5t229.5 8t195.5 -16.5t125 -46t17 -77.5q-25 0 -89.5 -4l-137 -8.5l-137 -8.5t-89.5 -6q-61 -6 -152 -29.5t-185.5 -40t-178.5 -12t-133 53.5zM141 29q-72 51 -92 131t-6 173t53 193.5t85 193.5t90 171t69 127 q4 10 19 40l36 70l43 86l43 86l36 72l20 41q6 12 19 49t30.5 79t39 82t45 57.5t47 4t46.5 -74.5q-10 -25 -48 -100l-91 -180l-116 -232l-123 -257l-114 -255q-53 -125 -85.5 -224.5t-40 -167t23.5 -81.5q35 -18 90 -14.5t116 14.5l119 20q58 10 99 8q10 -23 -14.5 -43 t-69.5 -36.5t-103.5 -27.5t-111.5 -15.5t-96.5 -2t-57.5 12.5z" />
<glyph unicode="&#x143;" horiz-adv-x="2074" d="M29 57q16 80 60 173.5t96 186.5l103 176q50 83 81 142l395 791h197l57 -58q12 -10 19 -61t13.5 -123t10.5 -154.5t10 -160.5t13.5 -141.5t17.5 -92.5q43 -121 101.5 -232.5t123.5 -219.5q6 -3 14 -4q28 0 71 49q54 61 122 174.5t144 265.5l154 316l150 329l136 303 l106 240q45 100 64 135q18 32 35 32h1q18 -1 32 -19.5t20 -47.5q3 -12 2 -23q0 -15 -4 -28q-80 -219 -177.5 -442.5t-204.5 -444.5l-219 -439l-219 -425q-39 -49 -77.5 -76.5t-76.5 -31.5h-8q-34 0 -70 23q-40 26 -79 85q-82 145 -130 274t-81 256t-59.5 259.5t-67.5 283.5 q-16 10 -51 -25.5t-81 -103.5t-99 -160l-109 -193l-109 -204l-100 -190l-78 -156q-34 -68 -51 -96l-31 -57l-38 -65l-32 -54l-13 -23h-84q-2 6 -2 27.5t2 29.5zM1380 1937q-63 -45 -93 -50t-35 18.5t11.5 68.5t49 98.5t75.5 108.5t92 100t99.5 72t95.5 25 q16 -74 -13.5 -129.5t-79.5 -104.5t-107.5 -98.5t-94.5 -108.5z" />
<glyph unicode="&#x144;" horiz-adv-x="1439" d="M975 29q-2 23 -2 45q0 59 15 117q22 81 57.5 161t77.5 158t73 153.5t43 150.5q4 26 4 52q0 48 -14 95q-24 8 -52 7q-43 0 -93 -20q-81 -33 -172 -98.5t-186 -154.5l-186 -180l-174 -173q-83 -82 -149.5 -136t-113.5 -69q-11 -3 -19 -3q-30 0 -41 36q0 2 17 38l48 94 l67 133l78 153l81 153l74 136l56 98t32 43q53 -36 53 -86q0 -36 -13 -75q-15 -44 -34 -90q-11 -28 -11 -54q0 -18 5 -35l111 77l156 101q85 53 175 101.5t171 78t143 32.5h9q56 0 85 -38q22 -30 22 -87q0 -21 -3 -45q-11 -91 -79 -249q-6 -12 -21 -46l-36 -81l-43 -98 l-43 -98l-36 -82q-15 -35 -20 -45q-4 -10 -7 -37t-9 -57.5t-15 -60.5t-24 -44q-6 -6 -12 -6q-2 0 -5 1q-9 3 -17.5 9t-14.5 13.5t-8 11.5zM942 1263q-63 -45 -93 -50t-35 18.5t11.5 68.5t49 98.5t75.5 108.5t92 100t99.5 72t95.5 25q16 -74 -13.5 -129.5t-79.5 -104.5 t-107.5 -98.5t-94.5 -108.5z" />
<glyph unicode="&#x147;" horiz-adv-x="2074" d="M29 57q16 80 60 173.5t96 186.5l103 176q50 83 81 142l395 791h197l57 -58q12 -10 19 -61t13.5 -123t10.5 -154.5t10 -160.5t13.5 -141.5t17.5 -92.5q43 -121 101.5 -232.5t123.5 -219.5q6 -3 14 -4q28 0 71 49q54 61 122 174.5t144 265.5l154 316l150 329l136 303 l106 240q45 100 64 135q18 32 35 32h1q18 -1 32 -19.5t20 -47.5q3 -12 2 -23q0 -15 -4 -28q-80 -219 -177.5 -442.5t-204.5 -444.5l-219 -439l-219 -425q-39 -49 -77.5 -76.5t-76.5 -31.5h-8q-34 0 -70 23q-40 26 -79 85q-82 145 -130 274t-81 256t-59.5 259.5t-67.5 283.5 q-16 10 -51 -25.5t-81 -103.5t-99 -160l-109 -193l-109 -204l-100 -190l-78 -156q-34 -68 -51 -96l-31 -57l-38 -65l-32 -54l-13 -23h-84q-2 6 -2 27.5t2 29.5zM1696 2101q33 25 47 3t11 -61.5t-23.5 -87t-55 -75t-84 -24.5t-112.5 63q-10 8 -34 29l-50 45l-51 45 q-25 22 -35 30q-8 8 4 13.5t23 7.5q39 12 77.5 -6.5t72.5 -46t57.5 -54.5t31.5 -33q14 -6 33.5 15.5t38 51.5t32 55.5t17.5 29.5z" />
<glyph unicode="&#x148;" horiz-adv-x="1439" d="M975 29q-2 23 -2 45q0 59 15 117q22 81 57.5 161t77.5 158t73 153.5t43 150.5q4 26 4 52q0 48 -14 95q-24 8 -52 7q-43 0 -93 -20q-81 -33 -172 -98.5t-186 -154.5l-186 -180l-174 -173q-83 -82 -149.5 -136t-113.5 -69q-11 -3 -19 -3q-30 0 -41 36q0 2 17 38l48 94 l67 133l78 153l81 153l74 136l56 98t32 43q53 -36 53 -86q0 -36 -13 -75q-15 -44 -34 -90q-11 -28 -11 -54q0 -18 5 -35l111 77l156 101q85 53 175 101.5t171 78t143 32.5h9q56 0 85 -38q22 -30 22 -87q0 -21 -3 -45q-11 -91 -79 -249q-6 -12 -21 -46l-36 -81l-43 -98 l-43 -98l-36 -82q-15 -35 -20 -45q-4 -10 -7 -37t-9 -57.5t-15 -60.5t-24 -44q-6 -6 -12 -6q-2 0 -5 1q-9 3 -17.5 9t-14.5 13.5t-8 11.5zM1145 1661q33 25 47 3t11 -61.5t-23.5 -87t-55 -75t-84 -24.5t-112.5 63q-10 8 -34 29l-50 45l-51 45q-25 22 -35 30q-8 8 4 13.5 t23 7.5q39 12 77.5 -6.5t72.5 -46t57.5 -54.5t31.5 -33q14 -6 33.5 15.5t38 51.5t32 55.5t17.5 29.5z" />
<glyph unicode="&#x150;" horiz-adv-x="1318" d="M242 29q-125 53 -165 146q-31 71 -31 152q0 25 3 50q12 109 61.5 218.5t102.5 195.5l38 59l58 91l70 106l71 105l60 89q27 39 41 57q29 193 119 305.5t203 155.5q73 28 150 28q42 0 85 -8q121 -24 210 -108t129 -223q19 -65 19 -142q0 -86 -24 -185 q-45 -187 -195.5 -419.5t-441.5 -502.5q-51 -47 -120 -91.5t-143.5 -72t-152.5 -32.5q-11 -1 -22 -1q-65 1 -125 27zM156 225q25 -113 94 -140q29 -12 63 -12q46 0 102 22q95 38 207.5 128t224 211t215 263.5t179.5 282.5t116 268q30 96 30 173q0 25 -4 48q-13 93 -90 141 q-55 34 -151 34q-38 0 -81 -6l-151 -146q-95 -95 -203.5 -218t-216 -264.5t-189.5 -281.5t-125 -270q-28 -85 -28 -159q0 -39 8 -74zM795 2015q-63 -45 -93 -50t-35 18.5t11.5 68.5t49 98.5t75.5 108.5t92 100t99.5 72t95.5 25q16 -74 -13.5 -129.5t-79.5 -104.5 t-107.5 -98.5t-94.5 -108.5zM1180 1982q-63 -45 -93 -50t-35 18.5t11.5 68.5t49 98.5t75.5 108.5t92.5 100.5t99.5 72t95 24.5q16 -74 -13.5 -129.5t-79.5 -104.5t-107.5 -98.5t-94.5 -108.5z" />
<glyph unicode="&#x151;" horiz-adv-x="1073" d="M199 29q-78 31 -112 88q-33 56 -33 125q0 73 31 156q30 81 78 162t109.5 156t124 134t122 96t104.5 43q49 6 91 6q92 0 152 -27q88 -40 122 -118q23 -54 23 -119q0 -30 -4 -62q-15 -103 -66.5 -209t-132.5 -203t-180.5 -162.5t-209.5 -87.5q-37 -7 -74 -7q-73 0 -145 29z M170 170q16 -66 62 -82q22 -8 49 -8q28 0 60 9q62 17 137 65.5t146.5 112t136 139t109.5 149.5t63 139q8 29 8 55q0 32 -12 58q-22 47 -87 67q-34 11 -86 11q-46 0 -105 -8q-35 -33 -89 -79t-113.5 -102.5t-117 -120t-99.5 -130t-61 -137.5q-10 -36 -10 -72q0 -33 9 -66z M412 1239q-63 -45 -93 -50t-35 18.5t11.5 68.5t49 98.5t75.5 108.5t92 100t99.5 72t95.5 25q16 -74 -13.5 -129.5t-79.5 -104.5t-107.5 -98.5t-94.5 -108.5zM797 1206q-63 -45 -93 -50t-35 18.5t11.5 68.5t49 98.5t75.5 108.5t92.5 100.5t99.5 72t95 24.5 q16 -74 -13.5 -129.5t-79.5 -104.5t-107.5 -98.5t-94.5 -108.5z" />
<glyph unicode="&#x152;" horiz-adv-x="2875" d="M242 29q-125 53 -165 146q-31 71 -31 152q0 25 3 50q12 109 61.5 218.5t102.5 195.5l38 59l58 91l70 106l71 105l60 89q27 39 41 57q29 193 119 305.5t203 155.5q73 28 150 28q42 0 85 -8q121 -24 210 -108t129 -223q19 -65 19 -142q0 -86 -24 -185 q-45 -187 -195.5 -419.5t-441.5 -502.5q-51 -47 -120 -91.5t-143.5 -72t-152.5 -32.5q-11 -1 -22 -1q-65 1 -125 27zM156 225q25 -113 94 -140q29 -12 63 -12q46 0 102 22q95 38 207.5 128t224 211t215 263.5t179.5 282.5t116 268q30 96 30 173q0 25 -4 48q-13 93 -90 141 q-55 34 -151 34q-38 0 -81 -6l-151 -146q-95 -95 -203.5 -218t-216 -264.5t-189.5 -281.5t-125 -270q-28 -85 -28 -159q0 -39 8 -74zM1049 37q-4 5 -4 11q0 9 12 18q25 90 52.5 172t58.5 164l64 165l71 175q12 25 -5.5 48.5t-38 48t-30.5 49t19 53.5q2 2 19.5 6l36.5 8 t35.5 8t20.5 6q8 4 30 25.5t26 29.5l80 145q42 77 80 157.5t71 161.5t51 159q6 20 -3 30.5t-25.5 15.5t-35 9t-32.5 13.5t-20.5 26t4.5 46.5q8 23 66.5 51.5t150.5 60.5t211.5 63.5t251 60.5t265.5 52.5t257 37.5t224 18l52 2q67 0 115 -9q66 -11 88 -38q9 -10 9 -23 q0 -21 -23 -50q-23 -6 -46.5 -1t-49 12t-52 13t-51.5 4q-240 -23 -469 -79l-463 -119q-63 -16 -127.5 -61.5t-124 -107t-112 -135t-90 -149.5t-60 -148.5t-22.5 -132.5v-86q7 -2 18 -1q30 0 86 13q76 17 174 43l208 52q110 27 207 38q49 6 91 5.5t79 -5.5q73 -11 97 -59 q2 -4 2 -14t-2 -14q-133 -20 -273.5 -35.5t-279.5 -40.5t-271 -65.5t-249 -112.5q-96 -166 -171 -344t-134 -363q72 27 168 51.5t185 44t155.5 32t79.5 14.5q106 16 207.5 29.5t202 21.5t201.5 10q25 1 51 1q77 0 157 -5q16 -4 23 -20.5t9.5 -35t0 -35t-4.5 -24.5 q-80 4 -159 4q-193 0 -381 -24q-266 -35 -535 -92q-43 -10 -103.5 -34t-124 -44.5t-123.5 -27.5q-13 -2 -25 -1q-44 0 -74 21q-10 4 -17.5 11t-11.5 19z" />
<glyph unicode="&#x153;" horiz-adv-x="1984" d="M199 29q-78 31 -112 88q-33 56 -33 125q0 73 31 156q30 81 78 162t109.5 156t124 134t122 96t104.5 43q49 6 91 6q92 0 152 -27q88 -40 122 -118q23 -54 23 -119q0 -30 -4 -62q-15 -103 -66.5 -209t-132.5 -203t-180.5 -162.5t-209.5 -87.5q-37 -7 -74 -7q-73 0 -145 29z M170 170q16 -66 62 -82q22 -8 49 -8q28 0 60 9q62 17 137 65.5t146.5 112t136 139t109.5 149.5t63 139q8 29 8 55q0 32 -12 58q-22 47 -87 67q-34 11 -86 11q-46 0 -105 -8q-35 -33 -89 -79t-113.5 -102.5t-117 -120t-99.5 -130t-61 -137.5q-10 -36 -10 -72q0 -33 9 -66z M979 29q-76 25 -115 76t-51 113q-7 36 -7 74q0 28 4 57q9 69 28 130l170 186q94 103 199.5 203.5t219 185.5t230.5 132q26 11 46 10q26 0 39 -18q24 -33 23.5 -86.5t-16.5 -109.5t-37 -79q-23 -27 -78 -64l-128 -85l-154 -102q-82 -54 -158 -109.5t-137.5 -111.5t-92.5 -108 q-26 -43 -26 -82q0 -9 1 -17q7 -46 69 -83q30 -4 63 -3q64 0 144 13q121 19 247.5 50.5t243.5 65.5t193 52l28 -26q-37 -47 -105.5 -91t-156.5 -79t-186.5 -61.5t-191.5 -39t-174 -12t-134 18.5zM1516 903q-1 1 -3 1q-5 0 -20 -7q-20 -10 -49 -27.5t-61 -40.5l-58 -42 q-27 -19 -43 -32q-13 -11 -13 -14q0 -2 3 -2q9 0 44 20q40 24 85 54l81 57q36 27 34 33z" />
<glyph unicode="&#x154;" horiz-adv-x="1718" d="M43 29q-5 15 -5 37q0 37 15 94q25 90 74 208.5t117 258.5l139 280l141 275l122 240q52 108 82 181q23 57 23 81q0 7 -1 12q-11 4 -24 4q-20 0 -41 -11l-68 -34q-34 -16 -65 -21h-6q-28 0 -50 33q-12 18 -8 34.5t15 32t24.5 28t23.5 18.5q305 229 574.5 359t479.5 177 q134 30 239 30q60 0 111 -9q140 -27 187 -112q22 -39 22 -88q0 -58 -30 -131q-55 -134 -235.5 -300t-498 -356.5t-792.5 -388.5q-51 -27 -51 -64q0 -6 1 -12q9 -45 64.5 -101.5t146.5 -120.5l194 -133l205 -137q103 -70 183.5 -134t126.5 -124q36 -47 36 -86q0 -10 -3 -20 q-4 -2 -32 19l-70 54l-90 73l-92 75l-74 60q-31 26 -37 30l-302 187q-151 91 -292 208q-9 3 -18 3q-26 0 -52 -26q-36 -36 -71 -99.5t-69 -144.5l-66 -163l-62 -154q-29 -73 -55.5 -117t-47.5 -50q-2 -1 -5 -1q-18 0 -33 46zM664 1130q20 -7 44 -6q46 0 112 22 q101 34 228.5 101.5t266.5 160.5t269 195.5t238.5 204t175 184.5t78.5 140q2 8 1 16q0 44 -56 56q-86 9 -166 9q-179 0 -332 -44q-222 -63 -391 -201.5t-287 -345.5t-181 -463v-29zM1036 2273q-63 -45 -93 -50t-35 18.5t11.5 68.5t49 98.5t75.5 108.5t92 100t99.5 72 t95.5 25q16 -74 -13.5 -129.5t-79.5 -104.5t-107.5 -98.5t-94.5 -108.5z" />
<glyph unicode="&#x155;" horiz-adv-x="1214" d="M72 29q-2 1 -2 10q0 14 4 48q6 56 18 142t31.5 187.5t43 195t49.5 166t52 99.5q16 16 33.5 -0.5t35 -41t36 -42t37.5 -2.5q70 98 153.5 186t186.5 153q10 6 55 22.5t103.5 33t118.5 28.5q48 10 86 10h19q44 -3 59 -24q5 -7 5 -16q0 -20 -22 -54q-113 -2 -214.5 -51 t-190.5 -129t-168 -181t-145.5 -206.5t-120.5 -207.5l-95 -180q-41 -79 -70 -127t-43 -48q-4 0 -24.5 11.5zM725 1575q-63 -45 -93 -50t-35 18.5t11.5 68.5t49 98.5t75.5 108.5t92 100t99.5 72t95.5 25q16 -74 -13.5 -129.5t-79.5 -104.5t-107.5 -98.5t-94.5 -108.5z" />
<glyph unicode="&#x158;" horiz-adv-x="1718" d="M43 29q-5 15 -5 37q0 37 15 94q25 90 74 208.5t117 258.5l139 280l141 275l122 240q52 108 82 181q23 57 23 81q0 7 -1 12q-11 4 -24 4q-20 0 -41 -11l-68 -34q-34 -16 -65 -21h-6q-28 0 -50 33q-12 18 -8 34.5t15 32t24.5 28t23.5 18.5q305 229 574.5 359t479.5 177 q134 30 239 30q60 0 111 -9q140 -27 187 -112q22 -39 22 -88q0 -58 -30 -131q-55 -134 -235.5 -300t-498 -356.5t-792.5 -388.5q-51 -27 -51 -64q0 -6 1 -12q9 -45 64.5 -101.5t146.5 -120.5l194 -133l205 -137q103 -70 183.5 -134t126.5 -124q36 -47 36 -86q0 -10 -3 -20 q-4 -2 -32 19l-70 54l-90 73l-92 75l-74 60q-31 26 -37 30l-302 187q-151 91 -292 208q-9 3 -18 3q-26 0 -52 -26q-36 -36 -71 -99.5t-69 -144.5l-66 -163l-62 -154q-29 -73 -55.5 -117t-47.5 -50q-2 -1 -5 -1q-18 0 -33 46zM664 1130q20 -7 44 -6q46 0 112 22 q101 34 228.5 101.5t266.5 160.5t269 195.5t238.5 204t175 184.5t78.5 140q2 8 1 16q0 44 -56 56q-86 9 -166 9q-179 0 -332 -44q-222 -63 -391 -201.5t-287 -345.5t-181 -463v-29zM1483 2706q33 25 47 3t11 -61.5t-23.5 -87t-55 -75t-84 -24.5t-112.5 63q-10 8 -34 29 l-50 45l-51 45q-25 22 -35 30q-8 8 4 13.5t23 7.5q39 12 77.5 -6.5t72.5 -46t57.5 -54.5t31.5 -33q14 -6 33.5 15.5t38 51.5t32 55.5t17.5 29.5z" />
<glyph unicode="&#x159;" horiz-adv-x="1214" d="M72 29q-2 1 -2 10q0 14 4 48q6 56 18 142t31.5 187.5t43 195t49.5 166t52 99.5q16 16 33.5 -0.5t35 -41t36 -42t37.5 -2.5q70 98 153.5 186t186.5 153q10 6 55 22.5t103.5 33t118.5 28.5q48 10 86 10h19q44 -3 59 -24q5 -7 5 -16q0 -20 -22 -54q-113 -2 -214.5 -51 t-190.5 -129t-168 -181t-145.5 -206.5t-120.5 -207.5l-95 -180q-41 -79 -70 -127t-43 -48q-4 0 -24.5 11.5zM739 1489q33 25 47 3t11 -61.5t-23.5 -87t-55 -75t-84 -24.5t-112.5 63q-10 8 -34 29l-50 45l-51 45q-25 22 -35 30q-8 8 4 13.5t23 7.5q39 12 77.5 -6.5t72.5 -46 t57.5 -54.5t31.5 -33q14 -6 33.5 15.5t38 51.5t32 55.5t17.5 29.5z" />
<glyph unicode="&#x15a;" horiz-adv-x="1536" d="M227 29q-8 2 -32.5 14t-53 28.5t-57.5 37t-45 41.5q-15 19 -16 37q0 21 34 38q29 -25 77 -60.5t93 -51.5q75 -3 148 -4q61 0 120 3q130 5 253.5 31.5t240.5 79.5t225 144q123 100 161 187q23 54 24 102q0 30 -9 59q-24 74 -97.5 137t-174 118.5t-215.5 105.5l-220 96 q-105 46 -190 91.5t-124 92.5q-2 7 -2 14q0 38 44 85q52 56 144 117.5t213 123t246 112t244.5 85t208.5 42.5q25 2 47 3q57 0 92 -16q37 -16 36 -56q0 -13 -4 -29q-18 -2 -90.5 -21.5t-176 -50t-225.5 -70.5t-238.5 -84t-216 -89t-157.5 -87q-64 -46 -64 -82q0 -32 67 -55 q293 -88 483 -185t296.5 -197.5t137.5 -201.5q17 -55 17 -109q0 -44 -12 -87q-26 -94 -99.5 -179t-177 -153.5t-229.5 -118t-254 -71.5q-101 -18 -198 -18q-27 0 -52 2q-124 6 -222 49zM793 1886q-63 -45 -93 -50t-35 18.5t11.5 68.5t49 98.5t75.5 108.5t92 100t99.5 72 t95.5 25q16 -74 -13.5 -129.5t-79.5 -104.5t-107.5 -98.5t-94.5 -108.5z" />
<glyph unicode="&#x15b;" horiz-adv-x="989" d="M72 29q-16 10 -16 24q0 13 15 29q30 33 94 73t148 82l163 78l139 66q60 29 77 43q88 75 89 124q0 40 -43 66q-46 29 -127 45.5t-168 31l-164.5 28.5t-117.5 40q-30 19 -30 47q0 9 3 19q13 41 108 107l103 73q69 48 147.5 97t155.5 90t130 51q10 2 20 2q17 0 36 -6 q29 -10 46 -28.5t16 -40t-34 -40.5l-272 -149q-133 -72 -264 -162q-10 -18 2 -33.5t26 -23.5q213 -23 340 -59.5t185.5 -82t58.5 -96.5t-41 -104t-114.5 -105.5t-160.5 -99.5t-178.5 -86t-169 -64.5t-133.5 -35.5q-28 -5 -45 -5t-24 5zM457 1220q-63 -45 -93 -50t-35 18.5 t11.5 68.5t49 98.5t75.5 108.5t92 100t99.5 72t95.5 25q16 -74 -13.5 -129.5t-79.5 -104.5t-107.5 -98.5t-94.5 -108.5z" />
<glyph unicode="&#x15c;" horiz-adv-x="1536" d="M227 29q-8 2 -32.5 14t-53 28.5t-57.5 37t-45 41.5q-15 19 -16 37q0 21 34 38q29 -25 77 -60.5t93 -51.5q75 -3 148 -4q61 0 120 3q130 5 253.5 31.5t240.5 79.5t225 144q123 100 161 187q23 54 24 102q0 30 -9 59q-24 74 -97.5 137t-174 118.5t-215.5 105.5l-220 96 q-105 46 -190 91.5t-124 92.5q-2 7 -2 14q0 38 44 85q52 56 144 117.5t213 123t246 112t244.5 85t208.5 42.5q25 2 47 3q57 0 92 -16q37 -16 36 -56q0 -13 -4 -29q-18 -2 -90.5 -21.5t-176 -50t-225.5 -70.5t-238.5 -84t-216 -89t-157.5 -87q-64 -46 -64 -82q0 -32 67 -55 q293 -88 483 -185t296.5 -197.5t137.5 -201.5q17 -55 17 -109q0 -44 -12 -87q-26 -94 -99.5 -179t-177 -153.5t-229.5 -118t-254 -71.5q-101 -18 -198 -18q-27 0 -52 2q-124 6 -222 49zM1028 2001q-4 4 -12 39l-21 83l-26 100q-14 52 -28.5 95t-29 66.5t-24.5 11.5 q-6 -10 -22 -48l-36 -85q-20 -47 -46.5 -97.5t-55.5 -88t-60.5 -53t-62.5 4.5q-12 8 -25.5 22.5t-3.5 33.5l40 78l60 119l60 119q29 56 39 79q55 119 102.5 150.5t84 5t64.5 -97t45 -157.5t23.5 -175.5t1.5 -149.5t-21.5 -82.5t-45.5 27.5z" />
<glyph unicode="&#x15d;" horiz-adv-x="989" d="M72 29q-16 10 -16 24q0 13 15 29q30 33 94 73t148 82l163 78l139 66q60 29 77 43q88 75 89 124q0 40 -43 66q-46 29 -127 45.5t-168 31l-164.5 28.5t-117.5 40q-30 19 -30 47q0 9 3 19q13 41 108 107l103 73q69 48 147.5 97t155.5 90t130 51q10 2 20 2q17 0 36 -6 q29 -10 46 -28.5t16 -40t-34 -40.5l-272 -149q-133 -72 -264 -162q-10 -18 2 -33.5t26 -23.5q213 -23 340 -59.5t185.5 -82t58.5 -96.5t-41 -104t-114.5 -105.5t-160.5 -99.5t-178.5 -86t-169 -64.5t-133.5 -35.5q-28 -5 -45 -5t-24 5zM891 1321q-4 4 -12 39l-21 83l-26 100 q-14 52 -28.5 95t-29 66.5t-24.5 11.5q-6 -10 -22 -48l-36 -85q-20 -47 -46.5 -97.5t-55.5 -88t-60.5 -53t-62.5 4.5q-12 8 -25.5 22.5t-3.5 33.5l40 78l60 119l60 119q29 56 39 79q55 119 102.5 150.5t84 5t64.5 -97t45 -157.5t23.5 -175.5t1.5 -149.5t-21.5 -82.5 t-45.5 27.5z" />
<glyph unicode="&#x15e;" horiz-adv-x="1536" d="M227 29q-8 2 -32.5 14t-53 28.5t-57.5 37t-45 41.5q-15 19 -16 37q0 21 34 38q29 -25 77 -60.5t93 -51.5q75 -3 148 -4q61 0 120 3q130 5 253.5 31.5t240.5 79.5t225 144q123 100 161 187q23 54 24 102q0 30 -9 59q-24 74 -97.5 137t-174 118.5t-215.5 105.5l-220 96 q-105 46 -190 91.5t-124 92.5q-2 7 -2 14q0 38 44 85q52 56 144 117.5t213 123t246 112t244.5 85t208.5 42.5q25 2 47 3q57 0 92 -16q37 -16 36 -56q0 -13 -4 -29q-18 -2 -90.5 -21.5t-176 -50t-225.5 -70.5t-238.5 -84t-216 -89t-157.5 -87q-64 -46 -64 -82q0 -32 67 -55 q293 -88 483 -185t296.5 -197.5t137.5 -201.5q17 -55 17 -109q0 -44 -12 -87q-26 -94 -99.5 -179t-177 -153.5t-229.5 -118t-254 -71.5q-101 -18 -198 -18q-27 0 -52 2q-124 6 -222 49zM543 -393q-12 35 24.5 48t87 20.5t100.5 18.5t67 42q14 31 3.5 46t-34 21.5t-55 9.5 t-59 10t-45 23.5t-13.5 49.5q-10 55 -7 102t14 66.5t29.5 1t41.5 -94.5q10 -31 37.5 -48t62.5 -28.5t70.5 -18.5t62.5 -19.5t37 -34t-4 -58.5q-4 -20 -47 -63t-103.5 -80t-126 -54.5t-114.5 11.5q-6 2 -16.5 13.5t-12.5 15.5z" />
<glyph unicode="&#x15f;" horiz-adv-x="989" d="M72 29q-16 10 -16 24q0 13 15 29q30 33 94 73t148 82l163 78l139 66q60 29 77 43q88 75 89 124q0 40 -43 66q-46 29 -127 45.5t-168 31l-164.5 28.5t-117.5 40q-30 19 -30 47q0 9 3 19q13 41 108 107l103 73q69 48 147.5 97t155.5 90t130 51q10 2 20 2q17 0 36 -6 q29 -10 46 -28.5t16 -40t-34 -40.5l-272 -149q-133 -72 -264 -162q-10 -18 2 -33.5t26 -23.5q213 -23 340 -59.5t185.5 -82t58.5 -96.5t-41 -104t-114.5 -105.5t-160.5 -99.5t-178.5 -86t-169 -64.5t-133.5 -35.5q-28 -5 -45 -5t-24 5zM268 -325q-12 35 24.5 48t87 20.5 t100.5 18.5t67 42q14 31 3.5 46t-34 21.5t-55 9.5t-59 10t-45 23.5t-13.5 49.5q-10 55 -7 102t14 66.5t29.5 1t41.5 -94.5q10 -31 37.5 -48t62.5 -28.5t70.5 -18.5t62.5 -19.5t37 -34t-4 -58.5q-4 -20 -47 -63t-103.5 -80t-126 -54.5t-114.5 11.5q-6 2 -16.5 13.5 t-12.5 15.5z" />
<glyph unicode="&#x160;" horiz-adv-x="1536" d="M227 29q-8 2 -32.5 14t-53 28.5t-57.5 37t-45 41.5q-15 19 -16 37q0 21 34 38q29 -25 77 -60.5t93 -51.5q75 -3 148 -4q61 0 120 3q130 5 253.5 31.5t240.5 79.5t225 144q123 100 161 187q23 54 24 102q0 30 -9 59q-24 74 -97.5 137t-174 118.5t-215.5 105.5l-220 96 q-105 46 -190 91.5t-124 92.5q-2 7 -2 14q0 38 44 85q52 56 144 117.5t213 123t246 112t244.5 85t208.5 42.5q25 2 47 3q57 0 92 -16q37 -16 36 -56q0 -13 -4 -29q-18 -2 -90.5 -21.5t-176 -50t-225.5 -70.5t-238.5 -84t-216 -89t-157.5 -87q-64 -46 -64 -82q0 -32 67 -55 q293 -88 483 -185t296.5 -197.5t137.5 -201.5q17 -55 17 -109q0 -44 -12 -87q-26 -94 -99.5 -179t-177 -153.5t-229.5 -118t-254 -71.5q-101 -18 -198 -18q-27 0 -52 2q-124 6 -222 49zM901 2081q33 25 47 3t11 -61.5t-23.5 -87t-55 -75t-84 -24.5t-112.5 63q-10 8 -34 29 l-50 45l-51 45q-25 22 -35 30q-8 8 4 13.5t23 7.5q39 12 77.5 -6.5t72.5 -46t57.5 -54.5t31.5 -33q14 -6 33.5 15.5t38 51.5t32 55.5t17.5 29.5z" />
<glyph unicode="&#x161;" horiz-adv-x="989" d="M72 29q-16 10 -16 24q0 13 15 29q30 33 94 73t148 82l163 78l139 66q60 29 77 43q88 75 89 124q0 40 -43 66q-46 29 -127 45.5t-168 31l-164.5 28.5t-117.5 40q-30 19 -30 47q0 9 3 19q13 41 108 107l103 73q69 48 147.5 97t155.5 90t130 51q10 2 20 2q17 0 36 -6 q29 -10 46 -28.5t16 -40t-34 -40.5l-272 -149q-133 -72 -264 -162q-10 -18 2 -33.5t26 -23.5q213 -23 340 -59.5t185.5 -82t58.5 -96.5t-41 -104t-114.5 -105.5t-160.5 -99.5t-178.5 -86t-169 -64.5t-133.5 -35.5q-28 -5 -45 -5t-24 5zM627 1489q33 25 47 3t11 -61.5 t-23.5 -87t-55 -75t-84 -24.5t-112.5 63q-10 8 -34 29l-50 45l-51 45q-25 22 -35 30q-8 8 4 13.5t23 7.5q39 12 77.5 -6.5t72.5 -46t57.5 -54.5t31.5 -33q14 -6 33.5 15.5t38 51.5t32 55.5t17.5 29.5z" />
<glyph unicode="&#x164;" horiz-adv-x="1394" d="M438 29q-8 31 -8 66.5t8 75.5q16 81 47 164t66 159l57 127q12 29 39 86l60 130l69 152l71 153l60 130l39 84q-15 3 -34 3q-36 0 -88 -10q-79 -15 -174 -39l-195 -49q-100 -26 -187 -37q-50 -7 -91 -7q-30 0 -56 4q-61 8 -78 51q12 27 87 59.5t193.5 68.5t272.5 73.5 t324 74.5t348 71l346 63q168 30 317.5 52.5t262 36t179.5 16.5q15 1 27 1q40 0 43 -8q5 -15 6 -32q0 -8 -2 -17q-4 -27 -30 -35q-123 -18 -267 -43l-288 -51l-287 -54l-260 -51q-78 -16 -150.5 -91t-140.5 -186.5t-130.5 -247.5t-117.5 -275l-103 -268l-87 -229 q-39 -99 -69 -155q-25 -47 -43 -47q-3 0 -7 2q-6 4 -16.5 14.5t-12.5 14.5zM829 1919q33 25 47 3t11 -61.5t-23.5 -87t-55 -75t-84 -24.5t-112.5 63q-10 8 -34 29l-50 45l-51 45q-25 22 -35 30q-8 8 4 13.5t23 7.5q39 12 77.5 -6.5t72.5 -46t57.5 -54.5t31.5 -33 q14 -6 33.5 15.5t38 51.5t32 55.5t17.5 29.5z" />
<glyph unicode="&#x169;" horiz-adv-x="1439" d="M1075 29q-68 27 -107.5 71.5t-62 102t-34.5 121.5l-23 129q-16 10 -54 -12.5t-88 -64.5l-110 -94q-59 -52 -122.5 -100.5t-126 -82t-118.5 -40.5q-9 -1 -18 -1q-45 0 -82 26q-45 31 -72 115q-4 13 -4 31q0 31 14 76q22 71 64.5 157t98 176t109.5 169t100 136t71 74 q52 -26 52 -74q0 -5 -1 -11q-6 -56 -46 -128t-100.5 -155t-113.5 -163.5t-86 -155.5q-22 -50 -22 -92q0 -21 6 -40q17 -7 38 -8q42 0 97 31q82 46 175 129t191 189l184 203l150 175q66 76 96 100q51 -27 51.5 -82t-28.5 -129t-70 -158t-71.5 -166t-35.5 -156q-1 -7 -1 -15 q0 -66 43 -113l84 -101h254q12 0 12 -6q0 -4 -4 -9q-10 -15 -29.5 -33.5t-40 -34t-22.5 -15.5q-35 -6 -63 -6q-22 0 -41 4q-40 8 -93 31zM729 975q-49 31 -78.5 79t-47 101t-28 102.5t-22.5 81t-30.5 36.5t-52.5 -28.5t-87 -116.5t-135 -226q-45 -14 -56.5 19.5t3 94t48 134 t79 137t98.5 104.5t104 37t97.5 -66.5t78.5 -206.5q25 -106 66 -147t94 -38t116.5 40t130.5 85l136 97q70 49 135 76q14 -23 -14.5 -70t-84.5 -100t-131 -106.5t-151.5 -89t-147.5 -47t-120 17.5z" />
<glyph unicode="&#x16c;" d="M227 29q-90 72 -123 187q-26 90 -25 195q0 29 2 60q9 139 52 293t102.5 303.5t125 284.5t123 237.5t96.5 161.5q38 57 42 57q14 0 27 -26q8 -16 9 -37t-2 -41.5t-5 -36.5q0 -2 -5 -10t-9 -18.5t-9 -18.5t-5 -10q-195 -426 -292.5 -715t-119.5 -462q-8 -59 -8 -106 q0 -90 28 -136q36 -57 105 -57q13 0 28 2q89 13 212.5 97t262 217.5t282 302.5t271.5 354t230 372.5t158 357.5q4 4 14 15.5t14 11.5q55 -37 55.5 -119t-44.5 -192.5t-127 -242.5t-187.5 -272.5t-227.5 -280t-249 -264t-250 -227t-229.5 -168t-190.5 -87.5q-30 -8 -55 -7 q-46 0 -76 25zM1280 2247q59 -37 61.5 -84t-30.5 -88t-91.5 -65.5t-121 -15.5t-119.5 59.5t-86 160.5q-4 4 2 11.5t16 13.5l21 12q10 6 16 6q16 -25 41 -55.5t53.5 -55t60.5 -38t63.5 -6t60 41t53.5 103.5z" />
<glyph unicode="&#x16d;" horiz-adv-x="1439" d="M1075 29q-68 27 -107.5 71.5t-62 102t-34.5 121.5l-23 129q-16 10 -54 -12.5t-88 -64.5l-110 -94q-59 -52 -122.5 -100.5t-126 -82t-118.5 -40.5q-9 -1 -18 -1q-45 0 -82 26q-45 31 -72 115q-4 13 -4 31q0 31 14 76q22 71 64.5 157t98 176t109.5 169t100 136t71 74 q52 -26 52 -74q0 -5 -1 -11q-6 -56 -46 -128t-100.5 -155t-113.5 -163.5t-86 -155.5q-22 -50 -22 -92q0 -21 6 -40q17 -7 38 -8q42 0 97 31q82 46 175 129t191 189l184 203l150 175q66 76 96 100q51 -27 51.5 -82t-28.5 -129t-70 -158t-71.5 -166t-35.5 -156q-1 -7 -1 -15 q0 -66 43 -113l84 -101h254q12 0 12 -6q0 -4 -4 -9q-10 -15 -29.5 -33.5t-40 -34t-22.5 -15.5q-35 -6 -63 -6q-22 0 -41 4q-40 8 -93 31zM801 1489q59 -37 61.5 -84t-30.5 -88t-91.5 -65.5t-121 -15.5t-119.5 59.5t-86 160.5q-4 4 2 11.5t16 13.5l21 12q10 6 16 6 q16 -25 41 -55.5t53.5 -55t60.5 -38t63.5 -6t60 41t53.5 103.5z" />
<glyph unicode="&#x16e;" d="M227 29q-90 72 -123 187q-26 90 -25 195q0 29 2 60q9 139 52 293t102.5 303.5t125 284.5t123 237.5t96.5 161.5q38 57 42 57q14 0 27 -26q8 -16 9 -37t-2 -41.5t-5 -36.5q0 -2 -5 -10t-9 -18.5t-9 -18.5t-5 -10q-195 -426 -292.5 -715t-119.5 -462q-8 -59 -8 -106 q0 -90 28 -136q36 -57 105 -57q13 0 28 2q89 13 212.5 97t262 217.5t282 302.5t271.5 354t230 372.5t158 357.5q4 4 14 15.5t14 11.5q55 -37 55.5 -119t-44.5 -192.5t-127 -242.5t-187.5 -272.5t-227.5 -280t-249 -264t-250 -227t-229.5 -168t-190.5 -87.5q-30 -8 -55 -7 q-46 0 -76 25zM1085 1958q-63 25 -78.5 75t1 110.5t57 123.5t90 117.5t100.5 90.5t88 40q125 14 179 -30t55.5 -117.5t-43 -158.5t-115 -153t-158.5 -99.5t-176 1.5zM1067 2040q12 -47 52 -51.5t92 19t109.5 70t105.5 99.5t79 107.5t29.5 95.5t-41 61.5t-134.5 7.5l-88 -73 q-55 -45 -106 -99.5t-82.5 -116t-15.5 -120.5z" />
<glyph unicode="&#x16f;" horiz-adv-x="1439" d="M1075 29q-68 27 -107.5 71.5t-62 102t-34.5 121.5l-23 129q-16 10 -54 -12.5t-88 -64.5l-110 -94q-59 -52 -122.5 -100.5t-126 -82t-118.5 -40.5q-9 -1 -18 -1q-45 0 -82 26q-45 31 -72 115q-4 13 -4 31q0 31 14 76q22 71 64.5 157t98 176t109.5 169t100 136t71 74 q52 -26 52 -74q0 -5 -1 -11q-6 -56 -46 -128t-100.5 -155t-113.5 -163.5t-86 -155.5q-22 -50 -22 -92q0 -21 6 -40q17 -7 38 -8q42 0 97 31q82 46 175 129t191 189l184 203l150 175q66 76 96 100q51 -27 51.5 -82t-28.5 -129t-70 -158t-71.5 -166t-35.5 -156q-1 -7 -1 -15 q0 -66 43 -113l84 -101h254q12 0 12 -6q0 -4 -4 -9q-10 -15 -29.5 -33.5t-40 -34t-22.5 -15.5q-35 -6 -63 -6q-22 0 -41 4q-40 8 -93 31zM709 1077q-63 25 -78.5 75t1 110.5t57 123.5t90 117.5t100.5 90.5t88 40q125 14 179 -30t55.5 -117.5t-43 -158.5t-115 -153 t-158.5 -99.5t-176 1.5zM691 1159q12 -47 52 -51.5t92 19t109.5 70t105.5 99.5t79 107.5t29.5 95.5t-41 61.5t-134.5 7.5l-88 -73q-55 -45 -106 -99.5t-82.5 -116t-15.5 -120.5z" />
<glyph unicode="&#x170;" d="M227 29q-90 72 -123 187q-26 90 -25 195q0 29 2 60q9 139 52 293t102.5 303.5t125 284.5t123 237.5t96.5 161.5q38 57 42 57q14 0 27 -26q8 -16 9 -37t-2 -41.5t-5 -36.5q0 -2 -5 -10t-9 -18.5t-9 -18.5t-5 -10q-195 -426 -292.5 -715t-119.5 -462q-8 -59 -8 -106 q0 -90 28 -136q36 -57 105 -57q13 0 28 2q89 13 212.5 97t262 217.5t282 302.5t271.5 354t230 372.5t158 357.5q4 4 14 15.5t14 11.5q55 -37 55.5 -119t-44.5 -192.5t-127 -242.5t-187.5 -272.5t-227.5 -280t-249 -264t-250 -227t-229.5 -168t-190.5 -87.5q-30 -8 -55 -7 q-46 0 -76 25zM1108 2128q-63 -45 -93 -50t-35 18.5t11.5 68.5t49 98.5t75.5 108.5t92 100t99.5 72t95.5 25q16 -74 -13.5 -129.5t-79.5 -104.5t-107.5 -98.5t-94.5 -108.5zM1493 2095q-63 -45 -93 -50t-35 18.5t11.5 68.5t49 98.5t75.5 108.5t92.5 100.5t99.5 72t95 24.5 q16 -74 -13.5 -129.5t-79.5 -104.5t-107.5 -98.5t-94.5 -108.5z" />
<glyph unicode="&#x171;" horiz-adv-x="1439" d="M1075 29q-68 27 -107.5 71.5t-62 102t-34.5 121.5l-23 129q-16 10 -54 -12.5t-88 -64.5l-110 -94q-59 -52 -122.5 -100.5t-126 -82t-118.5 -40.5q-9 -1 -18 -1q-45 0 -82 26q-45 31 -72 115q-4 13 -4 31q0 31 14 76q22 71 64.5 157t98 176t109.5 169t100 136t71 74 q52 -26 52 -74q0 -5 -1 -11q-6 -56 -46 -128t-100.5 -155t-113.5 -163.5t-86 -155.5q-22 -50 -22 -92q0 -21 6 -40q17 -7 38 -8q42 0 97 31q82 46 175 129t191 189l184 203l150 175q66 76 96 100q51 -27 51.5 -82t-28.5 -129t-70 -158t-71.5 -166t-35.5 -156q-1 -7 -1 -15 q0 -66 43 -113l84 -101h254q12 0 12 -6q0 -4 -4 -9q-10 -15 -29.5 -33.5t-40 -34t-22.5 -15.5q-35 -6 -63 -6q-22 0 -41 4q-40 8 -93 31zM680 1306q-63 -45 -93 -50t-35 18.5t11.5 68.5t49 98.5t75.5 108.5t92 100t99.5 72t95.5 25q16 -74 -13.5 -129.5t-79.5 -104.5 t-107.5 -98.5t-94.5 -108.5zM1065 1273q-63 -45 -93 -50t-35 18.5t11.5 68.5t49 98.5t75.5 108.5t92.5 100.5t99.5 72t95 24.5q16 -74 -13.5 -129.5t-79.5 -104.5t-107.5 -98.5t-94.5 -108.5z" />
</font>
</defs>
</svg>
